G04 #@! TF.FileFunction,Legend,Top*
%FSLAX46Y46*%
G04 Gerber Fmt 4.6, Leading zero omitted, Abs format (unit mm)*
G04 Created by KiCad (PCBNEW 4.0.7-e2-6376~61~ubuntu18.04.1) date Thu Mar 14 12:40:49 2019*
%MOMM*%
%LPD*%
G01*
G04 APERTURE LIST*
%ADD10C,0.100000*%
%ADD11C,0.200000*%
%ADD12C,0.150000*%
%ADD13C,0.120000*%
%ADD14C,0.381000*%
%ADD15C,0.203200*%
%ADD16C,0.066040*%
%ADD17C,0.127000*%
%ADD18C,0.050000*%
%ADD19C,0.130000*%
G04 APERTURE END LIST*
D10*
D11*
X116380000Y-90635000D02*
X116680000Y-90335000D01*
X116720000Y-90295000D02*
X116380000Y-90635000D01*
X117070000Y-90645000D02*
X116720000Y-90295000D01*
X116710000Y-90285000D02*
X117070000Y-90645000D01*
X116710000Y-91285000D02*
X116710000Y-90285000D01*
D12*
X115013334Y-92418333D02*
X115113334Y-92451667D01*
X115280001Y-92451667D01*
X115346668Y-92418333D01*
X115380001Y-92385000D01*
X115413334Y-92318333D01*
X115413334Y-92251667D01*
X115380001Y-92185000D01*
X115346668Y-92151667D01*
X115280001Y-92118333D01*
X115146668Y-92085000D01*
X115080001Y-92051667D01*
X115046668Y-92018333D01*
X115013334Y-91951667D01*
X115013334Y-91885000D01*
X115046668Y-91818333D01*
X115080001Y-91785000D01*
X115146668Y-91751667D01*
X115313334Y-91751667D01*
X115413334Y-91785000D01*
X115613335Y-91985000D02*
X115880001Y-91985000D01*
X115713335Y-91751667D02*
X115713335Y-92351667D01*
X115746668Y-92418333D01*
X115813335Y-92451667D01*
X115880001Y-92451667D01*
X116413335Y-92451667D02*
X116413335Y-92085000D01*
X116380001Y-92018333D01*
X116313335Y-91985000D01*
X116180001Y-91985000D01*
X116113335Y-92018333D01*
X116413335Y-92418333D02*
X116346668Y-92451667D01*
X116180001Y-92451667D01*
X116113335Y-92418333D01*
X116080001Y-92351667D01*
X116080001Y-92285000D01*
X116113335Y-92218333D01*
X116180001Y-92185000D01*
X116346668Y-92185000D01*
X116413335Y-92151667D01*
X116646668Y-91985000D02*
X116913334Y-91985000D01*
X116746668Y-91751667D02*
X116746668Y-92351667D01*
X116780001Y-92418333D01*
X116846668Y-92451667D01*
X116913334Y-92451667D01*
X117446668Y-91985000D02*
X117446668Y-92451667D01*
X117146668Y-91985000D02*
X117146668Y-92351667D01*
X117180001Y-92418333D01*
X117246668Y-92451667D01*
X117346668Y-92451667D01*
X117413334Y-92418333D01*
X117446668Y-92385000D01*
X117746667Y-92418333D02*
X117813334Y-92451667D01*
X117946667Y-92451667D01*
X118013334Y-92418333D01*
X118046667Y-92351667D01*
X118046667Y-92318333D01*
X118013334Y-92251667D01*
X117946667Y-92218333D01*
X117846667Y-92218333D01*
X117780001Y-92185000D01*
X117746667Y-92118333D01*
X117746667Y-92085000D01*
X117780001Y-92018333D01*
X117846667Y-91985000D01*
X117946667Y-91985000D01*
X118013334Y-92018333D01*
X119213334Y-92451667D02*
X118880001Y-92451667D01*
X118880001Y-91751667D01*
X119446668Y-92085000D02*
X119680001Y-92085000D01*
X119780001Y-92451667D02*
X119446668Y-92451667D01*
X119446668Y-91751667D01*
X119780001Y-91751667D01*
X120080001Y-92451667D02*
X120080001Y-91751667D01*
X120246667Y-91751667D01*
X120346667Y-91785000D01*
X120413334Y-91851667D01*
X120446667Y-91918333D01*
X120480001Y-92051667D01*
X120480001Y-92151667D01*
X120446667Y-92285000D01*
X120413334Y-92351667D01*
X120346667Y-92418333D01*
X120246667Y-92451667D01*
X120080001Y-92451667D01*
X121513334Y-91751667D02*
X121513334Y-92251667D01*
X121480000Y-92351667D01*
X121413334Y-92418333D01*
X121313334Y-92451667D01*
X121246667Y-92451667D01*
X121846667Y-92451667D02*
X121846667Y-91751667D01*
X122113333Y-91751667D01*
X122180000Y-91785000D01*
X122213333Y-91818333D01*
X122246667Y-91885000D01*
X122246667Y-91985000D01*
X122213333Y-92051667D01*
X122180000Y-92085000D01*
X122113333Y-92118333D01*
X121846667Y-92118333D01*
X115387619Y-82748381D02*
X115054285Y-82272190D01*
X114816190Y-82748381D02*
X114816190Y-81748381D01*
X115197143Y-81748381D01*
X115292381Y-81796000D01*
X115340000Y-81843619D01*
X115387619Y-81938857D01*
X115387619Y-82081714D01*
X115340000Y-82176952D01*
X115292381Y-82224571D01*
X115197143Y-82272190D01*
X114816190Y-82272190D01*
X115816190Y-82224571D02*
X116149524Y-82224571D01*
X116292381Y-82748381D02*
X115816190Y-82748381D01*
X115816190Y-81748381D01*
X116292381Y-81748381D01*
X116673333Y-82700762D02*
X116816190Y-82748381D01*
X117054286Y-82748381D01*
X117149524Y-82700762D01*
X117197143Y-82653143D01*
X117244762Y-82557905D01*
X117244762Y-82462667D01*
X117197143Y-82367429D01*
X117149524Y-82319810D01*
X117054286Y-82272190D01*
X116863809Y-82224571D01*
X116768571Y-82176952D01*
X116720952Y-82129333D01*
X116673333Y-82034095D01*
X116673333Y-81938857D01*
X116720952Y-81843619D01*
X116768571Y-81796000D01*
X116863809Y-81748381D01*
X117101905Y-81748381D01*
X117244762Y-81796000D01*
X117673333Y-82224571D02*
X118006667Y-82224571D01*
X118149524Y-82748381D02*
X117673333Y-82748381D01*
X117673333Y-81748381D01*
X118149524Y-81748381D01*
X118435238Y-81748381D02*
X119006667Y-81748381D01*
X118720952Y-82748381D02*
X118720952Y-81748381D01*
X107217333Y-84670000D02*
X107250667Y-84570000D01*
X107250667Y-84403333D01*
X107217333Y-84336666D01*
X107184000Y-84303333D01*
X107117333Y-84270000D01*
X107050667Y-84270000D01*
X106984000Y-84303333D01*
X106950667Y-84336666D01*
X106917333Y-84403333D01*
X106884000Y-84536666D01*
X106850667Y-84603333D01*
X106817333Y-84636666D01*
X106750667Y-84670000D01*
X106684000Y-84670000D01*
X106617333Y-84636666D01*
X106584000Y-84603333D01*
X106550667Y-84536666D01*
X106550667Y-84370000D01*
X106584000Y-84270000D01*
X107250667Y-83969999D02*
X106550667Y-83969999D01*
X106550667Y-83803333D01*
X106584000Y-83703333D01*
X106650667Y-83636666D01*
X106717333Y-83603333D01*
X106850667Y-83569999D01*
X106950667Y-83569999D01*
X107084000Y-83603333D01*
X107150667Y-83636666D01*
X107217333Y-83703333D01*
X107250667Y-83803333D01*
X107250667Y-83969999D01*
X107050667Y-83303333D02*
X107050667Y-82969999D01*
X107250667Y-83369999D02*
X106550667Y-83136666D01*
X107250667Y-82903333D01*
X107217333Y-87701334D02*
X107250667Y-87601334D01*
X107250667Y-87434667D01*
X107217333Y-87368000D01*
X107184000Y-87334667D01*
X107117333Y-87301334D01*
X107050667Y-87301334D01*
X106984000Y-87334667D01*
X106950667Y-87368000D01*
X106917333Y-87434667D01*
X106884000Y-87568000D01*
X106850667Y-87634667D01*
X106817333Y-87668000D01*
X106750667Y-87701334D01*
X106684000Y-87701334D01*
X106617333Y-87668000D01*
X106584000Y-87634667D01*
X106550667Y-87568000D01*
X106550667Y-87401334D01*
X106584000Y-87301334D01*
X107184000Y-86601333D02*
X107217333Y-86634667D01*
X107250667Y-86734667D01*
X107250667Y-86801333D01*
X107217333Y-86901333D01*
X107150667Y-86968000D01*
X107084000Y-87001333D01*
X106950667Y-87034667D01*
X106850667Y-87034667D01*
X106717333Y-87001333D01*
X106650667Y-86968000D01*
X106584000Y-86901333D01*
X106550667Y-86801333D01*
X106550667Y-86734667D01*
X106584000Y-86634667D01*
X106617333Y-86601333D01*
X107250667Y-85968000D02*
X107250667Y-86301333D01*
X106550667Y-86301333D01*
X106584000Y-90449333D02*
X106550667Y-90515999D01*
X106550667Y-90615999D01*
X106584000Y-90715999D01*
X106650667Y-90782666D01*
X106717333Y-90815999D01*
X106850667Y-90849333D01*
X106950667Y-90849333D01*
X107084000Y-90815999D01*
X107150667Y-90782666D01*
X107217333Y-90715999D01*
X107250667Y-90615999D01*
X107250667Y-90549333D01*
X107217333Y-90449333D01*
X107184000Y-90415999D01*
X106950667Y-90415999D01*
X106950667Y-90549333D01*
X107250667Y-90115999D02*
X106550667Y-90115999D01*
X107250667Y-89715999D01*
X106550667Y-89715999D01*
X107250667Y-89382666D02*
X106550667Y-89382666D01*
X106550667Y-89216000D01*
X106584000Y-89116000D01*
X106650667Y-89049333D01*
X106717333Y-89016000D01*
X106850667Y-88982666D01*
X106950667Y-88982666D01*
X107084000Y-89016000D01*
X107150667Y-89049333D01*
X107217333Y-89116000D01*
X107250667Y-89216000D01*
X107250667Y-89382666D01*
X106550667Y-93830667D02*
X106550667Y-93397334D01*
X106817333Y-93630667D01*
X106817333Y-93530667D01*
X106850667Y-93464000D01*
X106884000Y-93430667D01*
X106950667Y-93397334D01*
X107117333Y-93397334D01*
X107184000Y-93430667D01*
X107217333Y-93464000D01*
X107250667Y-93530667D01*
X107250667Y-93730667D01*
X107217333Y-93797334D01*
X107184000Y-93830667D01*
X106550667Y-93197333D02*
X107250667Y-92964000D01*
X106550667Y-92730667D01*
X106550667Y-92564000D02*
X106550667Y-92130667D01*
X106817333Y-92364000D01*
X106817333Y-92264000D01*
X106850667Y-92197333D01*
X106884000Y-92164000D01*
X106950667Y-92130667D01*
X107117333Y-92130667D01*
X107184000Y-92164000D01*
X107217333Y-92197333D01*
X107250667Y-92264000D01*
X107250667Y-92464000D01*
X107217333Y-92530667D01*
X107184000Y-92564000D01*
X119950667Y-89537333D02*
X119617333Y-89770667D01*
X119950667Y-89937333D02*
X119250667Y-89937333D01*
X119250667Y-89670667D01*
X119284000Y-89604000D01*
X119317333Y-89570667D01*
X119384000Y-89537333D01*
X119484000Y-89537333D01*
X119550667Y-89570667D01*
X119584000Y-89604000D01*
X119617333Y-89670667D01*
X119617333Y-89937333D01*
X119917333Y-89270667D02*
X119950667Y-89170667D01*
X119950667Y-89004000D01*
X119917333Y-88937333D01*
X119884000Y-88904000D01*
X119817333Y-88870667D01*
X119750667Y-88870667D01*
X119684000Y-88904000D01*
X119650667Y-88937333D01*
X119617333Y-89004000D01*
X119584000Y-89137333D01*
X119550667Y-89204000D01*
X119517333Y-89237333D01*
X119450667Y-89270667D01*
X119384000Y-89270667D01*
X119317333Y-89237333D01*
X119284000Y-89204000D01*
X119250667Y-89137333D01*
X119250667Y-88970667D01*
X119284000Y-88870667D01*
X119250667Y-88670666D02*
X119250667Y-88270666D01*
X119950667Y-88470666D02*
X119250667Y-88470666D01*
X119917333Y-87514000D02*
X119950667Y-87414000D01*
X119950667Y-87247333D01*
X119917333Y-87180666D01*
X119884000Y-87147333D01*
X119817333Y-87114000D01*
X119750667Y-87114000D01*
X119684000Y-87147333D01*
X119650667Y-87180666D01*
X119617333Y-87247333D01*
X119584000Y-87380666D01*
X119550667Y-87447333D01*
X119517333Y-87480666D01*
X119450667Y-87514000D01*
X119384000Y-87514000D01*
X119317333Y-87480666D01*
X119284000Y-87447333D01*
X119250667Y-87380666D01*
X119250667Y-87214000D01*
X119284000Y-87114000D01*
X119884000Y-86413999D02*
X119917333Y-86447333D01*
X119950667Y-86547333D01*
X119950667Y-86613999D01*
X119917333Y-86713999D01*
X119850667Y-86780666D01*
X119784000Y-86813999D01*
X119650667Y-86847333D01*
X119550667Y-86847333D01*
X119417333Y-86813999D01*
X119350667Y-86780666D01*
X119284000Y-86713999D01*
X119250667Y-86613999D01*
X119250667Y-86547333D01*
X119284000Y-86447333D01*
X119317333Y-86413999D01*
X119950667Y-86113999D02*
X119250667Y-86113999D01*
X119950667Y-85713999D02*
X119550667Y-86013999D01*
X119250667Y-85713999D02*
X119650667Y-86113999D01*
X127316667Y-87459999D02*
X126616667Y-87459999D01*
X127116667Y-87226666D01*
X126616667Y-86993333D01*
X127316667Y-86993333D01*
X126616667Y-86526666D02*
X126616667Y-86393333D01*
X126650000Y-86326666D01*
X126716667Y-86259999D01*
X126850000Y-86226666D01*
X127083333Y-86226666D01*
X127216667Y-86259999D01*
X127283333Y-86326666D01*
X127316667Y-86393333D01*
X127316667Y-86526666D01*
X127283333Y-86593333D01*
X127216667Y-86659999D01*
X127083333Y-86693333D01*
X126850000Y-86693333D01*
X126716667Y-86659999D01*
X126650000Y-86593333D01*
X126616667Y-86526666D01*
X127283333Y-85960000D02*
X127316667Y-85860000D01*
X127316667Y-85693333D01*
X127283333Y-85626666D01*
X127250000Y-85593333D01*
X127183333Y-85560000D01*
X127116667Y-85560000D01*
X127050000Y-85593333D01*
X127016667Y-85626666D01*
X126983333Y-85693333D01*
X126950000Y-85826666D01*
X126916667Y-85893333D01*
X126883333Y-85926666D01*
X126816667Y-85960000D01*
X126750000Y-85960000D01*
X126683333Y-85926666D01*
X126650000Y-85893333D01*
X126616667Y-85826666D01*
X126616667Y-85660000D01*
X126650000Y-85560000D01*
X127316667Y-85259999D02*
X126616667Y-85259999D01*
X126650000Y-89941333D02*
X126616667Y-90007999D01*
X126616667Y-90107999D01*
X126650000Y-90207999D01*
X126716667Y-90274666D01*
X126783333Y-90307999D01*
X126916667Y-90341333D01*
X127016667Y-90341333D01*
X127150000Y-90307999D01*
X127216667Y-90274666D01*
X127283333Y-90207999D01*
X127316667Y-90107999D01*
X127316667Y-90041333D01*
X127283333Y-89941333D01*
X127250000Y-89907999D01*
X127016667Y-89907999D01*
X127016667Y-90041333D01*
X127316667Y-89607999D02*
X126616667Y-89607999D01*
X127316667Y-89207999D01*
X126616667Y-89207999D01*
X127316667Y-88874666D02*
X126616667Y-88874666D01*
X126616667Y-88708000D01*
X126650000Y-88608000D01*
X126716667Y-88541333D01*
X126783333Y-88508000D01*
X126916667Y-88474666D01*
X127016667Y-88474666D01*
X127150000Y-88508000D01*
X127216667Y-88541333D01*
X127283333Y-88608000D01*
X127316667Y-88708000D01*
X127316667Y-88874666D01*
X119950667Y-84919999D02*
X119250667Y-84919999D01*
X119750667Y-84686666D01*
X119250667Y-84453333D01*
X119950667Y-84453333D01*
X119950667Y-84119999D02*
X119250667Y-84119999D01*
X119917333Y-83820000D02*
X119950667Y-83720000D01*
X119950667Y-83553333D01*
X119917333Y-83486666D01*
X119884000Y-83453333D01*
X119817333Y-83420000D01*
X119750667Y-83420000D01*
X119684000Y-83453333D01*
X119650667Y-83486666D01*
X119617333Y-83553333D01*
X119584000Y-83686666D01*
X119550667Y-83753333D01*
X119517333Y-83786666D01*
X119450667Y-83820000D01*
X119384000Y-83820000D01*
X119317333Y-83786666D01*
X119284000Y-83753333D01*
X119250667Y-83686666D01*
X119250667Y-83520000D01*
X119284000Y-83420000D01*
X119250667Y-82986666D02*
X119250667Y-82853333D01*
X119284000Y-82786666D01*
X119350667Y-82719999D01*
X119484000Y-82686666D01*
X119717333Y-82686666D01*
X119850667Y-82719999D01*
X119917333Y-82786666D01*
X119950667Y-82853333D01*
X119950667Y-82986666D01*
X119917333Y-83053333D01*
X119850667Y-83119999D01*
X119717333Y-83153333D01*
X119484000Y-83153333D01*
X119350667Y-83119999D01*
X119284000Y-83053333D01*
X119250667Y-82986666D01*
X126616667Y-84432667D02*
X126616667Y-83999334D01*
X126883333Y-84232667D01*
X126883333Y-84132667D01*
X126916667Y-84066000D01*
X126950000Y-84032667D01*
X127016667Y-83999334D01*
X127183333Y-83999334D01*
X127250000Y-84032667D01*
X127283333Y-84066000D01*
X127316667Y-84132667D01*
X127316667Y-84332667D01*
X127283333Y-84399334D01*
X127250000Y-84432667D01*
X126616667Y-83799333D02*
X127316667Y-83566000D01*
X126616667Y-83332667D01*
X126616667Y-83166000D02*
X126616667Y-82732667D01*
X126883333Y-82966000D01*
X126883333Y-82866000D01*
X126916667Y-82799333D01*
X126950000Y-82766000D01*
X127016667Y-82732667D01*
X127183333Y-82732667D01*
X127250000Y-82766000D01*
X127283333Y-82799333D01*
X127316667Y-82866000D01*
X127316667Y-83066000D01*
X127283333Y-83132667D01*
X127250000Y-83166000D01*
X113004000Y-103948667D02*
X112770666Y-103615333D01*
X112604000Y-103948667D02*
X112604000Y-103248667D01*
X112870666Y-103248667D01*
X112937333Y-103282000D01*
X112970666Y-103315333D01*
X113004000Y-103382000D01*
X113004000Y-103482000D01*
X112970666Y-103548667D01*
X112937333Y-103582000D01*
X112870666Y-103615333D01*
X112604000Y-103615333D01*
X113537333Y-103582000D02*
X113304000Y-103582000D01*
X113304000Y-103948667D02*
X113304000Y-103248667D01*
X113637333Y-103248667D01*
X113904000Y-103948667D02*
X113904000Y-103248667D01*
X114137333Y-103748667D01*
X114370666Y-103248667D01*
X114370666Y-103948667D01*
X114737333Y-103948667D02*
X114870666Y-103948667D01*
X114937333Y-103915333D01*
X114970666Y-103882000D01*
X115037333Y-103782000D01*
X115070666Y-103648667D01*
X115070666Y-103382000D01*
X115037333Y-103315333D01*
X115004000Y-103282000D01*
X114937333Y-103248667D01*
X114804000Y-103248667D01*
X114737333Y-103282000D01*
X114704000Y-103315333D01*
X114670666Y-103382000D01*
X114670666Y-103548667D01*
X114704000Y-103615333D01*
X114737333Y-103648667D01*
X114804000Y-103682000D01*
X114937333Y-103682000D01*
X115004000Y-103648667D01*
X115037333Y-103615333D01*
X115070666Y-103548667D01*
X115704000Y-103248667D02*
X115370667Y-103248667D01*
X115337333Y-103582000D01*
X115370667Y-103548667D01*
X115437333Y-103515333D01*
X115604000Y-103515333D01*
X115670667Y-103548667D01*
X115704000Y-103582000D01*
X115737333Y-103648667D01*
X115737333Y-103815333D01*
X115704000Y-103882000D01*
X115670667Y-103915333D01*
X115604000Y-103948667D01*
X115437333Y-103948667D01*
X115370667Y-103915333D01*
X115337333Y-103882000D01*
X115970667Y-103248667D02*
X116137334Y-103948667D01*
X116270667Y-103448667D01*
X116404000Y-103948667D01*
X116570667Y-103248667D01*
X106800667Y-80326667D02*
X106934000Y-80326667D01*
X107000667Y-80293333D01*
X107034000Y-80260000D01*
X107100667Y-80160000D01*
X107134000Y-80026667D01*
X107134000Y-79760000D01*
X107100667Y-79693333D01*
X107067334Y-79660000D01*
X107000667Y-79626667D01*
X106867334Y-79626667D01*
X106800667Y-79660000D01*
X106767334Y-79693333D01*
X106734000Y-79760000D01*
X106734000Y-79926667D01*
X106767334Y-79993333D01*
X106800667Y-80026667D01*
X106867334Y-80060000D01*
X107000667Y-80060000D01*
X107067334Y-80026667D01*
X107100667Y-79993333D01*
X107134000Y-79926667D01*
X126104666Y-80072667D02*
X125704666Y-80072667D01*
X125904666Y-80072667D02*
X125904666Y-79372667D01*
X125838000Y-79472667D01*
X125771333Y-79539333D01*
X125704666Y-79572667D01*
X126538000Y-79372667D02*
X126604667Y-79372667D01*
X126671333Y-79406000D01*
X126704667Y-79439333D01*
X126738000Y-79506000D01*
X126771333Y-79639333D01*
X126771333Y-79806000D01*
X126738000Y-79939333D01*
X126704667Y-80006000D01*
X126671333Y-80039333D01*
X126604667Y-80072667D01*
X126538000Y-80072667D01*
X126471333Y-80039333D01*
X126438000Y-80006000D01*
X126404667Y-79939333D01*
X126371333Y-79806000D01*
X126371333Y-79639333D01*
X126404667Y-79506000D01*
X126438000Y-79439333D01*
X126471333Y-79406000D01*
X126538000Y-79372667D01*
X106867334Y-77132667D02*
X106800667Y-77099333D01*
X106767334Y-77066000D01*
X106734000Y-76999333D01*
X106734000Y-76966000D01*
X106767334Y-76899333D01*
X106800667Y-76866000D01*
X106867334Y-76832667D01*
X107000667Y-76832667D01*
X107067334Y-76866000D01*
X107100667Y-76899333D01*
X107134000Y-76966000D01*
X107134000Y-76999333D01*
X107100667Y-77066000D01*
X107067334Y-77099333D01*
X107000667Y-77132667D01*
X106867334Y-77132667D01*
X106800667Y-77166000D01*
X106767334Y-77199333D01*
X106734000Y-77266000D01*
X106734000Y-77399333D01*
X106767334Y-77466000D01*
X106800667Y-77499333D01*
X106867334Y-77532667D01*
X107000667Y-77532667D01*
X107067334Y-77499333D01*
X107100667Y-77466000D01*
X107134000Y-77399333D01*
X107134000Y-77266000D01*
X107100667Y-77199333D01*
X107067334Y-77166000D01*
X107000667Y-77132667D01*
X106700667Y-74292667D02*
X107167334Y-74292667D01*
X106867334Y-74992667D01*
X107067334Y-71752667D02*
X106934000Y-71752667D01*
X106867334Y-71786000D01*
X106834000Y-71819333D01*
X106767334Y-71919333D01*
X106734000Y-72052667D01*
X106734000Y-72319333D01*
X106767334Y-72386000D01*
X106800667Y-72419333D01*
X106867334Y-72452667D01*
X107000667Y-72452667D01*
X107067334Y-72419333D01*
X107100667Y-72386000D01*
X107134000Y-72319333D01*
X107134000Y-72152667D01*
X107100667Y-72086000D01*
X107067334Y-72052667D01*
X107000667Y-72019333D01*
X106867334Y-72019333D01*
X106800667Y-72052667D01*
X106767334Y-72086000D01*
X106734000Y-72152667D01*
X107100667Y-69212667D02*
X106767334Y-69212667D01*
X106734000Y-69546000D01*
X106767334Y-69512667D01*
X106834000Y-69479333D01*
X107000667Y-69479333D01*
X107067334Y-69512667D01*
X107100667Y-69546000D01*
X107134000Y-69612667D01*
X107134000Y-69779333D01*
X107100667Y-69846000D01*
X107067334Y-69879333D01*
X107000667Y-69912667D01*
X106834000Y-69912667D01*
X106767334Y-69879333D01*
X106734000Y-69846000D01*
X107067334Y-66906000D02*
X107067334Y-67372667D01*
X106900667Y-66639333D02*
X106734000Y-67139333D01*
X107167334Y-67139333D01*
X106700667Y-64132667D02*
X107134000Y-64132667D01*
X106900667Y-64399333D01*
X107000667Y-64399333D01*
X107067334Y-64432667D01*
X107100667Y-64466000D01*
X107134000Y-64532667D01*
X107134000Y-64699333D01*
X107100667Y-64766000D01*
X107067334Y-64799333D01*
X107000667Y-64832667D01*
X106800667Y-64832667D01*
X106734000Y-64799333D01*
X106700667Y-64766000D01*
X106734000Y-61659333D02*
X106767334Y-61626000D01*
X106834000Y-61592667D01*
X107000667Y-61592667D01*
X107067334Y-61626000D01*
X107100667Y-61659333D01*
X107134000Y-61726000D01*
X107134000Y-61792667D01*
X107100667Y-61892667D01*
X106700667Y-62292667D01*
X107134000Y-62292667D01*
X106400667Y-59086000D02*
X106334001Y-59052667D01*
X106234001Y-59052667D01*
X106134001Y-59086000D01*
X106067334Y-59152667D01*
X106034001Y-59219333D01*
X106000667Y-59352667D01*
X106000667Y-59452667D01*
X106034001Y-59586000D01*
X106067334Y-59652667D01*
X106134001Y-59719333D01*
X106234001Y-59752667D01*
X106300667Y-59752667D01*
X106400667Y-59719333D01*
X106434001Y-59686000D01*
X106434001Y-59452667D01*
X106300667Y-59452667D01*
X106734001Y-59752667D02*
X106734001Y-59052667D01*
X107134001Y-59752667D01*
X107134001Y-59052667D01*
X107467334Y-59752667D02*
X107467334Y-59052667D01*
X107634000Y-59052667D01*
X107734000Y-59086000D01*
X107800667Y-59152667D01*
X107834000Y-59219333D01*
X107867334Y-59352667D01*
X107867334Y-59452667D01*
X107834000Y-59586000D01*
X107800667Y-59652667D01*
X107734000Y-59719333D01*
X107634000Y-59752667D01*
X107467334Y-59752667D01*
X106550667Y-57212667D02*
X106317333Y-56879333D01*
X106150667Y-57212667D02*
X106150667Y-56512667D01*
X106417333Y-56512667D01*
X106484000Y-56546000D01*
X106517333Y-56579333D01*
X106550667Y-56646000D01*
X106550667Y-56746000D01*
X106517333Y-56812667D01*
X106484000Y-56846000D01*
X106417333Y-56879333D01*
X106150667Y-56879333D01*
X106817333Y-57179333D02*
X106917333Y-57212667D01*
X107084000Y-57212667D01*
X107150667Y-57179333D01*
X107184000Y-57146000D01*
X107217333Y-57079333D01*
X107217333Y-57012667D01*
X107184000Y-56946000D01*
X107150667Y-56912667D01*
X107084000Y-56879333D01*
X106950667Y-56846000D01*
X106884000Y-56812667D01*
X106850667Y-56779333D01*
X106817333Y-56712667D01*
X106817333Y-56646000D01*
X106850667Y-56579333D01*
X106884000Y-56546000D01*
X106950667Y-56512667D01*
X107117333Y-56512667D01*
X107217333Y-56546000D01*
X107417334Y-56512667D02*
X107817334Y-56512667D01*
X107617334Y-57212667D02*
X107617334Y-56512667D01*
X106817334Y-54672667D02*
X106584000Y-54339333D01*
X106417334Y-54672667D02*
X106417334Y-53972667D01*
X106684000Y-53972667D01*
X106750667Y-54006000D01*
X106784000Y-54039333D01*
X106817334Y-54106000D01*
X106817334Y-54206000D01*
X106784000Y-54272667D01*
X106750667Y-54306000D01*
X106684000Y-54339333D01*
X106417334Y-54339333D01*
X107050667Y-53972667D02*
X107517334Y-54672667D01*
X107517334Y-53972667D02*
X107050667Y-54672667D01*
X106400667Y-51432667D02*
X106800667Y-51432667D01*
X106600667Y-52132667D02*
X106600667Y-51432667D01*
X106967333Y-51432667D02*
X107434000Y-52132667D01*
X107434000Y-51432667D02*
X106967333Y-52132667D01*
X126104666Y-77532667D02*
X125704666Y-77532667D01*
X125904666Y-77532667D02*
X125904666Y-76832667D01*
X125838000Y-76932667D01*
X125771333Y-76999333D01*
X125704666Y-77032667D01*
X126771333Y-77532667D02*
X126371333Y-77532667D01*
X126571333Y-77532667D02*
X126571333Y-76832667D01*
X126504667Y-76932667D01*
X126438000Y-76999333D01*
X126371333Y-77032667D01*
X126104666Y-74992667D02*
X125704666Y-74992667D01*
X125904666Y-74992667D02*
X125904666Y-74292667D01*
X125838000Y-74392667D01*
X125771333Y-74459333D01*
X125704666Y-74492667D01*
X126371333Y-74359333D02*
X126404667Y-74326000D01*
X126471333Y-74292667D01*
X126638000Y-74292667D01*
X126704667Y-74326000D01*
X126738000Y-74359333D01*
X126771333Y-74426000D01*
X126771333Y-74492667D01*
X126738000Y-74592667D01*
X126338000Y-74992667D01*
X126771333Y-74992667D01*
X126104666Y-72452667D02*
X125704666Y-72452667D01*
X125904666Y-72452667D02*
X125904666Y-71752667D01*
X125838000Y-71852667D01*
X125771333Y-71919333D01*
X125704666Y-71952667D01*
X126338000Y-71752667D02*
X126771333Y-71752667D01*
X126538000Y-72019333D01*
X126638000Y-72019333D01*
X126704667Y-72052667D01*
X126738000Y-72086000D01*
X126771333Y-72152667D01*
X126771333Y-72319333D01*
X126738000Y-72386000D01*
X126704667Y-72419333D01*
X126638000Y-72452667D01*
X126438000Y-72452667D01*
X126371333Y-72419333D01*
X126338000Y-72386000D01*
X125738000Y-69712667D02*
X126071334Y-69712667D01*
X125671334Y-69912667D02*
X125904667Y-69212667D01*
X126138000Y-69912667D01*
X126504667Y-69212667D02*
X126571334Y-69212667D01*
X126638000Y-69246000D01*
X126671334Y-69279333D01*
X126704667Y-69346000D01*
X126738000Y-69479333D01*
X126738000Y-69646000D01*
X126704667Y-69779333D01*
X126671334Y-69846000D01*
X126638000Y-69879333D01*
X126571334Y-69912667D01*
X126504667Y-69912667D01*
X126438000Y-69879333D01*
X126404667Y-69846000D01*
X126371334Y-69779333D01*
X126338000Y-69646000D01*
X126338000Y-69479333D01*
X126371334Y-69346000D01*
X126404667Y-69279333D01*
X126438000Y-69246000D01*
X126504667Y-69212667D01*
X125738000Y-67172667D02*
X126071334Y-67172667D01*
X125671334Y-67372667D02*
X125904667Y-66672667D01*
X126138000Y-67372667D01*
X126738000Y-67372667D02*
X126338000Y-67372667D01*
X126538000Y-67372667D02*
X126538000Y-66672667D01*
X126471334Y-66772667D01*
X126404667Y-66839333D01*
X126338000Y-66872667D01*
X125738000Y-64632667D02*
X126071334Y-64632667D01*
X125671334Y-64832667D02*
X125904667Y-64132667D01*
X126138000Y-64832667D01*
X126338000Y-64199333D02*
X126371334Y-64166000D01*
X126438000Y-64132667D01*
X126604667Y-64132667D01*
X126671334Y-64166000D01*
X126704667Y-64199333D01*
X126738000Y-64266000D01*
X126738000Y-64332667D01*
X126704667Y-64432667D01*
X126304667Y-64832667D01*
X126738000Y-64832667D01*
X125735001Y-62291667D02*
X125735001Y-61591667D01*
X126135001Y-62291667D01*
X126135001Y-61591667D01*
X126868334Y-62225000D02*
X126835000Y-62258333D01*
X126735000Y-62291667D01*
X126668334Y-62291667D01*
X126568334Y-62258333D01*
X126501667Y-62191667D01*
X126468334Y-62125000D01*
X126435000Y-61991667D01*
X126435000Y-61891667D01*
X126468334Y-61758333D01*
X126501667Y-61691667D01*
X126568334Y-61625000D01*
X126668334Y-61591667D01*
X126735000Y-61591667D01*
X126835000Y-61625000D01*
X126868334Y-61658333D01*
X125304667Y-58452667D02*
X125538000Y-59152667D01*
X125771333Y-58452667D01*
X126404667Y-59086000D02*
X126371333Y-59119333D01*
X126271333Y-59152667D01*
X126204667Y-59152667D01*
X126104667Y-59119333D01*
X126038000Y-59052667D01*
X126004667Y-58986000D01*
X125971333Y-58852667D01*
X125971333Y-58752667D01*
X126004667Y-58619333D01*
X126038000Y-58552667D01*
X126104667Y-58486000D01*
X126204667Y-58452667D01*
X126271333Y-58452667D01*
X126371333Y-58486000D01*
X126404667Y-58519333D01*
X127104667Y-59086000D02*
X127071333Y-59119333D01*
X126971333Y-59152667D01*
X126904667Y-59152667D01*
X126804667Y-59119333D01*
X126738000Y-59052667D01*
X126704667Y-58986000D01*
X126671333Y-58852667D01*
X126671333Y-58752667D01*
X126704667Y-58619333D01*
X126738000Y-58552667D01*
X126804667Y-58486000D01*
X126904667Y-58452667D01*
X126971333Y-58452667D01*
X127071333Y-58486000D01*
X127104667Y-58519333D01*
X125371333Y-59652667D02*
X125804666Y-59652667D01*
X125571333Y-59919333D01*
X125671333Y-59919333D01*
X125738000Y-59952667D01*
X125771333Y-59986000D01*
X125804666Y-60052667D01*
X125804666Y-60219333D01*
X125771333Y-60286000D01*
X125738000Y-60319333D01*
X125671333Y-60352667D01*
X125471333Y-60352667D01*
X125404666Y-60319333D01*
X125371333Y-60286000D01*
X126004667Y-59652667D02*
X126238000Y-60352667D01*
X126471333Y-59652667D01*
X126638000Y-59652667D02*
X127071333Y-59652667D01*
X126838000Y-59919333D01*
X126938000Y-59919333D01*
X127004667Y-59952667D01*
X127038000Y-59986000D01*
X127071333Y-60052667D01*
X127071333Y-60219333D01*
X127038000Y-60286000D01*
X127004667Y-60319333D01*
X126938000Y-60352667D01*
X126738000Y-60352667D01*
X126671333Y-60319333D01*
X126638000Y-60286000D01*
X125854667Y-57212667D02*
X125621333Y-56879333D01*
X125454667Y-57212667D02*
X125454667Y-56512667D01*
X125721333Y-56512667D01*
X125788000Y-56546000D01*
X125821333Y-56579333D01*
X125854667Y-56646000D01*
X125854667Y-56746000D01*
X125821333Y-56812667D01*
X125788000Y-56846000D01*
X125721333Y-56879333D01*
X125454667Y-56879333D01*
X126121333Y-57179333D02*
X126221333Y-57212667D01*
X126388000Y-57212667D01*
X126454667Y-57179333D01*
X126488000Y-57146000D01*
X126521333Y-57079333D01*
X126521333Y-57012667D01*
X126488000Y-56946000D01*
X126454667Y-56912667D01*
X126388000Y-56879333D01*
X126254667Y-56846000D01*
X126188000Y-56812667D01*
X126154667Y-56779333D01*
X126121333Y-56712667D01*
X126121333Y-56646000D01*
X126154667Y-56579333D01*
X126188000Y-56546000D01*
X126254667Y-56512667D01*
X126421333Y-56512667D01*
X126521333Y-56546000D01*
X126721334Y-56512667D02*
X127121334Y-56512667D01*
X126921334Y-57212667D02*
X126921334Y-56512667D01*
X125704667Y-54006000D02*
X125638001Y-53972667D01*
X125538001Y-53972667D01*
X125438001Y-54006000D01*
X125371334Y-54072667D01*
X125338001Y-54139333D01*
X125304667Y-54272667D01*
X125304667Y-54372667D01*
X125338001Y-54506000D01*
X125371334Y-54572667D01*
X125438001Y-54639333D01*
X125538001Y-54672667D01*
X125604667Y-54672667D01*
X125704667Y-54639333D01*
X125738001Y-54606000D01*
X125738001Y-54372667D01*
X125604667Y-54372667D01*
X126038001Y-54672667D02*
X126038001Y-53972667D01*
X126438001Y-54672667D01*
X126438001Y-53972667D01*
X126771334Y-54672667D02*
X126771334Y-53972667D01*
X126938000Y-53972667D01*
X127038000Y-54006000D01*
X127104667Y-54072667D01*
X127138000Y-54139333D01*
X127171334Y-54272667D01*
X127171334Y-54372667D01*
X127138000Y-54506000D01*
X127104667Y-54572667D01*
X127038000Y-54639333D01*
X126938000Y-54672667D01*
X126771334Y-54672667D01*
X125721334Y-51766000D02*
X125821334Y-51799333D01*
X125854667Y-51832667D01*
X125888001Y-51899333D01*
X125888001Y-51999333D01*
X125854667Y-52066000D01*
X125821334Y-52099333D01*
X125754667Y-52132667D01*
X125488001Y-52132667D01*
X125488001Y-51432667D01*
X125721334Y-51432667D01*
X125788001Y-51466000D01*
X125821334Y-51499333D01*
X125854667Y-51566000D01*
X125854667Y-51632667D01*
X125821334Y-51699333D01*
X125788001Y-51732667D01*
X125721334Y-51766000D01*
X125488001Y-51766000D01*
X126154667Y-51932667D02*
X126488001Y-51932667D01*
X126088001Y-52132667D02*
X126321334Y-51432667D01*
X126554667Y-52132667D01*
X126688001Y-51432667D02*
X127088001Y-51432667D01*
X126888001Y-52132667D02*
X126888001Y-51432667D01*
X119850001Y-43496667D02*
X119850001Y-42796667D01*
X120016667Y-42796667D01*
X120116667Y-42830000D01*
X120183334Y-42896667D01*
X120216667Y-42963333D01*
X120250001Y-43096667D01*
X120250001Y-43196667D01*
X120216667Y-43330000D01*
X120183334Y-43396667D01*
X120116667Y-43463333D01*
X120016667Y-43496667D01*
X119850001Y-43496667D01*
X120450001Y-42796667D02*
X120850001Y-42796667D01*
X120650001Y-43496667D02*
X120650001Y-42796667D01*
X121483334Y-43496667D02*
X121250000Y-43163333D01*
X121083334Y-43496667D02*
X121083334Y-42796667D01*
X121350000Y-42796667D01*
X121416667Y-42830000D01*
X121450000Y-42863333D01*
X121483334Y-42930000D01*
X121483334Y-43030000D01*
X121450000Y-43096667D01*
X121416667Y-43130000D01*
X121350000Y-43163333D01*
X121083334Y-43163333D01*
X117576667Y-42796667D02*
X117976667Y-42796667D01*
X117776667Y-43496667D02*
X117776667Y-42796667D01*
X118143333Y-42796667D02*
X118610000Y-43496667D01*
X118610000Y-42796667D02*
X118143333Y-43496667D01*
X115453334Y-43496667D02*
X115220000Y-43163333D01*
X115053334Y-43496667D02*
X115053334Y-42796667D01*
X115320000Y-42796667D01*
X115386667Y-42830000D01*
X115420000Y-42863333D01*
X115453334Y-42930000D01*
X115453334Y-43030000D01*
X115420000Y-43096667D01*
X115386667Y-43130000D01*
X115320000Y-43163333D01*
X115053334Y-43163333D01*
X115686667Y-42796667D02*
X116153334Y-43496667D01*
X116153334Y-42796667D02*
X115686667Y-43496667D01*
X112163333Y-42796667D02*
X112596666Y-42796667D01*
X112363333Y-43063333D01*
X112463333Y-43063333D01*
X112530000Y-43096667D01*
X112563333Y-43130000D01*
X112596666Y-43196667D01*
X112596666Y-43363333D01*
X112563333Y-43430000D01*
X112530000Y-43463333D01*
X112463333Y-43496667D01*
X112263333Y-43496667D01*
X112196666Y-43463333D01*
X112163333Y-43430000D01*
X112796667Y-42796667D02*
X113030000Y-43496667D01*
X113263333Y-42796667D01*
X113430000Y-42796667D02*
X113863333Y-42796667D01*
X113630000Y-43063333D01*
X113730000Y-43063333D01*
X113796667Y-43096667D01*
X113830000Y-43130000D01*
X113863333Y-43196667D01*
X113863333Y-43363333D01*
X113830000Y-43430000D01*
X113796667Y-43463333D01*
X113730000Y-43496667D01*
X113530000Y-43496667D01*
X113463333Y-43463333D01*
X113430000Y-43430000D01*
X109956667Y-42830000D02*
X109890001Y-42796667D01*
X109790001Y-42796667D01*
X109690001Y-42830000D01*
X109623334Y-42896667D01*
X109590001Y-42963333D01*
X109556667Y-43096667D01*
X109556667Y-43196667D01*
X109590001Y-43330000D01*
X109623334Y-43396667D01*
X109690001Y-43463333D01*
X109790001Y-43496667D01*
X109856667Y-43496667D01*
X109956667Y-43463333D01*
X109990001Y-43430000D01*
X109990001Y-43196667D01*
X109856667Y-43196667D01*
X110290001Y-43496667D02*
X110290001Y-42796667D01*
X110690001Y-43496667D01*
X110690001Y-42796667D01*
X111023334Y-43496667D02*
X111023334Y-42796667D01*
X111190000Y-42796667D01*
X111290000Y-42830000D01*
X111356667Y-42896667D01*
X111390000Y-42963333D01*
X111423334Y-43096667D01*
X111423334Y-43196667D01*
X111390000Y-43330000D01*
X111356667Y-43396667D01*
X111290000Y-43463333D01*
X111190000Y-43496667D01*
X111023334Y-43496667D01*
X107416667Y-42830000D02*
X107350001Y-42796667D01*
X107250001Y-42796667D01*
X107150001Y-42830000D01*
X107083334Y-42896667D01*
X107050001Y-42963333D01*
X107016667Y-43096667D01*
X107016667Y-43196667D01*
X107050001Y-43330000D01*
X107083334Y-43396667D01*
X107150001Y-43463333D01*
X107250001Y-43496667D01*
X107316667Y-43496667D01*
X107416667Y-43463333D01*
X107450001Y-43430000D01*
X107450001Y-43196667D01*
X107316667Y-43196667D01*
X107750001Y-43496667D02*
X107750001Y-42796667D01*
X108150001Y-43496667D01*
X108150001Y-42796667D01*
X108483334Y-43496667D02*
X108483334Y-42796667D01*
X108650000Y-42796667D01*
X108750000Y-42830000D01*
X108816667Y-42896667D01*
X108850000Y-42963333D01*
X108883334Y-43096667D01*
X108883334Y-43196667D01*
X108850000Y-43330000D01*
X108816667Y-43396667D01*
X108750000Y-43463333D01*
X108650000Y-43496667D01*
X108483334Y-43496667D01*
D13*
X132185000Y-46650000D02*
X127835000Y-46650000D01*
X127835000Y-46650000D02*
X127835000Y-45650000D01*
X127835000Y-45650000D02*
X132185000Y-45650000D01*
X125985000Y-47950000D02*
X125985000Y-48300000D01*
X125985000Y-48300000D02*
X124385000Y-48300000D01*
X124385000Y-48300000D02*
X124385000Y-49200000D01*
X124385000Y-49200000D02*
X132185000Y-49200000D01*
X132185000Y-49200000D02*
X132185000Y-43100000D01*
X132185000Y-43100000D02*
X124385000Y-43100000D01*
X124385000Y-43100000D02*
X124385000Y-44000000D01*
X124385000Y-44000000D02*
X125985000Y-44000000D01*
X125985000Y-44000000D02*
X125985000Y-44350000D01*
X125985000Y-49200000D02*
X125985000Y-48300000D01*
X125985000Y-43100000D02*
X125985000Y-44000000D01*
X128335000Y-48450000D02*
X129935000Y-48450000D01*
X129935000Y-48450000D02*
X129935000Y-47450000D01*
X129935000Y-47450000D02*
X128335000Y-47450000D01*
X128335000Y-47450000D02*
X128335000Y-48450000D01*
X128335000Y-43850000D02*
X129935000Y-43850000D01*
X129935000Y-43850000D02*
X129935000Y-44850000D01*
X129935000Y-44850000D02*
X128335000Y-44850000D01*
X128335000Y-44850000D02*
X128335000Y-43850000D01*
X129935000Y-47450000D02*
X132185000Y-47450000D01*
X129935000Y-47950000D02*
X132185000Y-47950000D01*
X125985000Y-47950000D02*
X124785000Y-47950000D01*
D12*
X116840000Y-62183476D02*
X116680901Y-62342575D01*
X121966524Y-67310000D02*
X121736714Y-67539810D01*
X116840000Y-72436524D02*
X117069810Y-72206714D01*
X111713476Y-67310000D02*
X111943286Y-67080190D01*
X116840000Y-62183476D02*
X117069810Y-62413286D01*
X111713476Y-67310000D02*
X111943286Y-67539810D01*
X116840000Y-72436524D02*
X116610190Y-72206714D01*
X121966524Y-67310000D02*
X121736714Y-67080190D01*
X116680901Y-62342575D02*
X115673274Y-61334948D01*
D11*
X106960400Y-96089200D02*
X122960400Y-96089200D01*
X122960400Y-112089200D02*
X106960400Y-112089200D01*
X105501950Y-97089200D02*
G75*
G03X105501950Y-97089200I-291550J0D01*
G01*
D14*
G36*
X104960400Y-96889200D02*
X105460400Y-96889200D01*
X105460400Y-97289200D01*
X104960400Y-97289200D01*
X104960400Y-96889200D01*
G37*
X104960400Y-96889200D02*
X105460400Y-96889200D01*
X105460400Y-97289200D01*
X104960400Y-97289200D01*
X104960400Y-96889200D01*
D13*
X120590000Y-90230000D02*
X125790000Y-90230000D01*
X120590000Y-85090000D02*
X120590000Y-90230000D01*
X125790000Y-82490000D02*
X125790000Y-90230000D01*
X120590000Y-85090000D02*
X123190000Y-85090000D01*
X123190000Y-85090000D02*
X123190000Y-82490000D01*
X123190000Y-82490000D02*
X125790000Y-82490000D01*
X120590000Y-83820000D02*
X120590000Y-82490000D01*
X120590000Y-82490000D02*
X121920000Y-82490000D01*
X124654000Y-107248000D02*
X127314000Y-107248000D01*
X124654000Y-102108000D02*
X124654000Y-107248000D01*
X127314000Y-102108000D02*
X127314000Y-107248000D01*
X124654000Y-102108000D02*
X127314000Y-102108000D01*
X124654000Y-100838000D02*
X124654000Y-99508000D01*
X124654000Y-99508000D02*
X125984000Y-99508000D01*
D15*
X127440000Y-111265000D02*
X127440000Y-110665000D01*
X127840000Y-111265000D02*
X127340000Y-111265000D01*
X127840000Y-111265000D02*
X127840000Y-110665000D01*
X127840000Y-110665000D02*
X127340000Y-110665000D01*
X126540000Y-110965000D02*
G75*
G03X126540000Y-110965000I-200000J0D01*
G01*
X127340000Y-110965000D02*
G75*
G03X127340000Y-110965000I-1000000J0D01*
G01*
X124740000Y-109965000D02*
G75*
G03X124740000Y-109965000I-200000J0D01*
G01*
X125040000Y-109665000D02*
X125040000Y-112265000D01*
X125040000Y-112265000D02*
X127640000Y-112265000D01*
X127640000Y-112265000D02*
X127640000Y-109665000D01*
X127640000Y-109665000D02*
X125040000Y-109665000D01*
D13*
X107532000Y-94752000D02*
X113482000Y-94752000D01*
X113482000Y-94752000D02*
X113482000Y-82152000D01*
X113482000Y-82152000D02*
X107532000Y-82152000D01*
X107532000Y-82152000D02*
X107532000Y-94752000D01*
X107532000Y-91452000D02*
X108282000Y-91452000D01*
X108282000Y-91452000D02*
X108282000Y-85452000D01*
X108282000Y-85452000D02*
X107532000Y-85452000D01*
X107532000Y-85452000D02*
X107532000Y-91452000D01*
X107532000Y-94752000D02*
X108282000Y-94752000D01*
X108282000Y-94752000D02*
X108282000Y-92952000D01*
X108282000Y-92952000D02*
X107532000Y-92952000D01*
X107532000Y-92952000D02*
X107532000Y-94752000D01*
X107532000Y-83952000D02*
X108282000Y-83952000D01*
X108282000Y-83952000D02*
X108282000Y-82152000D01*
X108282000Y-82152000D02*
X107532000Y-82152000D01*
X107532000Y-82152000D02*
X107532000Y-83952000D01*
X109782000Y-94752000D02*
X109782000Y-94002000D01*
X109782000Y-94002000D02*
X112732000Y-94002000D01*
X112732000Y-94002000D02*
X112732000Y-88452000D01*
X109782000Y-82152000D02*
X109782000Y-82902000D01*
X109782000Y-82902000D02*
X112732000Y-82902000D01*
X112732000Y-82902000D02*
X112732000Y-88452000D01*
X107232000Y-92552000D02*
X107232000Y-95052000D01*
X107232000Y-95052000D02*
X109732000Y-95052000D01*
D12*
X119237600Y-81504400D02*
X114037600Y-81504400D01*
X119687600Y-81104400D02*
X119687600Y-78204400D01*
X119287600Y-77804400D02*
X114087600Y-77804400D01*
X113687600Y-78204400D02*
X113687600Y-81154400D01*
X118187600Y-80154400D02*
X115187600Y-80154400D01*
X115187600Y-80154400D02*
X115187600Y-79154400D01*
X115187600Y-79154400D02*
X118187600Y-79154400D01*
X118187600Y-79154400D02*
X118187600Y-80154400D01*
X119687600Y-80154400D02*
X120187600Y-80154400D01*
X120187600Y-80154400D02*
X120187600Y-79154400D01*
X120187600Y-79154400D02*
X119687600Y-79154400D01*
X113687600Y-80154400D02*
X113187600Y-80154400D01*
X113187600Y-80154400D02*
X113187600Y-79154400D01*
X113187600Y-79154400D02*
X113687600Y-79154400D01*
X114037600Y-81504400D02*
G75*
G02X113687600Y-81154400I0J350000D01*
G01*
X119687600Y-81054400D02*
G75*
G02X119237600Y-81504400I-450000J0D01*
G01*
X119287600Y-77804400D02*
G75*
G02X119687600Y-78204400I0J-400000D01*
G01*
X113687600Y-78204400D02*
G75*
G02X114087600Y-77804400I400000J0D01*
G01*
D16*
X112908080Y-61831220D02*
X112908080Y-58557160D01*
X112908080Y-58557160D02*
X112885220Y-58557160D01*
X112885220Y-61831220D02*
X112885220Y-58557160D01*
X112908080Y-61831220D02*
X112885220Y-61831220D01*
X112885220Y-61831220D02*
X112885220Y-61808360D01*
X112885220Y-61808360D02*
X112864900Y-61808360D01*
X112864900Y-61831220D02*
X112864900Y-61808360D01*
X112885220Y-61831220D02*
X112864900Y-61831220D01*
X112885220Y-61612780D02*
X112885220Y-61196220D01*
X112885220Y-61196220D02*
X112864900Y-61196220D01*
X112864900Y-61612780D02*
X112864900Y-61196220D01*
X112885220Y-61612780D02*
X112864900Y-61612780D01*
X112885220Y-60411360D02*
X112885220Y-59997340D01*
X112885220Y-59997340D02*
X112864900Y-59997340D01*
X112864900Y-60411360D02*
X112864900Y-59997340D01*
X112885220Y-60411360D02*
X112864900Y-60411360D01*
X112885220Y-59212480D02*
X112885220Y-58795920D01*
X112885220Y-58795920D02*
X112864900Y-58795920D01*
X112864900Y-59212480D02*
X112864900Y-58795920D01*
X112885220Y-59212480D02*
X112864900Y-59212480D01*
X112885220Y-58577480D02*
X112885220Y-58557160D01*
X112885220Y-58557160D02*
X112864900Y-58557160D01*
X112864900Y-58577480D02*
X112864900Y-58557160D01*
X112885220Y-58577480D02*
X112864900Y-58577480D01*
X112864900Y-61831220D02*
X112864900Y-61808360D01*
X112864900Y-61808360D02*
X112842040Y-61808360D01*
X112842040Y-61831220D02*
X112842040Y-61808360D01*
X112864900Y-61831220D02*
X112842040Y-61831220D01*
X112864900Y-61612780D02*
X112864900Y-61196220D01*
X112864900Y-61196220D02*
X112842040Y-61196220D01*
X112842040Y-61612780D02*
X112842040Y-61196220D01*
X112864900Y-61612780D02*
X112842040Y-61612780D01*
X112864900Y-60411360D02*
X112864900Y-59997340D01*
X112864900Y-59997340D02*
X112842040Y-59997340D01*
X112842040Y-60411360D02*
X112842040Y-59997340D01*
X112864900Y-60411360D02*
X112842040Y-60411360D01*
X112864900Y-59212480D02*
X112864900Y-58795920D01*
X112864900Y-58795920D02*
X112842040Y-58795920D01*
X112842040Y-59212480D02*
X112842040Y-58795920D01*
X112864900Y-59212480D02*
X112842040Y-59212480D01*
X112864900Y-58577480D02*
X112864900Y-58557160D01*
X112864900Y-58557160D02*
X112842040Y-58557160D01*
X112842040Y-58577480D02*
X112842040Y-58557160D01*
X112864900Y-58577480D02*
X112842040Y-58577480D01*
X112842040Y-61831220D02*
X112842040Y-61808360D01*
X112842040Y-61808360D02*
X112819180Y-61808360D01*
X112819180Y-61831220D02*
X112819180Y-61808360D01*
X112842040Y-61831220D02*
X112819180Y-61831220D01*
X112842040Y-61612780D02*
X112842040Y-61196220D01*
X112842040Y-61196220D02*
X112819180Y-61196220D01*
X112819180Y-61612780D02*
X112819180Y-61196220D01*
X112842040Y-61612780D02*
X112819180Y-61612780D01*
X112842040Y-60411360D02*
X112842040Y-59997340D01*
X112842040Y-59997340D02*
X112819180Y-59997340D01*
X112819180Y-60411360D02*
X112819180Y-59997340D01*
X112842040Y-60411360D02*
X112819180Y-60411360D01*
X112842040Y-59212480D02*
X112842040Y-58795920D01*
X112842040Y-58795920D02*
X112819180Y-58795920D01*
X112819180Y-59212480D02*
X112819180Y-58795920D01*
X112842040Y-59212480D02*
X112819180Y-59212480D01*
X112842040Y-58577480D02*
X112842040Y-58557160D01*
X112842040Y-58557160D02*
X112819180Y-58557160D01*
X112819180Y-58577480D02*
X112819180Y-58557160D01*
X112842040Y-58577480D02*
X112819180Y-58577480D01*
X112819180Y-61831220D02*
X112819180Y-61808360D01*
X112819180Y-61808360D02*
X112798860Y-61808360D01*
X112798860Y-61831220D02*
X112798860Y-61808360D01*
X112819180Y-61831220D02*
X112798860Y-61831220D01*
X112819180Y-61612780D02*
X112819180Y-61196220D01*
X112819180Y-61196220D02*
X112798860Y-61196220D01*
X112798860Y-61612780D02*
X112798860Y-61196220D01*
X112819180Y-61612780D02*
X112798860Y-61612780D01*
X112819180Y-60411360D02*
X112819180Y-59997340D01*
X112819180Y-59997340D02*
X112798860Y-59997340D01*
X112798860Y-60411360D02*
X112798860Y-59997340D01*
X112819180Y-60411360D02*
X112798860Y-60411360D01*
X112819180Y-59212480D02*
X112819180Y-58795920D01*
X112819180Y-58795920D02*
X112798860Y-58795920D01*
X112798860Y-59212480D02*
X112798860Y-58795920D01*
X112819180Y-59212480D02*
X112798860Y-59212480D01*
X112819180Y-58577480D02*
X112819180Y-58557160D01*
X112819180Y-58557160D02*
X112798860Y-58557160D01*
X112798860Y-58577480D02*
X112798860Y-58557160D01*
X112819180Y-58577480D02*
X112798860Y-58577480D01*
X112798860Y-61831220D02*
X112798860Y-61808360D01*
X112798860Y-61808360D02*
X112776000Y-61808360D01*
X112776000Y-61831220D02*
X112776000Y-61808360D01*
X112798860Y-61831220D02*
X112776000Y-61831220D01*
X112798860Y-61612780D02*
X112798860Y-61196220D01*
X112798860Y-61196220D02*
X112776000Y-61196220D01*
X112776000Y-61612780D02*
X112776000Y-61196220D01*
X112798860Y-61612780D02*
X112776000Y-61612780D01*
X112798860Y-60411360D02*
X112798860Y-59997340D01*
X112798860Y-59997340D02*
X112776000Y-59997340D01*
X112776000Y-60411360D02*
X112776000Y-59997340D01*
X112798860Y-60411360D02*
X112776000Y-60411360D01*
X112798860Y-59212480D02*
X112798860Y-58795920D01*
X112798860Y-58795920D02*
X112776000Y-58795920D01*
X112776000Y-59212480D02*
X112776000Y-58795920D01*
X112798860Y-59212480D02*
X112776000Y-59212480D01*
X112798860Y-58577480D02*
X112798860Y-58557160D01*
X112798860Y-58557160D02*
X112776000Y-58557160D01*
X112776000Y-58577480D02*
X112776000Y-58557160D01*
X112798860Y-58577480D02*
X112776000Y-58577480D01*
X112776000Y-61831220D02*
X112776000Y-61808360D01*
X112776000Y-61808360D02*
X112755680Y-61808360D01*
X112755680Y-61831220D02*
X112755680Y-61808360D01*
X112776000Y-61831220D02*
X112755680Y-61831220D01*
X112776000Y-61612780D02*
X112776000Y-61196220D01*
X112776000Y-61196220D02*
X112755680Y-61196220D01*
X112755680Y-61612780D02*
X112755680Y-61196220D01*
X112776000Y-61612780D02*
X112755680Y-61612780D01*
X112776000Y-60411360D02*
X112776000Y-59997340D01*
X112776000Y-59997340D02*
X112755680Y-59997340D01*
X112755680Y-60411360D02*
X112755680Y-59997340D01*
X112776000Y-60411360D02*
X112755680Y-60411360D01*
X112776000Y-59212480D02*
X112776000Y-58795920D01*
X112776000Y-58795920D02*
X112755680Y-58795920D01*
X112755680Y-59212480D02*
X112755680Y-58795920D01*
X112776000Y-59212480D02*
X112755680Y-59212480D01*
X112776000Y-58577480D02*
X112776000Y-58557160D01*
X112776000Y-58557160D02*
X112755680Y-58557160D01*
X112755680Y-58577480D02*
X112755680Y-58557160D01*
X112776000Y-58577480D02*
X112755680Y-58577480D01*
X112755680Y-61831220D02*
X112755680Y-61808360D01*
X112755680Y-61808360D02*
X112732820Y-61808360D01*
X112732820Y-61831220D02*
X112732820Y-61808360D01*
X112755680Y-61831220D02*
X112732820Y-61831220D01*
X112755680Y-61612780D02*
X112755680Y-61196220D01*
X112755680Y-61196220D02*
X112732820Y-61196220D01*
X112732820Y-61612780D02*
X112732820Y-61196220D01*
X112755680Y-61612780D02*
X112732820Y-61612780D01*
X112755680Y-60411360D02*
X112755680Y-59997340D01*
X112755680Y-59997340D02*
X112732820Y-59997340D01*
X112732820Y-60411360D02*
X112732820Y-59997340D01*
X112755680Y-60411360D02*
X112732820Y-60411360D01*
X112755680Y-59212480D02*
X112755680Y-58795920D01*
X112755680Y-58795920D02*
X112732820Y-58795920D01*
X112732820Y-59212480D02*
X112732820Y-58795920D01*
X112755680Y-59212480D02*
X112732820Y-59212480D01*
X112755680Y-58577480D02*
X112755680Y-58557160D01*
X112755680Y-58557160D02*
X112732820Y-58557160D01*
X112732820Y-58577480D02*
X112732820Y-58557160D01*
X112755680Y-58577480D02*
X112732820Y-58577480D01*
X112732820Y-61831220D02*
X112732820Y-61808360D01*
X112732820Y-61808360D02*
X112709960Y-61808360D01*
X112709960Y-61831220D02*
X112709960Y-61808360D01*
X112732820Y-61831220D02*
X112709960Y-61831220D01*
X112732820Y-61612780D02*
X112732820Y-61196220D01*
X112732820Y-61196220D02*
X112709960Y-61196220D01*
X112709960Y-61612780D02*
X112709960Y-61196220D01*
X112732820Y-61612780D02*
X112709960Y-61612780D01*
X112732820Y-60411360D02*
X112732820Y-59997340D01*
X112732820Y-59997340D02*
X112709960Y-59997340D01*
X112709960Y-60411360D02*
X112709960Y-59997340D01*
X112732820Y-60411360D02*
X112709960Y-60411360D01*
X112732820Y-59212480D02*
X112732820Y-58795920D01*
X112732820Y-58795920D02*
X112709960Y-58795920D01*
X112709960Y-59212480D02*
X112709960Y-58795920D01*
X112732820Y-59212480D02*
X112709960Y-59212480D01*
X112732820Y-58577480D02*
X112732820Y-58557160D01*
X112732820Y-58557160D02*
X112709960Y-58557160D01*
X112709960Y-58577480D02*
X112709960Y-58557160D01*
X112732820Y-58577480D02*
X112709960Y-58577480D01*
X112709960Y-61831220D02*
X112709960Y-61808360D01*
X112709960Y-61808360D02*
X112689640Y-61808360D01*
X112689640Y-61831220D02*
X112689640Y-61808360D01*
X112709960Y-61831220D02*
X112689640Y-61831220D01*
X112709960Y-61612780D02*
X112709960Y-61196220D01*
X112709960Y-61196220D02*
X112689640Y-61196220D01*
X112689640Y-61612780D02*
X112689640Y-61196220D01*
X112709960Y-61612780D02*
X112689640Y-61612780D01*
X112709960Y-60411360D02*
X112709960Y-59997340D01*
X112709960Y-59997340D02*
X112689640Y-59997340D01*
X112689640Y-60411360D02*
X112689640Y-59997340D01*
X112709960Y-60411360D02*
X112689640Y-60411360D01*
X112709960Y-59212480D02*
X112709960Y-58795920D01*
X112709960Y-58795920D02*
X112689640Y-58795920D01*
X112689640Y-59212480D02*
X112689640Y-58795920D01*
X112709960Y-59212480D02*
X112689640Y-59212480D01*
X112709960Y-58577480D02*
X112709960Y-58557160D01*
X112709960Y-58557160D02*
X112689640Y-58557160D01*
X112689640Y-58577480D02*
X112689640Y-58557160D01*
X112709960Y-58577480D02*
X112689640Y-58577480D01*
X112689640Y-61831220D02*
X112689640Y-61808360D01*
X112689640Y-61808360D02*
X112666780Y-61808360D01*
X112666780Y-61831220D02*
X112666780Y-61808360D01*
X112689640Y-61831220D02*
X112666780Y-61831220D01*
X112689640Y-61612780D02*
X112689640Y-61196220D01*
X112689640Y-61196220D02*
X112666780Y-61196220D01*
X112666780Y-61612780D02*
X112666780Y-61196220D01*
X112689640Y-61612780D02*
X112666780Y-61612780D01*
X112689640Y-60411360D02*
X112689640Y-59997340D01*
X112689640Y-59997340D02*
X112666780Y-59997340D01*
X112666780Y-60411360D02*
X112666780Y-59997340D01*
X112689640Y-60411360D02*
X112666780Y-60411360D01*
X112689640Y-59212480D02*
X112689640Y-58795920D01*
X112689640Y-58795920D02*
X112666780Y-58795920D01*
X112666780Y-59212480D02*
X112666780Y-58795920D01*
X112689640Y-59212480D02*
X112666780Y-59212480D01*
X112689640Y-58577480D02*
X112689640Y-58557160D01*
X112689640Y-58557160D02*
X112666780Y-58557160D01*
X112666780Y-58577480D02*
X112666780Y-58557160D01*
X112689640Y-58577480D02*
X112666780Y-58577480D01*
X112666780Y-61831220D02*
X112666780Y-61808360D01*
X112666780Y-61808360D02*
X112646460Y-61808360D01*
X112646460Y-61831220D02*
X112646460Y-61808360D01*
X112666780Y-61831220D02*
X112646460Y-61831220D01*
X112666780Y-61612780D02*
X112666780Y-61196220D01*
X112666780Y-61196220D02*
X112646460Y-61196220D01*
X112646460Y-61612780D02*
X112646460Y-61196220D01*
X112666780Y-61612780D02*
X112646460Y-61612780D01*
X112666780Y-60411360D02*
X112666780Y-59997340D01*
X112666780Y-59997340D02*
X112646460Y-59997340D01*
X112646460Y-60411360D02*
X112646460Y-59997340D01*
X112666780Y-60411360D02*
X112646460Y-60411360D01*
X112666780Y-59212480D02*
X112666780Y-58795920D01*
X112666780Y-58795920D02*
X112646460Y-58795920D01*
X112646460Y-59212480D02*
X112646460Y-58795920D01*
X112666780Y-59212480D02*
X112646460Y-59212480D01*
X112666780Y-58577480D02*
X112666780Y-58557160D01*
X112666780Y-58557160D02*
X112646460Y-58557160D01*
X112646460Y-58577480D02*
X112646460Y-58557160D01*
X112666780Y-58577480D02*
X112646460Y-58577480D01*
X112646460Y-61831220D02*
X112646460Y-61808360D01*
X112646460Y-61808360D02*
X112623600Y-61808360D01*
X112623600Y-61831220D02*
X112623600Y-61808360D01*
X112646460Y-61831220D02*
X112623600Y-61831220D01*
X112646460Y-61612780D02*
X112646460Y-61196220D01*
X112646460Y-61196220D02*
X112623600Y-61196220D01*
X112623600Y-61612780D02*
X112623600Y-61196220D01*
X112646460Y-61612780D02*
X112623600Y-61612780D01*
X112646460Y-60411360D02*
X112646460Y-59997340D01*
X112646460Y-59997340D02*
X112623600Y-59997340D01*
X112623600Y-60411360D02*
X112623600Y-59997340D01*
X112646460Y-60411360D02*
X112623600Y-60411360D01*
X112646460Y-59212480D02*
X112646460Y-58795920D01*
X112646460Y-58795920D02*
X112623600Y-58795920D01*
X112623600Y-59212480D02*
X112623600Y-58795920D01*
X112646460Y-59212480D02*
X112623600Y-59212480D01*
X112646460Y-58577480D02*
X112646460Y-58557160D01*
X112646460Y-58557160D02*
X112623600Y-58557160D01*
X112623600Y-58577480D02*
X112623600Y-58557160D01*
X112646460Y-58577480D02*
X112623600Y-58577480D01*
X112623600Y-61831220D02*
X112623600Y-61808360D01*
X112623600Y-61808360D02*
X112600740Y-61808360D01*
X112600740Y-61831220D02*
X112600740Y-61808360D01*
X112623600Y-61831220D02*
X112600740Y-61831220D01*
X112623600Y-61612780D02*
X112623600Y-61196220D01*
X112623600Y-61196220D02*
X112600740Y-61196220D01*
X112600740Y-61612780D02*
X112600740Y-61196220D01*
X112623600Y-61612780D02*
X112600740Y-61612780D01*
X112623600Y-60411360D02*
X112623600Y-59997340D01*
X112623600Y-59997340D02*
X112600740Y-59997340D01*
X112600740Y-60411360D02*
X112600740Y-59997340D01*
X112623600Y-60411360D02*
X112600740Y-60411360D01*
X112623600Y-59212480D02*
X112623600Y-58795920D01*
X112623600Y-58795920D02*
X112600740Y-58795920D01*
X112600740Y-59212480D02*
X112600740Y-58795920D01*
X112623600Y-59212480D02*
X112600740Y-59212480D01*
X112623600Y-58577480D02*
X112623600Y-58557160D01*
X112623600Y-58557160D02*
X112600740Y-58557160D01*
X112600740Y-58577480D02*
X112600740Y-58557160D01*
X112623600Y-58577480D02*
X112600740Y-58577480D01*
X112600740Y-61831220D02*
X112600740Y-61808360D01*
X112600740Y-61808360D02*
X112580420Y-61808360D01*
X112580420Y-61831220D02*
X112580420Y-61808360D01*
X112600740Y-61831220D02*
X112580420Y-61831220D01*
X112600740Y-61612780D02*
X112600740Y-61196220D01*
X112600740Y-61196220D02*
X112580420Y-61196220D01*
X112580420Y-61612780D02*
X112580420Y-61196220D01*
X112600740Y-61612780D02*
X112580420Y-61612780D01*
X112600740Y-60411360D02*
X112600740Y-59997340D01*
X112600740Y-59997340D02*
X112580420Y-59997340D01*
X112580420Y-60411360D02*
X112580420Y-59997340D01*
X112600740Y-60411360D02*
X112580420Y-60411360D01*
X112600740Y-59212480D02*
X112600740Y-58795920D01*
X112600740Y-58795920D02*
X112580420Y-58795920D01*
X112580420Y-59212480D02*
X112580420Y-58795920D01*
X112600740Y-59212480D02*
X112580420Y-59212480D01*
X112600740Y-58577480D02*
X112600740Y-58557160D01*
X112600740Y-58557160D02*
X112580420Y-58557160D01*
X112580420Y-58577480D02*
X112580420Y-58557160D01*
X112600740Y-58577480D02*
X112580420Y-58577480D01*
X112580420Y-61831220D02*
X112580420Y-61808360D01*
X112580420Y-61808360D02*
X112557560Y-61808360D01*
X112557560Y-61831220D02*
X112557560Y-61808360D01*
X112580420Y-61831220D02*
X112557560Y-61831220D01*
X112580420Y-61612780D02*
X112580420Y-61196220D01*
X112580420Y-61196220D02*
X112557560Y-61196220D01*
X112557560Y-61612780D02*
X112557560Y-61196220D01*
X112580420Y-61612780D02*
X112557560Y-61612780D01*
X112580420Y-60411360D02*
X112580420Y-59997340D01*
X112580420Y-59997340D02*
X112557560Y-59997340D01*
X112557560Y-60411360D02*
X112557560Y-59997340D01*
X112580420Y-60411360D02*
X112557560Y-60411360D01*
X112580420Y-59212480D02*
X112580420Y-58795920D01*
X112580420Y-58795920D02*
X112557560Y-58795920D01*
X112557560Y-59212480D02*
X112557560Y-58795920D01*
X112580420Y-59212480D02*
X112557560Y-59212480D01*
X112580420Y-58577480D02*
X112580420Y-58557160D01*
X112580420Y-58557160D02*
X112557560Y-58557160D01*
X112557560Y-58577480D02*
X112557560Y-58557160D01*
X112580420Y-58577480D02*
X112557560Y-58577480D01*
X112557560Y-61831220D02*
X112557560Y-61808360D01*
X112557560Y-61808360D02*
X112537240Y-61808360D01*
X112537240Y-61831220D02*
X112537240Y-61808360D01*
X112557560Y-61831220D02*
X112537240Y-61831220D01*
X112557560Y-61612780D02*
X112557560Y-61196220D01*
X112557560Y-61196220D02*
X112537240Y-61196220D01*
X112537240Y-61612780D02*
X112537240Y-61196220D01*
X112557560Y-61612780D02*
X112537240Y-61612780D01*
X112557560Y-60411360D02*
X112557560Y-59997340D01*
X112557560Y-59997340D02*
X112537240Y-59997340D01*
X112537240Y-60411360D02*
X112537240Y-59997340D01*
X112557560Y-60411360D02*
X112537240Y-60411360D01*
X112557560Y-59212480D02*
X112557560Y-58795920D01*
X112557560Y-58795920D02*
X112537240Y-58795920D01*
X112537240Y-59212480D02*
X112537240Y-58795920D01*
X112557560Y-59212480D02*
X112537240Y-59212480D01*
X112557560Y-58577480D02*
X112557560Y-58557160D01*
X112557560Y-58557160D02*
X112537240Y-58557160D01*
X112537240Y-58577480D02*
X112537240Y-58557160D01*
X112557560Y-58577480D02*
X112537240Y-58577480D01*
X112537240Y-61831220D02*
X112537240Y-61808360D01*
X112537240Y-61808360D02*
X112514380Y-61808360D01*
X112514380Y-61831220D02*
X112514380Y-61808360D01*
X112537240Y-61831220D02*
X112514380Y-61831220D01*
X112537240Y-61612780D02*
X112537240Y-61196220D01*
X112537240Y-61196220D02*
X112514380Y-61196220D01*
X112514380Y-61612780D02*
X112514380Y-61196220D01*
X112537240Y-61612780D02*
X112514380Y-61612780D01*
X112537240Y-60411360D02*
X112537240Y-59997340D01*
X112537240Y-59997340D02*
X112514380Y-59997340D01*
X112514380Y-60411360D02*
X112514380Y-59997340D01*
X112537240Y-60411360D02*
X112514380Y-60411360D01*
X112537240Y-59212480D02*
X112537240Y-58795920D01*
X112537240Y-58795920D02*
X112514380Y-58795920D01*
X112514380Y-59212480D02*
X112514380Y-58795920D01*
X112537240Y-59212480D02*
X112514380Y-59212480D01*
X112537240Y-58577480D02*
X112537240Y-58557160D01*
X112537240Y-58557160D02*
X112514380Y-58557160D01*
X112514380Y-58577480D02*
X112514380Y-58557160D01*
X112537240Y-58577480D02*
X112514380Y-58577480D01*
X112514380Y-61831220D02*
X112514380Y-61808360D01*
X112514380Y-61808360D02*
X112491520Y-61808360D01*
X112491520Y-61831220D02*
X112491520Y-61808360D01*
X112514380Y-61831220D02*
X112491520Y-61831220D01*
X112514380Y-61612780D02*
X112514380Y-61196220D01*
X112514380Y-61196220D02*
X112491520Y-61196220D01*
X112491520Y-61612780D02*
X112491520Y-61196220D01*
X112514380Y-61612780D02*
X112491520Y-61612780D01*
X112514380Y-60411360D02*
X112514380Y-59997340D01*
X112514380Y-59997340D02*
X112491520Y-59997340D01*
X112491520Y-60411360D02*
X112491520Y-59997340D01*
X112514380Y-60411360D02*
X112491520Y-60411360D01*
X112514380Y-59212480D02*
X112514380Y-58795920D01*
X112514380Y-58795920D02*
X112491520Y-58795920D01*
X112491520Y-59212480D02*
X112491520Y-58795920D01*
X112514380Y-59212480D02*
X112491520Y-59212480D01*
X112514380Y-58577480D02*
X112514380Y-58557160D01*
X112514380Y-58557160D02*
X112491520Y-58557160D01*
X112491520Y-58577480D02*
X112491520Y-58557160D01*
X112514380Y-58577480D02*
X112491520Y-58577480D01*
X112491520Y-61831220D02*
X112491520Y-61808360D01*
X112491520Y-61808360D02*
X112471200Y-61808360D01*
X112471200Y-61831220D02*
X112471200Y-61808360D01*
X112491520Y-61831220D02*
X112471200Y-61831220D01*
X112491520Y-61612780D02*
X112491520Y-61196220D01*
X112491520Y-61196220D02*
X112471200Y-61196220D01*
X112471200Y-61612780D02*
X112471200Y-61196220D01*
X112491520Y-61612780D02*
X112471200Y-61612780D01*
X112491520Y-60411360D02*
X112491520Y-59997340D01*
X112491520Y-59997340D02*
X112471200Y-59997340D01*
X112471200Y-60411360D02*
X112471200Y-59997340D01*
X112491520Y-60411360D02*
X112471200Y-60411360D01*
X112491520Y-59212480D02*
X112491520Y-58795920D01*
X112491520Y-58795920D02*
X112471200Y-58795920D01*
X112471200Y-59212480D02*
X112471200Y-58795920D01*
X112491520Y-59212480D02*
X112471200Y-59212480D01*
X112491520Y-58577480D02*
X112491520Y-58557160D01*
X112491520Y-58557160D02*
X112471200Y-58557160D01*
X112471200Y-58577480D02*
X112471200Y-58557160D01*
X112491520Y-58577480D02*
X112471200Y-58577480D01*
X112471200Y-61831220D02*
X112471200Y-61808360D01*
X112471200Y-61808360D02*
X112448340Y-61808360D01*
X112448340Y-61831220D02*
X112448340Y-61808360D01*
X112471200Y-61831220D02*
X112448340Y-61831220D01*
X112471200Y-61612780D02*
X112471200Y-61196220D01*
X112471200Y-61196220D02*
X112448340Y-61196220D01*
X112448340Y-61612780D02*
X112448340Y-61196220D01*
X112471200Y-61612780D02*
X112448340Y-61612780D01*
X112471200Y-60411360D02*
X112471200Y-59997340D01*
X112471200Y-59997340D02*
X112448340Y-59997340D01*
X112448340Y-60411360D02*
X112448340Y-59997340D01*
X112471200Y-60411360D02*
X112448340Y-60411360D01*
X112471200Y-59212480D02*
X112471200Y-58795920D01*
X112471200Y-58795920D02*
X112448340Y-58795920D01*
X112448340Y-59212480D02*
X112448340Y-58795920D01*
X112471200Y-59212480D02*
X112448340Y-59212480D01*
X112471200Y-58577480D02*
X112471200Y-58557160D01*
X112471200Y-58557160D02*
X112448340Y-58557160D01*
X112448340Y-58577480D02*
X112448340Y-58557160D01*
X112471200Y-58577480D02*
X112448340Y-58577480D01*
X112448340Y-61831220D02*
X112448340Y-61808360D01*
X112448340Y-61808360D02*
X112428020Y-61808360D01*
X112428020Y-61831220D02*
X112428020Y-61808360D01*
X112448340Y-61831220D02*
X112428020Y-61831220D01*
X112448340Y-61612780D02*
X112448340Y-61196220D01*
X112448340Y-61196220D02*
X112428020Y-61196220D01*
X112428020Y-61612780D02*
X112428020Y-61196220D01*
X112448340Y-61612780D02*
X112428020Y-61612780D01*
X112448340Y-60411360D02*
X112448340Y-59997340D01*
X112448340Y-59997340D02*
X112428020Y-59997340D01*
X112428020Y-60411360D02*
X112428020Y-59997340D01*
X112448340Y-60411360D02*
X112428020Y-60411360D01*
X112448340Y-59212480D02*
X112448340Y-58795920D01*
X112448340Y-58795920D02*
X112428020Y-58795920D01*
X112428020Y-59212480D02*
X112428020Y-58795920D01*
X112448340Y-59212480D02*
X112428020Y-59212480D01*
X112448340Y-58577480D02*
X112448340Y-58557160D01*
X112448340Y-58557160D02*
X112428020Y-58557160D01*
X112428020Y-58577480D02*
X112428020Y-58557160D01*
X112448340Y-58577480D02*
X112428020Y-58577480D01*
X112428020Y-61831220D02*
X112428020Y-61808360D01*
X112428020Y-61808360D02*
X112405160Y-61808360D01*
X112405160Y-61831220D02*
X112405160Y-61808360D01*
X112428020Y-61831220D02*
X112405160Y-61831220D01*
X112428020Y-61612780D02*
X112428020Y-61196220D01*
X112428020Y-61196220D02*
X112405160Y-61196220D01*
X112405160Y-61612780D02*
X112405160Y-61196220D01*
X112428020Y-61612780D02*
X112405160Y-61612780D01*
X112428020Y-60411360D02*
X112428020Y-59997340D01*
X112428020Y-59997340D02*
X112405160Y-59997340D01*
X112405160Y-60411360D02*
X112405160Y-59997340D01*
X112428020Y-60411360D02*
X112405160Y-60411360D01*
X112428020Y-59212480D02*
X112428020Y-58795920D01*
X112428020Y-58795920D02*
X112405160Y-58795920D01*
X112405160Y-59212480D02*
X112405160Y-58795920D01*
X112428020Y-59212480D02*
X112405160Y-59212480D01*
X112428020Y-58577480D02*
X112428020Y-58557160D01*
X112428020Y-58557160D02*
X112405160Y-58557160D01*
X112405160Y-58577480D02*
X112405160Y-58557160D01*
X112428020Y-58577480D02*
X112405160Y-58577480D01*
X112405160Y-61831220D02*
X112405160Y-61808360D01*
X112405160Y-61808360D02*
X112382300Y-61808360D01*
X112382300Y-61831220D02*
X112382300Y-61808360D01*
X112405160Y-61831220D02*
X112382300Y-61831220D01*
X112405160Y-61612780D02*
X112405160Y-61196220D01*
X112405160Y-61196220D02*
X112382300Y-61196220D01*
X112382300Y-61612780D02*
X112382300Y-61196220D01*
X112405160Y-61612780D02*
X112382300Y-61612780D01*
X112405160Y-60411360D02*
X112405160Y-59997340D01*
X112405160Y-59997340D02*
X112382300Y-59997340D01*
X112382300Y-60411360D02*
X112382300Y-59997340D01*
X112405160Y-60411360D02*
X112382300Y-60411360D01*
X112405160Y-59212480D02*
X112405160Y-58795920D01*
X112405160Y-58795920D02*
X112382300Y-58795920D01*
X112382300Y-59212480D02*
X112382300Y-58795920D01*
X112405160Y-59212480D02*
X112382300Y-59212480D01*
X112405160Y-58577480D02*
X112405160Y-58557160D01*
X112405160Y-58557160D02*
X112382300Y-58557160D01*
X112382300Y-58577480D02*
X112382300Y-58557160D01*
X112405160Y-58577480D02*
X112382300Y-58577480D01*
X112382300Y-61831220D02*
X112382300Y-61808360D01*
X112382300Y-61808360D02*
X112361980Y-61808360D01*
X112361980Y-61831220D02*
X112361980Y-61808360D01*
X112382300Y-61831220D02*
X112361980Y-61831220D01*
X112382300Y-61612780D02*
X112382300Y-61196220D01*
X112382300Y-61196220D02*
X112361980Y-61196220D01*
X112361980Y-61612780D02*
X112361980Y-61196220D01*
X112382300Y-61612780D02*
X112361980Y-61612780D01*
X112382300Y-60411360D02*
X112382300Y-59997340D01*
X112382300Y-59997340D02*
X112361980Y-59997340D01*
X112361980Y-60411360D02*
X112361980Y-59997340D01*
X112382300Y-60411360D02*
X112361980Y-60411360D01*
X112382300Y-59212480D02*
X112382300Y-58795920D01*
X112382300Y-58795920D02*
X112361980Y-58795920D01*
X112361980Y-59212480D02*
X112361980Y-58795920D01*
X112382300Y-59212480D02*
X112361980Y-59212480D01*
X112382300Y-58577480D02*
X112382300Y-58557160D01*
X112382300Y-58557160D02*
X112361980Y-58557160D01*
X112361980Y-58577480D02*
X112361980Y-58557160D01*
X112382300Y-58577480D02*
X112361980Y-58577480D01*
X112361980Y-61831220D02*
X112361980Y-61808360D01*
X112361980Y-61808360D02*
X112339120Y-61808360D01*
X112339120Y-61831220D02*
X112339120Y-61808360D01*
X112361980Y-61831220D02*
X112339120Y-61831220D01*
X112361980Y-61612780D02*
X112361980Y-61196220D01*
X112361980Y-61196220D02*
X112339120Y-61196220D01*
X112339120Y-61612780D02*
X112339120Y-61196220D01*
X112361980Y-61612780D02*
X112339120Y-61612780D01*
X112361980Y-60411360D02*
X112361980Y-59997340D01*
X112361980Y-59997340D02*
X112339120Y-59997340D01*
X112339120Y-60411360D02*
X112339120Y-59997340D01*
X112361980Y-60411360D02*
X112339120Y-60411360D01*
X112361980Y-59212480D02*
X112361980Y-58795920D01*
X112361980Y-58795920D02*
X112339120Y-58795920D01*
X112339120Y-59212480D02*
X112339120Y-58795920D01*
X112361980Y-59212480D02*
X112339120Y-59212480D01*
X112361980Y-58577480D02*
X112361980Y-58557160D01*
X112361980Y-58557160D02*
X112339120Y-58557160D01*
X112339120Y-58577480D02*
X112339120Y-58557160D01*
X112361980Y-58577480D02*
X112339120Y-58577480D01*
X112339120Y-61831220D02*
X112339120Y-61808360D01*
X112339120Y-61808360D02*
X112318800Y-61808360D01*
X112318800Y-61831220D02*
X112318800Y-61808360D01*
X112339120Y-61831220D02*
X112318800Y-61831220D01*
X112339120Y-61612780D02*
X112339120Y-61196220D01*
X112339120Y-61196220D02*
X112318800Y-61196220D01*
X112318800Y-61612780D02*
X112318800Y-61196220D01*
X112339120Y-61612780D02*
X112318800Y-61612780D01*
X112339120Y-60411360D02*
X112339120Y-59997340D01*
X112339120Y-59997340D02*
X112318800Y-59997340D01*
X112318800Y-60411360D02*
X112318800Y-59997340D01*
X112339120Y-60411360D02*
X112318800Y-60411360D01*
X112339120Y-59212480D02*
X112339120Y-58795920D01*
X112339120Y-58795920D02*
X112318800Y-58795920D01*
X112318800Y-59212480D02*
X112318800Y-58795920D01*
X112339120Y-59212480D02*
X112318800Y-59212480D01*
X112339120Y-58577480D02*
X112339120Y-58557160D01*
X112339120Y-58557160D02*
X112318800Y-58557160D01*
X112318800Y-58577480D02*
X112318800Y-58557160D01*
X112339120Y-58577480D02*
X112318800Y-58577480D01*
X112318800Y-61831220D02*
X112318800Y-61808360D01*
X112318800Y-61808360D02*
X112295940Y-61808360D01*
X112295940Y-61831220D02*
X112295940Y-61808360D01*
X112318800Y-61831220D02*
X112295940Y-61831220D01*
X112318800Y-61612780D02*
X112318800Y-61196220D01*
X112318800Y-61196220D02*
X112295940Y-61196220D01*
X112295940Y-61612780D02*
X112295940Y-61196220D01*
X112318800Y-61612780D02*
X112295940Y-61612780D01*
X112318800Y-60411360D02*
X112318800Y-59997340D01*
X112318800Y-59997340D02*
X112295940Y-59997340D01*
X112295940Y-60411360D02*
X112295940Y-59997340D01*
X112318800Y-60411360D02*
X112295940Y-60411360D01*
X112318800Y-59212480D02*
X112318800Y-58795920D01*
X112318800Y-58795920D02*
X112295940Y-58795920D01*
X112295940Y-59212480D02*
X112295940Y-58795920D01*
X112318800Y-59212480D02*
X112295940Y-59212480D01*
X112318800Y-58577480D02*
X112318800Y-58557160D01*
X112318800Y-58557160D02*
X112295940Y-58557160D01*
X112295940Y-58577480D02*
X112295940Y-58557160D01*
X112318800Y-58577480D02*
X112295940Y-58577480D01*
X112295940Y-61831220D02*
X112295940Y-61808360D01*
X112295940Y-61808360D02*
X112273080Y-61808360D01*
X112273080Y-61831220D02*
X112273080Y-61808360D01*
X112295940Y-61831220D02*
X112273080Y-61831220D01*
X112295940Y-61612780D02*
X112295940Y-61196220D01*
X112295940Y-61196220D02*
X112273080Y-61196220D01*
X112273080Y-61612780D02*
X112273080Y-61196220D01*
X112295940Y-61612780D02*
X112273080Y-61612780D01*
X112295940Y-60411360D02*
X112295940Y-59997340D01*
X112295940Y-59997340D02*
X112273080Y-59997340D01*
X112273080Y-60411360D02*
X112273080Y-59997340D01*
X112295940Y-60411360D02*
X112273080Y-60411360D01*
X112295940Y-59212480D02*
X112295940Y-58795920D01*
X112295940Y-58795920D02*
X112273080Y-58795920D01*
X112273080Y-59212480D02*
X112273080Y-58795920D01*
X112295940Y-59212480D02*
X112273080Y-59212480D01*
X112295940Y-58577480D02*
X112295940Y-58557160D01*
X112295940Y-58557160D02*
X112273080Y-58557160D01*
X112273080Y-58577480D02*
X112273080Y-58557160D01*
X112295940Y-58577480D02*
X112273080Y-58577480D01*
X112273080Y-61831220D02*
X112273080Y-61808360D01*
X112273080Y-61808360D02*
X112255300Y-61808360D01*
X112255300Y-61831220D02*
X112255300Y-61808360D01*
X112273080Y-61831220D02*
X112255300Y-61831220D01*
X112273080Y-61612780D02*
X112273080Y-61196220D01*
X112273080Y-61196220D02*
X112255300Y-61196220D01*
X112255300Y-61612780D02*
X112255300Y-61196220D01*
X112273080Y-61612780D02*
X112255300Y-61612780D01*
X112273080Y-60411360D02*
X112273080Y-59997340D01*
X112273080Y-59997340D02*
X112255300Y-59997340D01*
X112255300Y-60411360D02*
X112255300Y-59997340D01*
X112273080Y-60411360D02*
X112255300Y-60411360D01*
X112273080Y-59212480D02*
X112273080Y-58795920D01*
X112273080Y-58795920D02*
X112255300Y-58795920D01*
X112255300Y-59212480D02*
X112255300Y-58795920D01*
X112273080Y-59212480D02*
X112255300Y-59212480D01*
X112273080Y-58577480D02*
X112273080Y-58557160D01*
X112273080Y-58557160D02*
X112255300Y-58557160D01*
X112255300Y-58577480D02*
X112255300Y-58557160D01*
X112273080Y-58577480D02*
X112255300Y-58577480D01*
X112255300Y-61831220D02*
X112255300Y-61808360D01*
X112255300Y-61808360D02*
X112232440Y-61808360D01*
X112232440Y-61831220D02*
X112232440Y-61808360D01*
X112255300Y-61831220D02*
X112232440Y-61831220D01*
X112255300Y-61612780D02*
X112255300Y-61196220D01*
X112255300Y-61196220D02*
X112232440Y-61196220D01*
X112232440Y-61612780D02*
X112232440Y-61196220D01*
X112255300Y-61612780D02*
X112232440Y-61612780D01*
X112255300Y-60411360D02*
X112255300Y-59997340D01*
X112255300Y-59997340D02*
X112232440Y-59997340D01*
X112232440Y-60411360D02*
X112232440Y-59997340D01*
X112255300Y-60411360D02*
X112232440Y-60411360D01*
X112255300Y-59212480D02*
X112255300Y-58795920D01*
X112255300Y-58795920D02*
X112232440Y-58795920D01*
X112232440Y-59212480D02*
X112232440Y-58795920D01*
X112255300Y-59212480D02*
X112232440Y-59212480D01*
X112255300Y-58577480D02*
X112255300Y-58557160D01*
X112255300Y-58557160D02*
X112232440Y-58557160D01*
X112232440Y-58577480D02*
X112232440Y-58557160D01*
X112255300Y-58577480D02*
X112232440Y-58577480D01*
X112232440Y-61831220D02*
X112232440Y-61808360D01*
X112232440Y-61808360D02*
X112212120Y-61808360D01*
X112212120Y-61831220D02*
X112212120Y-61808360D01*
X112232440Y-61831220D02*
X112212120Y-61831220D01*
X112232440Y-61612780D02*
X112232440Y-61196220D01*
X112232440Y-61196220D02*
X112212120Y-61196220D01*
X112212120Y-61612780D02*
X112212120Y-61196220D01*
X112232440Y-61612780D02*
X112212120Y-61612780D01*
X112232440Y-60411360D02*
X112232440Y-59997340D01*
X112232440Y-59997340D02*
X112212120Y-59997340D01*
X112212120Y-60411360D02*
X112212120Y-59997340D01*
X112232440Y-60411360D02*
X112212120Y-60411360D01*
X112232440Y-59212480D02*
X112232440Y-58795920D01*
X112232440Y-58795920D02*
X112212120Y-58795920D01*
X112212120Y-59212480D02*
X112212120Y-58795920D01*
X112232440Y-59212480D02*
X112212120Y-59212480D01*
X112232440Y-58577480D02*
X112232440Y-58557160D01*
X112232440Y-58557160D02*
X112212120Y-58557160D01*
X112212120Y-58577480D02*
X112212120Y-58557160D01*
X112232440Y-58577480D02*
X112212120Y-58577480D01*
X112212120Y-61831220D02*
X112212120Y-61808360D01*
X112212120Y-61808360D02*
X112189260Y-61808360D01*
X112189260Y-61831220D02*
X112189260Y-61808360D01*
X112212120Y-61831220D02*
X112189260Y-61831220D01*
X112212120Y-61612780D02*
X112212120Y-61196220D01*
X112212120Y-61196220D02*
X112189260Y-61196220D01*
X112189260Y-61612780D02*
X112189260Y-61196220D01*
X112212120Y-61612780D02*
X112189260Y-61612780D01*
X112212120Y-60411360D02*
X112212120Y-59997340D01*
X112212120Y-59997340D02*
X112189260Y-59997340D01*
X112189260Y-60411360D02*
X112189260Y-59997340D01*
X112212120Y-60411360D02*
X112189260Y-60411360D01*
X112212120Y-59212480D02*
X112212120Y-58795920D01*
X112212120Y-58795920D02*
X112189260Y-58795920D01*
X112189260Y-59212480D02*
X112189260Y-58795920D01*
X112212120Y-59212480D02*
X112189260Y-59212480D01*
X112212120Y-58577480D02*
X112212120Y-58557160D01*
X112212120Y-58557160D02*
X112189260Y-58557160D01*
X112189260Y-58577480D02*
X112189260Y-58557160D01*
X112212120Y-58577480D02*
X112189260Y-58577480D01*
X112189260Y-61831220D02*
X112189260Y-61808360D01*
X112189260Y-61808360D02*
X112166400Y-61808360D01*
X112166400Y-61831220D02*
X112166400Y-61808360D01*
X112189260Y-61831220D02*
X112166400Y-61831220D01*
X112189260Y-61612780D02*
X112189260Y-61196220D01*
X112189260Y-61196220D02*
X112166400Y-61196220D01*
X112166400Y-61612780D02*
X112166400Y-61196220D01*
X112189260Y-61612780D02*
X112166400Y-61612780D01*
X112189260Y-60411360D02*
X112189260Y-59997340D01*
X112189260Y-59997340D02*
X112166400Y-59997340D01*
X112166400Y-60411360D02*
X112166400Y-59997340D01*
X112189260Y-60411360D02*
X112166400Y-60411360D01*
X112189260Y-59212480D02*
X112189260Y-58795920D01*
X112189260Y-58795920D02*
X112166400Y-58795920D01*
X112166400Y-59212480D02*
X112166400Y-58795920D01*
X112189260Y-59212480D02*
X112166400Y-59212480D01*
X112189260Y-58577480D02*
X112189260Y-58557160D01*
X112189260Y-58557160D02*
X112166400Y-58557160D01*
X112166400Y-58577480D02*
X112166400Y-58557160D01*
X112189260Y-58577480D02*
X112166400Y-58577480D01*
X112166400Y-61831220D02*
X112166400Y-61808360D01*
X112166400Y-61808360D02*
X112146080Y-61808360D01*
X112146080Y-61831220D02*
X112146080Y-61808360D01*
X112166400Y-61831220D02*
X112146080Y-61831220D01*
X112166400Y-61612780D02*
X112166400Y-61196220D01*
X112166400Y-61196220D02*
X112146080Y-61196220D01*
X112146080Y-61612780D02*
X112146080Y-61196220D01*
X112166400Y-61612780D02*
X112146080Y-61612780D01*
X112166400Y-60411360D02*
X112166400Y-59997340D01*
X112166400Y-59997340D02*
X112146080Y-59997340D01*
X112146080Y-60411360D02*
X112146080Y-59997340D01*
X112166400Y-60411360D02*
X112146080Y-60411360D01*
X112166400Y-59212480D02*
X112166400Y-58795920D01*
X112166400Y-58795920D02*
X112146080Y-58795920D01*
X112146080Y-59212480D02*
X112146080Y-58795920D01*
X112166400Y-59212480D02*
X112146080Y-59212480D01*
X112166400Y-58577480D02*
X112166400Y-58557160D01*
X112166400Y-58557160D02*
X112146080Y-58557160D01*
X112146080Y-58577480D02*
X112146080Y-58557160D01*
X112166400Y-58577480D02*
X112146080Y-58577480D01*
X112146080Y-61831220D02*
X112146080Y-61808360D01*
X112146080Y-61808360D02*
X112123220Y-61808360D01*
X112123220Y-61831220D02*
X112123220Y-61808360D01*
X112146080Y-61831220D02*
X112123220Y-61831220D01*
X112146080Y-61612780D02*
X112146080Y-61196220D01*
X112146080Y-61196220D02*
X112123220Y-61196220D01*
X112123220Y-61612780D02*
X112123220Y-61196220D01*
X112146080Y-61612780D02*
X112123220Y-61612780D01*
X112146080Y-60411360D02*
X112146080Y-59997340D01*
X112146080Y-59997340D02*
X112123220Y-59997340D01*
X112123220Y-60411360D02*
X112123220Y-59997340D01*
X112146080Y-60411360D02*
X112123220Y-60411360D01*
X112146080Y-59212480D02*
X112146080Y-58795920D01*
X112146080Y-58795920D02*
X112123220Y-58795920D01*
X112123220Y-59212480D02*
X112123220Y-58795920D01*
X112146080Y-59212480D02*
X112123220Y-59212480D01*
X112146080Y-58577480D02*
X112146080Y-58557160D01*
X112146080Y-58557160D02*
X112123220Y-58557160D01*
X112123220Y-58577480D02*
X112123220Y-58557160D01*
X112146080Y-58577480D02*
X112123220Y-58577480D01*
X112123220Y-61831220D02*
X112123220Y-61808360D01*
X112123220Y-61808360D02*
X112102900Y-61808360D01*
X112102900Y-61831220D02*
X112102900Y-61808360D01*
X112123220Y-61831220D02*
X112102900Y-61831220D01*
X112123220Y-61612780D02*
X112123220Y-61196220D01*
X112123220Y-61196220D02*
X112102900Y-61196220D01*
X112102900Y-61612780D02*
X112102900Y-61196220D01*
X112123220Y-61612780D02*
X112102900Y-61612780D01*
X112123220Y-60411360D02*
X112123220Y-59997340D01*
X112123220Y-59997340D02*
X112102900Y-59997340D01*
X112102900Y-60411360D02*
X112102900Y-59997340D01*
X112123220Y-60411360D02*
X112102900Y-60411360D01*
X112123220Y-59212480D02*
X112123220Y-58795920D01*
X112123220Y-58795920D02*
X112102900Y-58795920D01*
X112102900Y-59212480D02*
X112102900Y-58795920D01*
X112123220Y-59212480D02*
X112102900Y-59212480D01*
X112123220Y-58577480D02*
X112123220Y-58557160D01*
X112123220Y-58557160D02*
X112102900Y-58557160D01*
X112102900Y-58577480D02*
X112102900Y-58557160D01*
X112123220Y-58577480D02*
X112102900Y-58577480D01*
X112102900Y-61831220D02*
X112102900Y-61808360D01*
X112102900Y-61808360D02*
X112080040Y-61808360D01*
X112080040Y-61831220D02*
X112080040Y-61808360D01*
X112102900Y-61831220D02*
X112080040Y-61831220D01*
X112102900Y-61612780D02*
X112102900Y-61196220D01*
X112102900Y-61196220D02*
X112080040Y-61196220D01*
X112080040Y-61612780D02*
X112080040Y-61196220D01*
X112102900Y-61612780D02*
X112080040Y-61612780D01*
X112102900Y-60411360D02*
X112102900Y-59997340D01*
X112102900Y-59997340D02*
X112080040Y-59997340D01*
X112080040Y-60411360D02*
X112080040Y-59997340D01*
X112102900Y-60411360D02*
X112080040Y-60411360D01*
X112102900Y-59212480D02*
X112102900Y-58795920D01*
X112102900Y-58795920D02*
X112080040Y-58795920D01*
X112080040Y-59212480D02*
X112080040Y-58795920D01*
X112102900Y-59212480D02*
X112080040Y-59212480D01*
X112102900Y-58577480D02*
X112102900Y-58557160D01*
X112102900Y-58557160D02*
X112080040Y-58557160D01*
X112080040Y-58577480D02*
X112080040Y-58557160D01*
X112102900Y-58577480D02*
X112080040Y-58577480D01*
X112080040Y-61831220D02*
X112080040Y-61808360D01*
X112080040Y-61808360D02*
X112057180Y-61808360D01*
X112057180Y-61831220D02*
X112057180Y-61808360D01*
X112080040Y-61831220D02*
X112057180Y-61831220D01*
X112080040Y-61612780D02*
X112080040Y-61196220D01*
X112080040Y-61196220D02*
X112057180Y-61196220D01*
X112057180Y-61612780D02*
X112057180Y-61196220D01*
X112080040Y-61612780D02*
X112057180Y-61612780D01*
X112080040Y-60411360D02*
X112080040Y-59997340D01*
X112080040Y-59997340D02*
X112057180Y-59997340D01*
X112057180Y-60411360D02*
X112057180Y-59997340D01*
X112080040Y-60411360D02*
X112057180Y-60411360D01*
X112080040Y-59212480D02*
X112080040Y-58795920D01*
X112080040Y-58795920D02*
X112057180Y-58795920D01*
X112057180Y-59212480D02*
X112057180Y-58795920D01*
X112080040Y-59212480D02*
X112057180Y-59212480D01*
X112080040Y-58577480D02*
X112080040Y-58557160D01*
X112080040Y-58557160D02*
X112057180Y-58557160D01*
X112057180Y-58577480D02*
X112057180Y-58557160D01*
X112080040Y-58577480D02*
X112057180Y-58577480D01*
X112057180Y-61831220D02*
X112057180Y-61808360D01*
X112057180Y-61808360D02*
X112036860Y-61808360D01*
X112036860Y-61831220D02*
X112036860Y-61808360D01*
X112057180Y-61831220D02*
X112036860Y-61831220D01*
X112057180Y-61612780D02*
X112057180Y-61196220D01*
X112057180Y-61196220D02*
X112036860Y-61196220D01*
X112036860Y-61612780D02*
X112036860Y-61196220D01*
X112057180Y-61612780D02*
X112036860Y-61612780D01*
X112057180Y-60411360D02*
X112057180Y-59997340D01*
X112057180Y-59997340D02*
X112036860Y-59997340D01*
X112036860Y-60411360D02*
X112036860Y-59997340D01*
X112057180Y-60411360D02*
X112036860Y-60411360D01*
X112057180Y-59212480D02*
X112057180Y-58795920D01*
X112057180Y-58795920D02*
X112036860Y-58795920D01*
X112036860Y-59212480D02*
X112036860Y-58795920D01*
X112057180Y-59212480D02*
X112036860Y-59212480D01*
X112057180Y-58577480D02*
X112057180Y-58557160D01*
X112057180Y-58557160D02*
X112036860Y-58557160D01*
X112036860Y-58577480D02*
X112036860Y-58557160D01*
X112057180Y-58577480D02*
X112036860Y-58577480D01*
X112036860Y-61831220D02*
X112036860Y-61808360D01*
X112036860Y-61808360D02*
X112014000Y-61808360D01*
X112014000Y-61831220D02*
X112014000Y-61808360D01*
X112036860Y-61831220D02*
X112014000Y-61831220D01*
X112036860Y-61612780D02*
X112036860Y-61196220D01*
X112036860Y-61196220D02*
X112014000Y-61196220D01*
X112014000Y-61612780D02*
X112014000Y-61196220D01*
X112036860Y-61612780D02*
X112014000Y-61612780D01*
X112036860Y-60411360D02*
X112036860Y-59997340D01*
X112036860Y-59997340D02*
X112014000Y-59997340D01*
X112014000Y-60411360D02*
X112014000Y-59997340D01*
X112036860Y-60411360D02*
X112014000Y-60411360D01*
X112036860Y-59212480D02*
X112036860Y-58795920D01*
X112036860Y-58795920D02*
X112014000Y-58795920D01*
X112014000Y-59212480D02*
X112014000Y-58795920D01*
X112036860Y-59212480D02*
X112014000Y-59212480D01*
X112036860Y-58577480D02*
X112036860Y-58557160D01*
X112036860Y-58557160D02*
X112014000Y-58557160D01*
X112014000Y-58577480D02*
X112014000Y-58557160D01*
X112036860Y-58577480D02*
X112014000Y-58577480D01*
X112014000Y-61831220D02*
X112014000Y-61808360D01*
X112014000Y-61808360D02*
X111993680Y-61808360D01*
X111993680Y-61831220D02*
X111993680Y-61808360D01*
X112014000Y-61831220D02*
X111993680Y-61831220D01*
X112014000Y-61612780D02*
X112014000Y-61196220D01*
X112014000Y-61196220D02*
X111993680Y-61196220D01*
X111993680Y-61612780D02*
X111993680Y-61196220D01*
X112014000Y-61612780D02*
X111993680Y-61612780D01*
X112014000Y-60411360D02*
X112014000Y-59997340D01*
X112014000Y-59997340D02*
X111993680Y-59997340D01*
X111993680Y-60411360D02*
X111993680Y-59997340D01*
X112014000Y-60411360D02*
X111993680Y-60411360D01*
X112014000Y-59212480D02*
X112014000Y-58795920D01*
X112014000Y-58795920D02*
X111993680Y-58795920D01*
X111993680Y-59212480D02*
X111993680Y-58795920D01*
X112014000Y-59212480D02*
X111993680Y-59212480D01*
X112014000Y-58577480D02*
X112014000Y-58557160D01*
X112014000Y-58557160D02*
X111993680Y-58557160D01*
X111993680Y-58577480D02*
X111993680Y-58557160D01*
X112014000Y-58577480D02*
X111993680Y-58577480D01*
X111993680Y-61831220D02*
X111993680Y-61808360D01*
X111993680Y-61808360D02*
X111970820Y-61808360D01*
X111970820Y-61831220D02*
X111970820Y-61808360D01*
X111993680Y-61831220D02*
X111970820Y-61831220D01*
X111993680Y-61612780D02*
X111993680Y-61196220D01*
X111993680Y-61196220D02*
X111970820Y-61196220D01*
X111970820Y-61612780D02*
X111970820Y-61196220D01*
X111993680Y-61612780D02*
X111970820Y-61612780D01*
X111993680Y-60411360D02*
X111993680Y-59997340D01*
X111993680Y-59997340D02*
X111970820Y-59997340D01*
X111970820Y-60411360D02*
X111970820Y-59997340D01*
X111993680Y-60411360D02*
X111970820Y-60411360D01*
X111993680Y-59212480D02*
X111993680Y-58795920D01*
X111993680Y-58795920D02*
X111970820Y-58795920D01*
X111970820Y-59212480D02*
X111970820Y-58795920D01*
X111993680Y-59212480D02*
X111970820Y-59212480D01*
X111993680Y-58577480D02*
X111993680Y-58557160D01*
X111993680Y-58557160D02*
X111970820Y-58557160D01*
X111970820Y-58577480D02*
X111970820Y-58557160D01*
X111993680Y-58577480D02*
X111970820Y-58577480D01*
X111970820Y-61831220D02*
X111970820Y-61808360D01*
X111970820Y-61808360D02*
X111947960Y-61808360D01*
X111947960Y-61831220D02*
X111947960Y-61808360D01*
X111970820Y-61831220D02*
X111947960Y-61831220D01*
X111970820Y-61612780D02*
X111970820Y-61196220D01*
X111970820Y-61196220D02*
X111947960Y-61196220D01*
X111947960Y-61612780D02*
X111947960Y-61196220D01*
X111970820Y-61612780D02*
X111947960Y-61612780D01*
X111970820Y-60411360D02*
X111970820Y-59997340D01*
X111970820Y-59997340D02*
X111947960Y-59997340D01*
X111947960Y-60411360D02*
X111947960Y-59997340D01*
X111970820Y-60411360D02*
X111947960Y-60411360D01*
X111970820Y-59212480D02*
X111970820Y-58795920D01*
X111970820Y-58795920D02*
X111947960Y-58795920D01*
X111947960Y-59212480D02*
X111947960Y-58795920D01*
X111970820Y-59212480D02*
X111947960Y-59212480D01*
X111970820Y-58577480D02*
X111970820Y-58557160D01*
X111970820Y-58557160D02*
X111947960Y-58557160D01*
X111947960Y-58577480D02*
X111947960Y-58557160D01*
X111970820Y-58577480D02*
X111947960Y-58577480D01*
X111947960Y-61831220D02*
X111947960Y-61808360D01*
X111947960Y-61808360D02*
X111927640Y-61808360D01*
X111927640Y-61831220D02*
X111927640Y-61808360D01*
X111947960Y-61831220D02*
X111927640Y-61831220D01*
X111947960Y-61612780D02*
X111947960Y-61196220D01*
X111947960Y-61196220D02*
X111927640Y-61196220D01*
X111927640Y-61612780D02*
X111927640Y-61196220D01*
X111947960Y-61612780D02*
X111927640Y-61612780D01*
X111947960Y-60411360D02*
X111947960Y-59997340D01*
X111947960Y-59997340D02*
X111927640Y-59997340D01*
X111927640Y-60411360D02*
X111927640Y-59997340D01*
X111947960Y-60411360D02*
X111927640Y-60411360D01*
X111947960Y-59212480D02*
X111947960Y-58795920D01*
X111947960Y-58795920D02*
X111927640Y-58795920D01*
X111927640Y-59212480D02*
X111927640Y-58795920D01*
X111947960Y-59212480D02*
X111927640Y-59212480D01*
X111947960Y-58577480D02*
X111947960Y-58557160D01*
X111947960Y-58557160D02*
X111927640Y-58557160D01*
X111927640Y-58577480D02*
X111927640Y-58557160D01*
X111947960Y-58577480D02*
X111927640Y-58577480D01*
X111927640Y-61831220D02*
X111927640Y-61808360D01*
X111927640Y-61808360D02*
X111904780Y-61808360D01*
X111904780Y-61831220D02*
X111904780Y-61808360D01*
X111927640Y-61831220D02*
X111904780Y-61831220D01*
X111927640Y-61612780D02*
X111927640Y-61196220D01*
X111927640Y-61196220D02*
X111904780Y-61196220D01*
X111904780Y-61612780D02*
X111904780Y-61196220D01*
X111927640Y-61612780D02*
X111904780Y-61612780D01*
X111927640Y-60411360D02*
X111927640Y-59997340D01*
X111927640Y-59997340D02*
X111904780Y-59997340D01*
X111904780Y-60411360D02*
X111904780Y-59997340D01*
X111927640Y-60411360D02*
X111904780Y-60411360D01*
X111927640Y-59212480D02*
X111927640Y-58795920D01*
X111927640Y-58795920D02*
X111904780Y-58795920D01*
X111904780Y-59212480D02*
X111904780Y-58795920D01*
X111927640Y-59212480D02*
X111904780Y-59212480D01*
X111927640Y-58577480D02*
X111927640Y-58557160D01*
X111927640Y-58557160D02*
X111904780Y-58557160D01*
X111904780Y-58577480D02*
X111904780Y-58557160D01*
X111927640Y-58577480D02*
X111904780Y-58577480D01*
X111904780Y-61831220D02*
X111904780Y-61808360D01*
X111904780Y-61808360D02*
X111884460Y-61808360D01*
X111884460Y-61831220D02*
X111884460Y-61808360D01*
X111904780Y-61831220D02*
X111884460Y-61831220D01*
X111904780Y-61612780D02*
X111904780Y-61196220D01*
X111904780Y-61196220D02*
X111884460Y-61196220D01*
X111884460Y-61612780D02*
X111884460Y-61196220D01*
X111904780Y-61612780D02*
X111884460Y-61612780D01*
X111904780Y-60411360D02*
X111904780Y-59997340D01*
X111904780Y-59997340D02*
X111884460Y-59997340D01*
X111884460Y-60411360D02*
X111884460Y-59997340D01*
X111904780Y-60411360D02*
X111884460Y-60411360D01*
X111904780Y-59212480D02*
X111904780Y-58795920D01*
X111904780Y-58795920D02*
X111884460Y-58795920D01*
X111884460Y-59212480D02*
X111884460Y-58795920D01*
X111904780Y-59212480D02*
X111884460Y-59212480D01*
X111904780Y-58577480D02*
X111904780Y-58557160D01*
X111904780Y-58557160D02*
X111884460Y-58557160D01*
X111884460Y-58577480D02*
X111884460Y-58557160D01*
X111904780Y-58577480D02*
X111884460Y-58577480D01*
X111884460Y-61831220D02*
X111884460Y-61808360D01*
X111884460Y-61808360D02*
X111861600Y-61808360D01*
X111861600Y-61831220D02*
X111861600Y-61808360D01*
X111884460Y-61831220D02*
X111861600Y-61831220D01*
X111884460Y-61612780D02*
X111884460Y-61196220D01*
X111884460Y-61196220D02*
X111861600Y-61196220D01*
X111861600Y-61612780D02*
X111861600Y-61196220D01*
X111884460Y-61612780D02*
X111861600Y-61612780D01*
X111884460Y-60411360D02*
X111884460Y-59997340D01*
X111884460Y-59997340D02*
X111861600Y-59997340D01*
X111861600Y-60411360D02*
X111861600Y-59997340D01*
X111884460Y-60411360D02*
X111861600Y-60411360D01*
X111884460Y-59212480D02*
X111884460Y-58795920D01*
X111884460Y-58795920D02*
X111861600Y-58795920D01*
X111861600Y-59212480D02*
X111861600Y-58795920D01*
X111884460Y-59212480D02*
X111861600Y-59212480D01*
X111884460Y-58577480D02*
X111884460Y-58557160D01*
X111884460Y-58557160D02*
X111861600Y-58557160D01*
X111861600Y-58577480D02*
X111861600Y-58557160D01*
X111884460Y-58577480D02*
X111861600Y-58577480D01*
X111861600Y-61831220D02*
X111861600Y-61808360D01*
X111861600Y-61808360D02*
X111838740Y-61808360D01*
X111838740Y-61831220D02*
X111838740Y-61808360D01*
X111861600Y-61831220D02*
X111838740Y-61831220D01*
X111861600Y-61612780D02*
X111861600Y-61196220D01*
X111861600Y-61196220D02*
X111838740Y-61196220D01*
X111838740Y-61612780D02*
X111838740Y-61196220D01*
X111861600Y-61612780D02*
X111838740Y-61612780D01*
X111861600Y-60411360D02*
X111861600Y-59997340D01*
X111861600Y-59997340D02*
X111838740Y-59997340D01*
X111838740Y-60411360D02*
X111838740Y-59997340D01*
X111861600Y-60411360D02*
X111838740Y-60411360D01*
X111861600Y-59212480D02*
X111861600Y-58795920D01*
X111861600Y-58795920D02*
X111838740Y-58795920D01*
X111838740Y-59212480D02*
X111838740Y-58795920D01*
X111861600Y-59212480D02*
X111838740Y-59212480D01*
X111861600Y-58577480D02*
X111861600Y-58557160D01*
X111861600Y-58557160D02*
X111838740Y-58557160D01*
X111838740Y-58577480D02*
X111838740Y-58557160D01*
X111861600Y-58577480D02*
X111838740Y-58577480D01*
X111838740Y-61831220D02*
X111838740Y-61808360D01*
X111838740Y-61808360D02*
X111818420Y-61808360D01*
X111818420Y-61831220D02*
X111818420Y-61808360D01*
X111838740Y-61831220D02*
X111818420Y-61831220D01*
X111838740Y-61612780D02*
X111838740Y-61196220D01*
X111838740Y-61196220D02*
X111818420Y-61196220D01*
X111818420Y-61612780D02*
X111818420Y-61196220D01*
X111838740Y-61612780D02*
X111818420Y-61612780D01*
X111838740Y-60411360D02*
X111838740Y-59997340D01*
X111838740Y-59997340D02*
X111818420Y-59997340D01*
X111818420Y-60411360D02*
X111818420Y-59997340D01*
X111838740Y-60411360D02*
X111818420Y-60411360D01*
X111838740Y-59212480D02*
X111838740Y-58795920D01*
X111838740Y-58795920D02*
X111818420Y-58795920D01*
X111818420Y-59212480D02*
X111818420Y-58795920D01*
X111838740Y-59212480D02*
X111818420Y-59212480D01*
X111838740Y-58577480D02*
X111838740Y-58557160D01*
X111838740Y-58557160D02*
X111818420Y-58557160D01*
X111818420Y-58577480D02*
X111818420Y-58557160D01*
X111838740Y-58577480D02*
X111818420Y-58577480D01*
X111818420Y-61831220D02*
X111818420Y-61808360D01*
X111818420Y-61808360D02*
X111795560Y-61808360D01*
X111795560Y-61831220D02*
X111795560Y-61808360D01*
X111818420Y-61831220D02*
X111795560Y-61831220D01*
X111818420Y-61612780D02*
X111818420Y-61196220D01*
X111818420Y-61196220D02*
X111795560Y-61196220D01*
X111795560Y-61612780D02*
X111795560Y-61196220D01*
X111818420Y-61612780D02*
X111795560Y-61612780D01*
X111818420Y-60411360D02*
X111818420Y-59997340D01*
X111818420Y-59997340D02*
X111795560Y-59997340D01*
X111795560Y-60411360D02*
X111795560Y-59997340D01*
X111818420Y-60411360D02*
X111795560Y-60411360D01*
X111818420Y-59212480D02*
X111818420Y-58795920D01*
X111818420Y-58795920D02*
X111795560Y-58795920D01*
X111795560Y-59212480D02*
X111795560Y-58795920D01*
X111818420Y-59212480D02*
X111795560Y-59212480D01*
X111818420Y-58577480D02*
X111818420Y-58557160D01*
X111818420Y-58557160D02*
X111795560Y-58557160D01*
X111795560Y-58577480D02*
X111795560Y-58557160D01*
X111818420Y-58577480D02*
X111795560Y-58577480D01*
X111795560Y-61831220D02*
X111795560Y-61808360D01*
X111795560Y-61808360D02*
X111775240Y-61808360D01*
X111775240Y-61831220D02*
X111775240Y-61808360D01*
X111795560Y-61831220D02*
X111775240Y-61831220D01*
X111795560Y-61612780D02*
X111795560Y-61196220D01*
X111795560Y-61196220D02*
X111775240Y-61196220D01*
X111775240Y-61612780D02*
X111775240Y-61196220D01*
X111795560Y-61612780D02*
X111775240Y-61612780D01*
X111795560Y-60411360D02*
X111795560Y-59997340D01*
X111795560Y-59997340D02*
X111775240Y-59997340D01*
X111775240Y-60411360D02*
X111775240Y-59997340D01*
X111795560Y-60411360D02*
X111775240Y-60411360D01*
X111795560Y-59212480D02*
X111795560Y-58795920D01*
X111795560Y-58795920D02*
X111775240Y-58795920D01*
X111775240Y-59212480D02*
X111775240Y-58795920D01*
X111795560Y-59212480D02*
X111775240Y-59212480D01*
X111795560Y-58577480D02*
X111795560Y-58557160D01*
X111795560Y-58557160D02*
X111775240Y-58557160D01*
X111775240Y-58577480D02*
X111775240Y-58557160D01*
X111795560Y-58577480D02*
X111775240Y-58577480D01*
X111775240Y-61831220D02*
X111775240Y-61808360D01*
X111775240Y-61808360D02*
X111752380Y-61808360D01*
X111752380Y-61831220D02*
X111752380Y-61808360D01*
X111775240Y-61831220D02*
X111752380Y-61831220D01*
X111775240Y-61612780D02*
X111775240Y-61196220D01*
X111775240Y-61196220D02*
X111752380Y-61196220D01*
X111752380Y-61612780D02*
X111752380Y-61196220D01*
X111775240Y-61612780D02*
X111752380Y-61612780D01*
X111775240Y-60411360D02*
X111775240Y-59997340D01*
X111775240Y-59997340D02*
X111752380Y-59997340D01*
X111752380Y-60411360D02*
X111752380Y-59997340D01*
X111775240Y-60411360D02*
X111752380Y-60411360D01*
X111775240Y-59212480D02*
X111775240Y-58795920D01*
X111775240Y-58795920D02*
X111752380Y-58795920D01*
X111752380Y-59212480D02*
X111752380Y-58795920D01*
X111775240Y-59212480D02*
X111752380Y-59212480D01*
X111775240Y-58577480D02*
X111775240Y-58557160D01*
X111775240Y-58557160D02*
X111752380Y-58557160D01*
X111752380Y-58577480D02*
X111752380Y-58557160D01*
X111775240Y-58577480D02*
X111752380Y-58577480D01*
X111752380Y-61831220D02*
X111752380Y-61808360D01*
X111752380Y-61808360D02*
X111729520Y-61808360D01*
X111729520Y-61831220D02*
X111729520Y-61808360D01*
X111752380Y-61831220D02*
X111729520Y-61831220D01*
X111752380Y-61612780D02*
X111752380Y-61196220D01*
X111752380Y-61196220D02*
X111729520Y-61196220D01*
X111729520Y-61612780D02*
X111729520Y-61196220D01*
X111752380Y-61612780D02*
X111729520Y-61612780D01*
X111752380Y-60411360D02*
X111752380Y-59997340D01*
X111752380Y-59997340D02*
X111729520Y-59997340D01*
X111729520Y-60411360D02*
X111729520Y-59997340D01*
X111752380Y-60411360D02*
X111729520Y-60411360D01*
X111752380Y-59212480D02*
X111752380Y-58795920D01*
X111752380Y-58795920D02*
X111729520Y-58795920D01*
X111729520Y-59212480D02*
X111729520Y-58795920D01*
X111752380Y-59212480D02*
X111729520Y-59212480D01*
X111752380Y-58577480D02*
X111752380Y-58557160D01*
X111752380Y-58557160D02*
X111729520Y-58557160D01*
X111729520Y-58577480D02*
X111729520Y-58557160D01*
X111752380Y-58577480D02*
X111729520Y-58577480D01*
X111729520Y-61831220D02*
X111729520Y-61808360D01*
X111729520Y-61808360D02*
X111709200Y-61808360D01*
X111709200Y-61831220D02*
X111709200Y-61808360D01*
X111729520Y-61831220D02*
X111709200Y-61831220D01*
X111729520Y-61612780D02*
X111729520Y-61196220D01*
X111729520Y-61196220D02*
X111709200Y-61196220D01*
X111709200Y-61612780D02*
X111709200Y-61196220D01*
X111729520Y-61612780D02*
X111709200Y-61612780D01*
X111729520Y-60411360D02*
X111729520Y-59997340D01*
X111729520Y-59997340D02*
X111709200Y-59997340D01*
X111709200Y-60411360D02*
X111709200Y-59997340D01*
X111729520Y-60411360D02*
X111709200Y-60411360D01*
X111729520Y-59212480D02*
X111729520Y-58795920D01*
X111729520Y-58795920D02*
X111709200Y-58795920D01*
X111709200Y-59212480D02*
X111709200Y-58795920D01*
X111729520Y-59212480D02*
X111709200Y-59212480D01*
X111729520Y-58577480D02*
X111729520Y-58557160D01*
X111729520Y-58557160D02*
X111709200Y-58557160D01*
X111709200Y-58577480D02*
X111709200Y-58557160D01*
X111729520Y-58577480D02*
X111709200Y-58577480D01*
X111709200Y-61831220D02*
X111709200Y-61808360D01*
X111709200Y-61808360D02*
X111686340Y-61808360D01*
X111686340Y-61831220D02*
X111686340Y-61808360D01*
X111709200Y-61831220D02*
X111686340Y-61831220D01*
X111709200Y-61612780D02*
X111709200Y-61196220D01*
X111709200Y-61196220D02*
X111686340Y-61196220D01*
X111686340Y-61612780D02*
X111686340Y-61196220D01*
X111709200Y-61612780D02*
X111686340Y-61612780D01*
X111709200Y-60411360D02*
X111709200Y-59997340D01*
X111709200Y-59997340D02*
X111686340Y-59997340D01*
X111686340Y-60411360D02*
X111686340Y-59997340D01*
X111709200Y-60411360D02*
X111686340Y-60411360D01*
X111709200Y-59212480D02*
X111709200Y-58795920D01*
X111709200Y-58795920D02*
X111686340Y-58795920D01*
X111686340Y-59212480D02*
X111686340Y-58795920D01*
X111709200Y-59212480D02*
X111686340Y-59212480D01*
X111709200Y-58577480D02*
X111709200Y-58557160D01*
X111709200Y-58557160D02*
X111686340Y-58557160D01*
X111686340Y-58577480D02*
X111686340Y-58557160D01*
X111709200Y-58577480D02*
X111686340Y-58577480D01*
X111686340Y-61831220D02*
X111686340Y-61808360D01*
X111686340Y-61808360D02*
X111666020Y-61808360D01*
X111666020Y-61831220D02*
X111666020Y-61808360D01*
X111686340Y-61831220D02*
X111666020Y-61831220D01*
X111686340Y-61612780D02*
X111686340Y-61196220D01*
X111686340Y-61196220D02*
X111666020Y-61196220D01*
X111666020Y-61612780D02*
X111666020Y-61196220D01*
X111686340Y-61612780D02*
X111666020Y-61612780D01*
X111686340Y-60411360D02*
X111686340Y-59997340D01*
X111686340Y-59997340D02*
X111666020Y-59997340D01*
X111666020Y-60411360D02*
X111666020Y-59997340D01*
X111686340Y-60411360D02*
X111666020Y-60411360D01*
X111686340Y-59212480D02*
X111686340Y-58795920D01*
X111686340Y-58795920D02*
X111666020Y-58795920D01*
X111666020Y-59212480D02*
X111666020Y-58795920D01*
X111686340Y-59212480D02*
X111666020Y-59212480D01*
X111686340Y-58577480D02*
X111686340Y-58557160D01*
X111686340Y-58557160D02*
X111666020Y-58557160D01*
X111666020Y-58577480D02*
X111666020Y-58557160D01*
X111686340Y-58577480D02*
X111666020Y-58577480D01*
X111666020Y-61831220D02*
X111666020Y-58557160D01*
X111666020Y-58557160D02*
X111643160Y-58557160D01*
X111643160Y-61831220D02*
X111643160Y-58557160D01*
X111666020Y-61831220D02*
X111643160Y-61831220D01*
X113035080Y-61945520D02*
X113035080Y-58453020D01*
X113035080Y-58453020D02*
X111503460Y-58453020D01*
X111503460Y-61945520D02*
X111503460Y-58453020D01*
X113035080Y-61945520D02*
X111503460Y-61945520D01*
X112979200Y-61899800D02*
X112979200Y-61772800D01*
X112979200Y-61772800D02*
X111556800Y-61772800D01*
X111556800Y-61899800D02*
X111556800Y-61772800D01*
X112979200Y-61899800D02*
X111556800Y-61899800D01*
X112979200Y-60858400D02*
X112979200Y-60731400D01*
X112979200Y-60731400D02*
X111556800Y-60731400D01*
X111556800Y-60858400D02*
X111556800Y-60731400D01*
X112979200Y-60858400D02*
X111556800Y-60858400D01*
X112979200Y-59690000D02*
X112979200Y-59563000D01*
X112979200Y-59563000D02*
X111556800Y-59563000D01*
X111556800Y-59690000D02*
X111556800Y-59563000D01*
X112979200Y-59690000D02*
X111556800Y-59690000D01*
X112979200Y-58623200D02*
X112979200Y-58496200D01*
X112979200Y-58496200D02*
X111556800Y-58496200D01*
X111556800Y-58623200D02*
X111556800Y-58496200D01*
X112979200Y-58623200D02*
X111556800Y-58623200D01*
D17*
X111620300Y-61795660D02*
X111620300Y-58600340D01*
X111620300Y-58600340D02*
X112915700Y-58600340D01*
X112915700Y-58600340D02*
X112915700Y-61795660D01*
X112915700Y-61795660D02*
X111620300Y-61795660D01*
D13*
X117588400Y-75988800D02*
X117588400Y-74988800D01*
X115888400Y-74988800D02*
X115888400Y-75988800D01*
X116781200Y-55233200D02*
X115781200Y-55233200D01*
X115781200Y-56933200D02*
X116781200Y-56933200D01*
X122211200Y-76039600D02*
X122211200Y-75039600D01*
X120511200Y-75039600D02*
X120511200Y-76039600D01*
X112960000Y-76950000D02*
X112960000Y-75950000D01*
X111260000Y-75950000D02*
X111260000Y-76950000D01*
X118172000Y-77238000D02*
X119572000Y-77238000D01*
X119572000Y-77238000D02*
X119572000Y-74438000D01*
X118172000Y-77238000D02*
X118172000Y-74438000D01*
X113701600Y-77339600D02*
X115101600Y-77339600D01*
X115101600Y-77339600D02*
X115101600Y-74539600D01*
X113701600Y-77339600D02*
X113701600Y-74539600D01*
X116018200Y-58175600D02*
X116018200Y-59375600D01*
X114258200Y-59375600D02*
X114258200Y-58175600D01*
X118304200Y-58175600D02*
X118304200Y-59375600D01*
X116544200Y-59375600D02*
X116544200Y-58175600D01*
X115480000Y-89795000D02*
X118140000Y-89795000D01*
X115480000Y-87195000D02*
X115480000Y-89795000D01*
X118140000Y-87195000D02*
X118140000Y-89795000D01*
X115480000Y-87195000D02*
X118140000Y-87195000D01*
X115480000Y-85925000D02*
X115480000Y-84595000D01*
X115480000Y-84595000D02*
X116810000Y-84595000D01*
X117240000Y-48915000D02*
X116310000Y-48915000D01*
X114080000Y-48915000D02*
X115010000Y-48915000D01*
X114080000Y-48915000D02*
X114080000Y-51075000D01*
X117240000Y-48915000D02*
X117240000Y-50375000D01*
X119310000Y-51525000D02*
X120710000Y-51525000D01*
X120710000Y-51525000D02*
X120710000Y-48725000D01*
X119310000Y-51525000D02*
X119310000Y-48725000D01*
X121260000Y-54030000D02*
X120060000Y-54030000D01*
X120060000Y-52270000D02*
X121260000Y-52270000D01*
D12*
X120966473Y-62106031D02*
X120394053Y-62678451D01*
X120360381Y-62779466D01*
X120360381Y-62846809D01*
X120394053Y-62947824D01*
X120528741Y-63082512D01*
X120629756Y-63116184D01*
X120697099Y-63116184D01*
X120798114Y-63082512D01*
X121370534Y-62510092D01*
X121774596Y-63385557D02*
X121303191Y-63856962D01*
X121875610Y-62947824D02*
X121202175Y-63284542D01*
X121639908Y-63722275D01*
D18*
X109138495Y-94056581D02*
X109138495Y-94866105D01*
X109186114Y-94961343D01*
X109233733Y-95008962D01*
X109328971Y-95056581D01*
X109519448Y-95056581D01*
X109614686Y-95008962D01*
X109662305Y-94961343D01*
X109709924Y-94866105D01*
X109709924Y-94056581D01*
X110709924Y-95056581D02*
X110138495Y-95056581D01*
X110424209Y-95056581D02*
X110424209Y-94056581D01*
X110328971Y-94199438D01*
X110233733Y-94294676D01*
X110138495Y-94342295D01*
X105471115Y-114006581D02*
X105137781Y-113530390D01*
X104899686Y-114006581D02*
X104899686Y-113006581D01*
X105280639Y-113006581D01*
X105375877Y-113054200D01*
X105423496Y-113101819D01*
X105471115Y-113197057D01*
X105471115Y-113339914D01*
X105423496Y-113435152D01*
X105375877Y-113482771D01*
X105280639Y-113530390D01*
X104899686Y-113530390D01*
X106233020Y-113482771D02*
X105899686Y-113482771D01*
X105899686Y-114006581D02*
X105899686Y-113006581D01*
X106375877Y-113006581D01*
X106756829Y-114006581D02*
X106756829Y-113006581D01*
X107090163Y-113720867D01*
X107423496Y-113006581D01*
X107423496Y-114006581D01*
X107947305Y-114006581D02*
X108137781Y-114006581D01*
X108233020Y-113958962D01*
X108280639Y-113911343D01*
X108375877Y-113768486D01*
X108423496Y-113578010D01*
X108423496Y-113197057D01*
X108375877Y-113101819D01*
X108328258Y-113054200D01*
X108233020Y-113006581D01*
X108042543Y-113006581D01*
X107947305Y-113054200D01*
X107899686Y-113101819D01*
X107852067Y-113197057D01*
X107852067Y-113435152D01*
X107899686Y-113530390D01*
X107947305Y-113578010D01*
X108042543Y-113625629D01*
X108233020Y-113625629D01*
X108328258Y-113578010D01*
X108375877Y-113530390D01*
X108423496Y-113435152D01*
X109328258Y-113006581D02*
X108852067Y-113006581D01*
X108804448Y-113482771D01*
X108852067Y-113435152D01*
X108947305Y-113387533D01*
X109185401Y-113387533D01*
X109280639Y-113435152D01*
X109328258Y-113482771D01*
X109375877Y-113578010D01*
X109375877Y-113816105D01*
X109328258Y-113911343D01*
X109280639Y-113958962D01*
X109185401Y-114006581D01*
X108947305Y-114006581D01*
X108852067Y-113958962D01*
X108804448Y-113911343D01*
X109709210Y-113006581D02*
X109947305Y-114006581D01*
X110137782Y-113292295D01*
X110328258Y-114006581D01*
X110566353Y-113006581D01*
X110947305Y-113625629D02*
X111709210Y-113625629D01*
X112328257Y-113435152D02*
X112233019Y-113387533D01*
X112185400Y-113339914D01*
X112137781Y-113244676D01*
X112137781Y-113197057D01*
X112185400Y-113101819D01*
X112233019Y-113054200D01*
X112328257Y-113006581D01*
X112518734Y-113006581D01*
X112613972Y-113054200D01*
X112661591Y-113101819D01*
X112709210Y-113197057D01*
X112709210Y-113244676D01*
X112661591Y-113339914D01*
X112613972Y-113387533D01*
X112518734Y-113435152D01*
X112328257Y-113435152D01*
X112233019Y-113482771D01*
X112185400Y-113530390D01*
X112137781Y-113625629D01*
X112137781Y-113816105D01*
X112185400Y-113911343D01*
X112233019Y-113958962D01*
X112328257Y-114006581D01*
X112518734Y-114006581D01*
X112613972Y-113958962D01*
X112661591Y-113911343D01*
X112709210Y-113816105D01*
X112709210Y-113625629D01*
X112661591Y-113530390D01*
X112613972Y-113482771D01*
X112518734Y-113435152D01*
X113566353Y-113006581D02*
X113375876Y-113006581D01*
X113280638Y-113054200D01*
X113233019Y-113101819D01*
X113137781Y-113244676D01*
X113090162Y-113435152D01*
X113090162Y-113816105D01*
X113137781Y-113911343D01*
X113185400Y-113958962D01*
X113280638Y-114006581D01*
X113471115Y-114006581D01*
X113566353Y-113958962D01*
X113613972Y-113911343D01*
X113661591Y-113816105D01*
X113661591Y-113578010D01*
X113613972Y-113482771D01*
X113566353Y-113435152D01*
X113471115Y-113387533D01*
X113280638Y-113387533D01*
X113185400Y-113435152D01*
X113137781Y-113482771D01*
X113090162Y-113578010D01*
X114233019Y-113435152D02*
X114137781Y-113387533D01*
X114090162Y-113339914D01*
X114042543Y-113244676D01*
X114042543Y-113197057D01*
X114090162Y-113101819D01*
X114137781Y-113054200D01*
X114233019Y-113006581D01*
X114423496Y-113006581D01*
X114518734Y-113054200D01*
X114566353Y-113101819D01*
X114613972Y-113197057D01*
X114613972Y-113244676D01*
X114566353Y-113339914D01*
X114518734Y-113387533D01*
X114423496Y-113435152D01*
X114233019Y-113435152D01*
X114137781Y-113482771D01*
X114090162Y-113530390D01*
X114042543Y-113625629D01*
X114042543Y-113816105D01*
X114090162Y-113911343D01*
X114137781Y-113958962D01*
X114233019Y-114006581D01*
X114423496Y-114006581D01*
X114518734Y-113958962D01*
X114566353Y-113911343D01*
X114613972Y-113816105D01*
X114613972Y-113625629D01*
X114566353Y-113530390D01*
X114518734Y-113482771D01*
X114423496Y-113435152D01*
X114994924Y-113958962D02*
X115137781Y-114006581D01*
X115375877Y-114006581D01*
X115471115Y-113958962D01*
X115518734Y-113911343D01*
X115566353Y-113816105D01*
X115566353Y-113720867D01*
X115518734Y-113625629D01*
X115471115Y-113578010D01*
X115375877Y-113530390D01*
X115185400Y-113482771D01*
X115090162Y-113435152D01*
X115042543Y-113387533D01*
X114994924Y-113292295D01*
X114994924Y-113197057D01*
X115042543Y-113101819D01*
X115090162Y-113054200D01*
X115185400Y-113006581D01*
X115423496Y-113006581D01*
X115566353Y-113054200D01*
X115947305Y-113101819D02*
X115994924Y-113054200D01*
X116090162Y-113006581D01*
X116328258Y-113006581D01*
X116423496Y-113054200D01*
X116471115Y-113101819D01*
X116518734Y-113197057D01*
X116518734Y-113292295D01*
X116471115Y-113435152D01*
X115899686Y-114006581D01*
X116518734Y-114006581D01*
D19*
X116836000Y-78348666D02*
X116869333Y-78382000D01*
X116902667Y-78482000D01*
X116902667Y-78548666D01*
X116869333Y-78648666D01*
X116802667Y-78715333D01*
X116736000Y-78748666D01*
X116602667Y-78782000D01*
X116502667Y-78782000D01*
X116369333Y-78748666D01*
X116302667Y-78715333D01*
X116236000Y-78648666D01*
X116202667Y-78548666D01*
X116202667Y-78482000D01*
X116236000Y-78382000D01*
X116269333Y-78348666D01*
X116436000Y-77748666D02*
X116902667Y-77748666D01*
X116169333Y-77915333D02*
X116669333Y-78082000D01*
X116669333Y-77648666D01*
X116164534Y-54833200D02*
X116131200Y-54866533D01*
X116031200Y-54899867D01*
X115964534Y-54899867D01*
X115864534Y-54866533D01*
X115797867Y-54799867D01*
X115764534Y-54733200D01*
X115731200Y-54599867D01*
X115731200Y-54499867D01*
X115764534Y-54366533D01*
X115797867Y-54299867D01*
X115864534Y-54233200D01*
X115964534Y-54199867D01*
X116031200Y-54199867D01*
X116131200Y-54233200D01*
X116164534Y-54266533D01*
X116797867Y-54199867D02*
X116464534Y-54199867D01*
X116431200Y-54533200D01*
X116464534Y-54499867D01*
X116531200Y-54466533D01*
X116697867Y-54466533D01*
X116764534Y-54499867D01*
X116797867Y-54533200D01*
X116831200Y-54599867D01*
X116831200Y-54766533D01*
X116797867Y-54833200D01*
X116764534Y-54866533D01*
X116697867Y-54899867D01*
X116531200Y-54899867D01*
X116464534Y-54866533D01*
X116431200Y-54833200D01*
X121662000Y-73014666D02*
X121695333Y-73048000D01*
X121728667Y-73148000D01*
X121728667Y-73214666D01*
X121695333Y-73314666D01*
X121628667Y-73381333D01*
X121562000Y-73414666D01*
X121428667Y-73448000D01*
X121328667Y-73448000D01*
X121195333Y-73414666D01*
X121128667Y-73381333D01*
X121062000Y-73314666D01*
X121028667Y-73214666D01*
X121028667Y-73148000D01*
X121062000Y-73048000D01*
X121095333Y-73014666D01*
X121028667Y-72414666D02*
X121028667Y-72548000D01*
X121062000Y-72614666D01*
X121095333Y-72648000D01*
X121195333Y-72714666D01*
X121328667Y-72748000D01*
X121595333Y-72748000D01*
X121662000Y-72714666D01*
X121695333Y-72681333D01*
X121728667Y-72614666D01*
X121728667Y-72481333D01*
X121695333Y-72414666D01*
X121662000Y-72381333D01*
X121595333Y-72348000D01*
X121428667Y-72348000D01*
X121362000Y-72381333D01*
X121328667Y-72414666D01*
X121295333Y-72481333D01*
X121295333Y-72614666D01*
X121328667Y-72681333D01*
X121362000Y-72714666D01*
X121428667Y-72748000D01*
X111852000Y-74026666D02*
X111885333Y-74060000D01*
X111918667Y-74160000D01*
X111918667Y-74226666D01*
X111885333Y-74326666D01*
X111818667Y-74393333D01*
X111752000Y-74426666D01*
X111618667Y-74460000D01*
X111518667Y-74460000D01*
X111385333Y-74426666D01*
X111318667Y-74393333D01*
X111252000Y-74326666D01*
X111218667Y-74226666D01*
X111218667Y-74160000D01*
X111252000Y-74060000D01*
X111285333Y-74026666D01*
X111218667Y-73793333D02*
X111218667Y-73326666D01*
X111918667Y-73626666D01*
X119188667Y-78748666D02*
X118488667Y-78748666D01*
X118488667Y-78582000D01*
X118522000Y-78482000D01*
X118588667Y-78415333D01*
X118655333Y-78382000D01*
X118788667Y-78348666D01*
X118888667Y-78348666D01*
X119022000Y-78382000D01*
X119088667Y-78415333D01*
X119155333Y-78482000D01*
X119188667Y-78582000D01*
X119188667Y-78748666D01*
X118555333Y-78082000D02*
X118522000Y-78048666D01*
X118488667Y-77982000D01*
X118488667Y-77815333D01*
X118522000Y-77748666D01*
X118555333Y-77715333D01*
X118622000Y-77682000D01*
X118688667Y-77682000D01*
X118788667Y-77715333D01*
X119188667Y-78115333D01*
X119188667Y-77682000D01*
X113092667Y-72906666D02*
X112392667Y-72906666D01*
X112392667Y-72740000D01*
X112426000Y-72640000D01*
X112492667Y-72573333D01*
X112559333Y-72540000D01*
X112692667Y-72506666D01*
X112792667Y-72506666D01*
X112926000Y-72540000D01*
X112992667Y-72573333D01*
X113059333Y-72640000D01*
X113092667Y-72740000D01*
X113092667Y-72906666D01*
X112392667Y-72273333D02*
X112392667Y-71840000D01*
X112659333Y-72073333D01*
X112659333Y-71973333D01*
X112692667Y-71906666D01*
X112726000Y-71873333D01*
X112792667Y-71840000D01*
X112959333Y-71840000D01*
X113026000Y-71873333D01*
X113059333Y-71906666D01*
X113092667Y-71973333D01*
X113092667Y-72173333D01*
X113059333Y-72240000D01*
X113026000Y-72273333D01*
X114108667Y-58282666D02*
X113775333Y-58516000D01*
X114108667Y-58682666D02*
X113408667Y-58682666D01*
X113408667Y-58416000D01*
X113442000Y-58349333D01*
X113475333Y-58316000D01*
X113542000Y-58282666D01*
X113642000Y-58282666D01*
X113708667Y-58316000D01*
X113742000Y-58349333D01*
X113775333Y-58416000D01*
X113775333Y-58682666D01*
X113408667Y-57649333D02*
X113408667Y-57982666D01*
X113742000Y-58016000D01*
X113708667Y-57982666D01*
X113675333Y-57916000D01*
X113675333Y-57749333D01*
X113708667Y-57682666D01*
X113742000Y-57649333D01*
X113808667Y-57616000D01*
X113975333Y-57616000D01*
X114042000Y-57649333D01*
X114075333Y-57682666D01*
X114108667Y-57749333D01*
X114108667Y-57916000D01*
X114075333Y-57982666D01*
X114042000Y-58016000D01*
X119188667Y-58028666D02*
X118855333Y-58262000D01*
X119188667Y-58428666D02*
X118488667Y-58428666D01*
X118488667Y-58162000D01*
X118522000Y-58095333D01*
X118555333Y-58062000D01*
X118622000Y-58028666D01*
X118722000Y-58028666D01*
X118788667Y-58062000D01*
X118822000Y-58095333D01*
X118855333Y-58162000D01*
X118855333Y-58428666D01*
X118488667Y-57428666D02*
X118488667Y-57562000D01*
X118522000Y-57628666D01*
X118555333Y-57662000D01*
X118655333Y-57728666D01*
X118788667Y-57762000D01*
X119055333Y-57762000D01*
X119122000Y-57728666D01*
X119155333Y-57695333D01*
X119188667Y-57628666D01*
X119188667Y-57495333D01*
X119155333Y-57428666D01*
X119122000Y-57395333D01*
X119055333Y-57362000D01*
X118888667Y-57362000D01*
X118822000Y-57395333D01*
X118788667Y-57428666D01*
X118755333Y-57495333D01*
X118755333Y-57628666D01*
X118788667Y-57695333D01*
X118822000Y-57728666D01*
X118888667Y-57762000D01*
D12*
X113707619Y-49770238D02*
X113660000Y-49865476D01*
X113564762Y-49960714D01*
X113421905Y-50103571D01*
X113374286Y-50198810D01*
X113374286Y-50294048D01*
X113612381Y-50246429D02*
X113564762Y-50341667D01*
X113469524Y-50436905D01*
X113279048Y-50484524D01*
X112945714Y-50484524D01*
X112755238Y-50436905D01*
X112660000Y-50341667D01*
X112612381Y-50246429D01*
X112612381Y-50055952D01*
X112660000Y-49960714D01*
X112755238Y-49865476D01*
X112945714Y-49817857D01*
X113279048Y-49817857D01*
X113469524Y-49865476D01*
X113564762Y-49960714D01*
X113612381Y-50055952D01*
X113612381Y-50246429D01*
X113612381Y-48865476D02*
X113612381Y-49436905D01*
X113612381Y-49151191D02*
X112612381Y-49151191D01*
X112755238Y-49246429D01*
X112850476Y-49341667D01*
X112898095Y-49436905D01*
X119012381Y-50463095D02*
X118012381Y-50463095D01*
X118012381Y-50225000D01*
X118060000Y-50082142D01*
X118155238Y-49986904D01*
X118250476Y-49939285D01*
X118440952Y-49891666D01*
X118583810Y-49891666D01*
X118774286Y-49939285D01*
X118869524Y-49986904D01*
X118964762Y-50082142D01*
X119012381Y-50225000D01*
X119012381Y-50463095D01*
X119012381Y-48939285D02*
X119012381Y-49510714D01*
X119012381Y-49225000D02*
X118012381Y-49225000D01*
X118155238Y-49320238D01*
X118250476Y-49415476D01*
X118298095Y-49510714D01*
X120493334Y-51952381D02*
X120160000Y-51476190D01*
X119921905Y-51952381D02*
X119921905Y-50952381D01*
X120302858Y-50952381D01*
X120398096Y-51000000D01*
X120445715Y-51047619D01*
X120493334Y-51142857D01*
X120493334Y-51285714D01*
X120445715Y-51380952D01*
X120398096Y-51428571D01*
X120302858Y-51476190D01*
X119921905Y-51476190D01*
X120874286Y-51047619D02*
X120921905Y-51000000D01*
X121017143Y-50952381D01*
X121255239Y-50952381D01*
X121350477Y-51000000D01*
X121398096Y-51047619D01*
X121445715Y-51142857D01*
X121445715Y-51238095D01*
X121398096Y-51380952D01*
X120826667Y-51952381D01*
X121445715Y-51952381D01*
M02*
