G04 #@! TF.FileFunction,Other,User*
%FSLAX46Y46*%
G04 Gerber Fmt 4.6, Leading zero omitted, Abs format (unit mm)*
G04 Created by KiCad (PCBNEW 4.0.7-e2-6376~61~ubuntu18.04.1) date Thu Mar 14 12:40:49 2019*
%MOMM*%
%LPD*%
G01*
G04 APERTURE LIST*
%ADD10C,0.100000*%
%ADD11C,0.050000*%
G04 APERTURE END LIST*
D10*
D11*
X123985000Y-49600000D02*
X132585000Y-49600000D01*
X132585000Y-49600000D02*
X132585000Y-42700000D01*
X132585000Y-42700000D02*
X123985000Y-42700000D01*
X123985000Y-42700000D02*
X123985000Y-49600000D01*
X116840000Y-59814668D02*
X109344668Y-67310000D01*
X124335332Y-67310000D02*
X116840000Y-74805332D01*
X116840000Y-59814668D02*
X124335332Y-67310000D01*
X109344668Y-67310000D02*
X116840000Y-74805332D01*
X120120000Y-82020000D02*
X120120000Y-90670000D01*
X120120000Y-90670000D02*
X126270000Y-90670000D01*
X126270000Y-90670000D02*
X126270000Y-82020000D01*
X126270000Y-82020000D02*
X120120000Y-82020000D01*
X124184000Y-99038000D02*
X124184000Y-107688000D01*
X124184000Y-107688000D02*
X127784000Y-107688000D01*
X127784000Y-107688000D02*
X127784000Y-99038000D01*
X127784000Y-99038000D02*
X124184000Y-99038000D01*
X107132000Y-95152000D02*
X113882000Y-95152000D01*
X113882000Y-95152000D02*
X113882000Y-81752000D01*
X113882000Y-81752000D02*
X107132000Y-81752000D01*
X107132000Y-81752000D02*
X107132000Y-95152000D01*
X117618400Y-73738800D02*
X117618400Y-77238800D01*
X117618400Y-73738800D02*
X115868400Y-73738800D01*
X115868400Y-77238800D02*
X117618400Y-77238800D01*
X115868400Y-77238800D02*
X115868400Y-73738800D01*
X114531200Y-55203200D02*
X118031200Y-55203200D01*
X114531200Y-55203200D02*
X114531200Y-56953200D01*
X118031200Y-56953200D02*
X118031200Y-55203200D01*
X118031200Y-56953200D02*
X114531200Y-56953200D01*
X122241200Y-73789600D02*
X122241200Y-77289600D01*
X122241200Y-73789600D02*
X120491200Y-73789600D01*
X120491200Y-77289600D02*
X122241200Y-77289600D01*
X120491200Y-77289600D02*
X120491200Y-73789600D01*
X112990000Y-74700000D02*
X112990000Y-78200000D01*
X112990000Y-74700000D02*
X111240000Y-74700000D01*
X111240000Y-78200000D02*
X112990000Y-78200000D01*
X111240000Y-78200000D02*
X111240000Y-74700000D01*
X118022000Y-73488000D02*
X119722000Y-73488000D01*
X119722000Y-73488000D02*
X119722000Y-77388000D01*
X119722000Y-77388000D02*
X118022000Y-77388000D01*
X118022000Y-77388000D02*
X118022000Y-73488000D01*
X113551600Y-73589600D02*
X115251600Y-73589600D01*
X115251600Y-73589600D02*
X115251600Y-77489600D01*
X115251600Y-77489600D02*
X113551600Y-77489600D01*
X113551600Y-77489600D02*
X113551600Y-73589600D01*
X114238200Y-60325600D02*
X114238200Y-57225600D01*
X114238200Y-60325600D02*
X116038200Y-60325600D01*
X116038200Y-57225600D02*
X114238200Y-57225600D01*
X116038200Y-57225600D02*
X116038200Y-60325600D01*
X116524200Y-60325600D02*
X116524200Y-57225600D01*
X116524200Y-60325600D02*
X118324200Y-60325600D01*
X118324200Y-57225600D02*
X116524200Y-57225600D01*
X118324200Y-57225600D02*
X118324200Y-60325600D01*
X115010000Y-84125000D02*
X115010000Y-90275000D01*
X115010000Y-90275000D02*
X118610000Y-90275000D01*
X118610000Y-90275000D02*
X118610000Y-84125000D01*
X118610000Y-84125000D02*
X115010000Y-84125000D01*
X113910000Y-51375000D02*
X113910000Y-47975000D01*
X113910000Y-47975000D02*
X117410000Y-47975000D01*
X117410000Y-47975000D02*
X117410000Y-51375000D01*
X117410000Y-51375000D02*
X113910000Y-51375000D01*
X119160000Y-47775000D02*
X120860000Y-47775000D01*
X120860000Y-47775000D02*
X120860000Y-51675000D01*
X120860000Y-51675000D02*
X119160000Y-51675000D01*
X119160000Y-51675000D02*
X119160000Y-47775000D01*
X119110000Y-52250000D02*
X122210000Y-52250000D01*
X119110000Y-52250000D02*
X119110000Y-54050000D01*
X122210000Y-54050000D02*
X122210000Y-52250000D01*
X122210000Y-54050000D02*
X119110000Y-54050000D01*
X109510000Y-48600000D02*
G75*
G03X109510000Y-48600000I-2450000J0D01*
G01*
X128360000Y-95100000D02*
G75*
G03X128360000Y-95100000I-2450000J0D01*
G01*
M02*
