G04 #@! TF.FileFunction,Other,Fab,Bot*
%FSLAX46Y46*%
G04 Gerber Fmt 4.6, Leading zero omitted, Abs format (unit mm)*
G04 Created by KiCad (PCBNEW 4.0.7-e2-6376~61~ubuntu18.04.1) date Thu Mar 14 12:40:49 2019*
%MOMM*%
%LPD*%
G01*
G04 APERTURE LIST*
%ADD10C,0.100000*%
%ADD11C,0.150000*%
%ADD12C,0.075000*%
%ADD13C,0.105000*%
G04 APERTURE END LIST*
D10*
X115300000Y-56500000D02*
X115300000Y-55260000D01*
X113300000Y-56500000D02*
X115300000Y-56500000D01*
X113300000Y-55260000D02*
X113300000Y-56500000D01*
X115300000Y-55260000D02*
X113300000Y-55260000D01*
X108356400Y-81026000D02*
X110261400Y-81026000D01*
X110261400Y-81026000D02*
X110261400Y-50546000D01*
X110261400Y-50546000D02*
X107721400Y-50546000D01*
X107721400Y-50546000D02*
X107721400Y-80391000D01*
X107721400Y-80391000D02*
X108356400Y-81026000D01*
X106730800Y-44119800D02*
X106730800Y-46024800D01*
X106730800Y-46024800D02*
X121970800Y-46024800D01*
X121970800Y-46024800D02*
X121970800Y-43484800D01*
X121970800Y-43484800D02*
X107365800Y-43484800D01*
X107365800Y-43484800D02*
X106730800Y-44119800D01*
X117368000Y-54686000D02*
X119868000Y-54686000D01*
X117368000Y-51486000D02*
X117368000Y-54686000D01*
X119868000Y-51486000D02*
X117368000Y-51486000D01*
X119868000Y-54686000D02*
X119868000Y-51486000D01*
X115046000Y-49896000D02*
X115046000Y-48656000D01*
X113046000Y-49896000D02*
X115046000Y-49896000D01*
X113046000Y-48656000D02*
X113046000Y-49896000D01*
X115046000Y-48656000D02*
X113046000Y-48656000D01*
X112252000Y-106030000D02*
X112252000Y-104790000D01*
X110252000Y-106030000D02*
X112252000Y-106030000D01*
X110252000Y-104790000D02*
X110252000Y-106030000D01*
X112252000Y-104790000D02*
X110252000Y-104790000D01*
X117206000Y-78756000D02*
X115966000Y-78756000D01*
X117206000Y-80756000D02*
X117206000Y-78756000D01*
X115966000Y-80756000D02*
X117206000Y-80756000D01*
X115966000Y-78756000D02*
X115966000Y-80756000D01*
X118060000Y-76055000D02*
X118060000Y-77295000D01*
X120060000Y-76055000D02*
X118060000Y-76055000D01*
X120060000Y-77295000D02*
X120060000Y-76055000D01*
X118060000Y-77295000D02*
X120060000Y-77295000D01*
X111597200Y-79613000D02*
X112837200Y-79613000D01*
X111597200Y-77613000D02*
X111597200Y-79613000D01*
X112837200Y-77613000D02*
X111597200Y-77613000D01*
X112837200Y-79613000D02*
X112837200Y-77613000D01*
D11*
X113665000Y-54330600D02*
X115620800Y-54330600D01*
X115620800Y-54330600D02*
X115620800Y-51333400D01*
X115620800Y-51333400D02*
X112953800Y-51333400D01*
X112953800Y-51333400D02*
X112953800Y-53289200D01*
X112953800Y-53289200D02*
X113665000Y-54330600D01*
D10*
X123571000Y-81026000D02*
X125476000Y-81026000D01*
X125476000Y-81026000D02*
X125476000Y-53086000D01*
X125476000Y-53086000D02*
X122936000Y-53086000D01*
X122936000Y-53086000D02*
X122936000Y-80391000D01*
X122936000Y-80391000D02*
X123571000Y-81026000D01*
X123550000Y-53070000D02*
X125455000Y-53070000D01*
X125455000Y-53070000D02*
X125455000Y-50530000D01*
X125455000Y-50530000D02*
X122915000Y-50530000D01*
X122915000Y-50530000D02*
X122915000Y-52435000D01*
X122915000Y-52435000D02*
X123550000Y-53070000D01*
D11*
X115371428Y-58082381D02*
X115942857Y-58082381D01*
X115657143Y-58082381D02*
X115657143Y-57082381D01*
X115752381Y-57225238D01*
X115847619Y-57320476D01*
X115942857Y-57368095D01*
X114752381Y-57082381D02*
X114657142Y-57082381D01*
X114561904Y-57130000D01*
X114514285Y-57177619D01*
X114466666Y-57272857D01*
X114419047Y-57463333D01*
X114419047Y-57701429D01*
X114466666Y-57891905D01*
X114514285Y-57987143D01*
X114561904Y-58034762D01*
X114657142Y-58082381D01*
X114752381Y-58082381D01*
X114847619Y-58034762D01*
X114895238Y-57987143D01*
X114942857Y-57891905D01*
X114990476Y-57701429D01*
X114990476Y-57463333D01*
X114942857Y-57272857D01*
X114895238Y-57177619D01*
X114847619Y-57130000D01*
X114752381Y-57082381D01*
X113561904Y-57415714D02*
X113561904Y-58082381D01*
X113990476Y-57415714D02*
X113990476Y-57939524D01*
X113942857Y-58034762D01*
X113847619Y-58082381D01*
X113704761Y-58082381D01*
X113609523Y-58034762D01*
X113561904Y-57987143D01*
X112752380Y-57558571D02*
X113085714Y-57558571D01*
X113085714Y-58082381D02*
X113085714Y-57082381D01*
X112609523Y-57082381D01*
X114466666Y-54737143D02*
X114514285Y-54784762D01*
X114657142Y-54832381D01*
X114752380Y-54832381D01*
X114895238Y-54784762D01*
X114990476Y-54689524D01*
X115038095Y-54594286D01*
X115085714Y-54403810D01*
X115085714Y-54260952D01*
X115038095Y-54070476D01*
X114990476Y-53975238D01*
X114895238Y-53880000D01*
X114752380Y-53832381D01*
X114657142Y-53832381D01*
X114514285Y-53880000D01*
X114466666Y-53927619D01*
X113514285Y-54832381D02*
X114085714Y-54832381D01*
X113800000Y-54832381D02*
X113800000Y-53832381D01*
X113895238Y-53975238D01*
X113990476Y-54070476D01*
X114085714Y-54118095D01*
X113348543Y-49938381D02*
X113824734Y-49938381D01*
X113824734Y-48938381D01*
X113015210Y-49938381D02*
X113015210Y-48938381D01*
X113015210Y-49414571D02*
X112443781Y-49414571D01*
X112443781Y-49938381D02*
X112443781Y-48938381D01*
X112205686Y-50033619D02*
X111443781Y-50033619D01*
X110634257Y-49843143D02*
X110681876Y-49890762D01*
X110824733Y-49938381D01*
X110919971Y-49938381D01*
X111062829Y-49890762D01*
X111158067Y-49795524D01*
X111205686Y-49700286D01*
X111253305Y-49509810D01*
X111253305Y-49366952D01*
X111205686Y-49176476D01*
X111158067Y-49081238D01*
X111062829Y-48986000D01*
X110919971Y-48938381D01*
X110824733Y-48938381D01*
X110681876Y-48986000D01*
X110634257Y-49033619D01*
X110062829Y-49938381D02*
X110158067Y-49890762D01*
X110205686Y-49843143D01*
X110253305Y-49747905D01*
X110253305Y-49462190D01*
X110205686Y-49366952D01*
X110158067Y-49319333D01*
X110062829Y-49271714D01*
X109919971Y-49271714D01*
X109824733Y-49319333D01*
X109777114Y-49366952D01*
X109729495Y-49462190D01*
X109729495Y-49747905D01*
X109777114Y-49843143D01*
X109824733Y-49890762D01*
X109919971Y-49938381D01*
X110062829Y-49938381D01*
X109300924Y-49271714D02*
X109300924Y-49938381D01*
X109300924Y-49366952D02*
X109253305Y-49319333D01*
X109158067Y-49271714D01*
X109015209Y-49271714D01*
X108919971Y-49319333D01*
X108872352Y-49414571D01*
X108872352Y-49938381D01*
X108396162Y-49271714D02*
X108396162Y-49938381D01*
X108396162Y-49366952D02*
X108348543Y-49319333D01*
X108253305Y-49271714D01*
X108110447Y-49271714D01*
X108015209Y-49319333D01*
X107967590Y-49414571D01*
X107967590Y-49938381D01*
X107110447Y-49890762D02*
X107205685Y-49938381D01*
X107396162Y-49938381D01*
X107491400Y-49890762D01*
X107539019Y-49795524D01*
X107539019Y-49414571D01*
X107491400Y-49319333D01*
X107396162Y-49271714D01*
X107205685Y-49271714D01*
X107110447Y-49319333D01*
X107062828Y-49414571D01*
X107062828Y-49509810D01*
X107539019Y-49605048D01*
X106205685Y-49890762D02*
X106300923Y-49938381D01*
X106491400Y-49938381D01*
X106586638Y-49890762D01*
X106634257Y-49843143D01*
X106681876Y-49747905D01*
X106681876Y-49462190D01*
X106634257Y-49366952D01*
X106586638Y-49319333D01*
X106491400Y-49271714D01*
X106300923Y-49271714D01*
X106205685Y-49319333D01*
X105919971Y-49271714D02*
X105539019Y-49271714D01*
X105777114Y-48938381D02*
X105777114Y-49795524D01*
X105729495Y-49890762D01*
X105634257Y-49938381D01*
X105539019Y-49938381D01*
X105062828Y-49938381D02*
X105158066Y-49890762D01*
X105205685Y-49843143D01*
X105253304Y-49747905D01*
X105253304Y-49462190D01*
X105205685Y-49366952D01*
X105158066Y-49319333D01*
X105062828Y-49271714D01*
X104919970Y-49271714D01*
X104824732Y-49319333D01*
X104777113Y-49366952D01*
X104729494Y-49462190D01*
X104729494Y-49747905D01*
X104777113Y-49843143D01*
X104824732Y-49890762D01*
X104919970Y-49938381D01*
X105062828Y-49938381D01*
X104300923Y-49938381D02*
X104300923Y-49271714D01*
X104300923Y-49462190D02*
X104253304Y-49366952D01*
X104205685Y-49319333D01*
X104110447Y-49271714D01*
X104015208Y-49271714D01*
X108443781Y-65452667D02*
X109158067Y-65452667D01*
X109300924Y-65405047D01*
X109396162Y-65309809D01*
X109443781Y-65166952D01*
X109443781Y-65071714D01*
X108777114Y-66357429D02*
X109443781Y-66357429D01*
X108396162Y-66119333D02*
X109110448Y-65881238D01*
X109110448Y-66500286D01*
X122483181Y-43159562D02*
X123292705Y-43159562D01*
X123387943Y-43207181D01*
X123435562Y-43254800D01*
X123483181Y-43350038D01*
X123483181Y-43540515D01*
X123435562Y-43635753D01*
X123387943Y-43683372D01*
X123292705Y-43730991D01*
X122483181Y-43730991D01*
X123197467Y-44159562D02*
X123197467Y-44635753D01*
X123483181Y-44064324D02*
X122483181Y-44397657D01*
X123483181Y-44730991D01*
X123483181Y-45635753D02*
X123006990Y-45302419D01*
X123483181Y-45064324D02*
X122483181Y-45064324D01*
X122483181Y-45445277D01*
X122530800Y-45540515D01*
X122578419Y-45588134D01*
X122673657Y-45635753D01*
X122816514Y-45635753D01*
X122911752Y-45588134D01*
X122959371Y-45540515D01*
X123006990Y-45445277D01*
X123006990Y-45064324D01*
X122483181Y-45921467D02*
X122483181Y-46492896D01*
X123483181Y-46207181D02*
X122483181Y-46207181D01*
X114684133Y-44207181D02*
X114684133Y-44921467D01*
X114731753Y-45064324D01*
X114826991Y-45159562D01*
X114969848Y-45207181D01*
X115065086Y-45207181D01*
X113731752Y-44207181D02*
X114207943Y-44207181D01*
X114255562Y-44683371D01*
X114207943Y-44635752D01*
X114112705Y-44588133D01*
X113874609Y-44588133D01*
X113779371Y-44635752D01*
X113731752Y-44683371D01*
X113684133Y-44778610D01*
X113684133Y-45016705D01*
X113731752Y-45111943D01*
X113779371Y-45159562D01*
X113874609Y-45207181D01*
X114112705Y-45207181D01*
X114207943Y-45159562D01*
X114255562Y-45111943D01*
X115465619Y-51109810D02*
X115418000Y-51157429D01*
X115370381Y-51252667D01*
X115370381Y-51490763D01*
X115418000Y-51586001D01*
X115465619Y-51633620D01*
X115560857Y-51681239D01*
X115656095Y-51681239D01*
X115798952Y-51633620D01*
X116370381Y-51062191D01*
X116370381Y-51681239D01*
X116275143Y-52109810D02*
X116322762Y-52157429D01*
X116370381Y-52109810D01*
X116322762Y-52062191D01*
X116275143Y-52109810D01*
X116370381Y-52109810D01*
X115465619Y-52538381D02*
X115418000Y-52586000D01*
X115370381Y-52681238D01*
X115370381Y-52919334D01*
X115418000Y-53014572D01*
X115465619Y-53062191D01*
X115560857Y-53109810D01*
X115656095Y-53109810D01*
X115798952Y-53062191D01*
X116370381Y-52490762D01*
X116370381Y-53109810D01*
X115703714Y-53966953D02*
X116370381Y-53966953D01*
X115703714Y-53538381D02*
X116227524Y-53538381D01*
X116322762Y-53586000D01*
X116370381Y-53681238D01*
X116370381Y-53824096D01*
X116322762Y-53919334D01*
X116275143Y-53966953D01*
X116370381Y-54443143D02*
X115370381Y-54443143D01*
X115846571Y-54443143D02*
X115846571Y-55014572D01*
X116370381Y-55014572D02*
X115370381Y-55014572D01*
D12*
X118844190Y-53002667D02*
X118844190Y-52764572D01*
X118344190Y-52764572D01*
X118844190Y-53431238D02*
X118844190Y-53145524D01*
X118844190Y-53288381D02*
X118344190Y-53288381D01*
X118415619Y-53240762D01*
X118463238Y-53193143D01*
X118487048Y-53145524D01*
D11*
X115688857Y-50573619D02*
X115641238Y-50526000D01*
X115546000Y-50478381D01*
X115307904Y-50478381D01*
X115212666Y-50526000D01*
X115165047Y-50573619D01*
X115117428Y-50668857D01*
X115117428Y-50764095D01*
X115165047Y-50906952D01*
X115736476Y-51478381D01*
X115117428Y-51478381D01*
X114736476Y-50573619D02*
X114688857Y-50526000D01*
X114593619Y-50478381D01*
X114355523Y-50478381D01*
X114260285Y-50526000D01*
X114212666Y-50573619D01*
X114165047Y-50668857D01*
X114165047Y-50764095D01*
X114212666Y-50906952D01*
X114784095Y-51478381D01*
X114165047Y-51478381D01*
X113307904Y-50811714D02*
X113307904Y-51478381D01*
X113736476Y-50811714D02*
X113736476Y-51335524D01*
X113688857Y-51430762D01*
X113593619Y-51478381D01*
X113450761Y-51478381D01*
X113355523Y-51430762D01*
X113307904Y-51383143D01*
X112498380Y-50954571D02*
X112831714Y-50954571D01*
X112831714Y-51478381D02*
X112831714Y-50478381D01*
X112355523Y-50478381D01*
X114212666Y-48133143D02*
X114260285Y-48180762D01*
X114403142Y-48228381D01*
X114498380Y-48228381D01*
X114641238Y-48180762D01*
X114736476Y-48085524D01*
X114784095Y-47990286D01*
X114831714Y-47799810D01*
X114831714Y-47656952D01*
X114784095Y-47466476D01*
X114736476Y-47371238D01*
X114641238Y-47276000D01*
X114498380Y-47228381D01*
X114403142Y-47228381D01*
X114260285Y-47276000D01*
X114212666Y-47323619D01*
X113831714Y-47323619D02*
X113784095Y-47276000D01*
X113688857Y-47228381D01*
X113450761Y-47228381D01*
X113355523Y-47276000D01*
X113307904Y-47323619D01*
X113260285Y-47418857D01*
X113260285Y-47514095D01*
X113307904Y-47656952D01*
X113879333Y-48228381D01*
X113260285Y-48228381D01*
X111942476Y-107612381D02*
X112513905Y-107612381D01*
X112228191Y-107612381D02*
X112228191Y-106612381D01*
X112323429Y-106755238D01*
X112418667Y-106850476D01*
X112513905Y-106898095D01*
X111323429Y-106612381D02*
X111228190Y-106612381D01*
X111132952Y-106660000D01*
X111085333Y-106707619D01*
X111037714Y-106802857D01*
X110990095Y-106993333D01*
X110990095Y-107231429D01*
X111037714Y-107421905D01*
X111085333Y-107517143D01*
X111132952Y-107564762D01*
X111228190Y-107612381D01*
X111323429Y-107612381D01*
X111418667Y-107564762D01*
X111466286Y-107517143D01*
X111513905Y-107421905D01*
X111561524Y-107231429D01*
X111561524Y-106993333D01*
X111513905Y-106802857D01*
X111466286Y-106707619D01*
X111418667Y-106660000D01*
X111323429Y-106612381D01*
X110561524Y-107612381D02*
X110561524Y-106612381D01*
X109990095Y-107612381D02*
X110418667Y-107040952D01*
X109990095Y-106612381D02*
X110561524Y-107183810D01*
D12*
X111335333Y-105636190D02*
X111502000Y-105398095D01*
X111621047Y-105636190D02*
X111621047Y-105136190D01*
X111430571Y-105136190D01*
X111382952Y-105160000D01*
X111359143Y-105183810D01*
X111335333Y-105231429D01*
X111335333Y-105302857D01*
X111359143Y-105350476D01*
X111382952Y-105374286D01*
X111430571Y-105398095D01*
X111621047Y-105398095D01*
X110859143Y-105636190D02*
X111144857Y-105636190D01*
X111002000Y-105636190D02*
X111002000Y-105136190D01*
X111049619Y-105207619D01*
X111097238Y-105255238D01*
X111144857Y-105279048D01*
D11*
X118788381Y-79065524D02*
X118788381Y-78494095D01*
X118788381Y-78779809D02*
X117788381Y-78779809D01*
X117931238Y-78684571D01*
X118026476Y-78589333D01*
X118074095Y-78494095D01*
X117788381Y-79684571D02*
X117788381Y-79779810D01*
X117836000Y-79875048D01*
X117883619Y-79922667D01*
X117978857Y-79970286D01*
X118169333Y-80017905D01*
X118407429Y-80017905D01*
X118597905Y-79970286D01*
X118693143Y-79922667D01*
X118740762Y-79875048D01*
X118788381Y-79779810D01*
X118788381Y-79684571D01*
X118740762Y-79589333D01*
X118693143Y-79541714D01*
X118597905Y-79494095D01*
X118407429Y-79446476D01*
X118169333Y-79446476D01*
X117978857Y-79494095D01*
X117883619Y-79541714D01*
X117836000Y-79589333D01*
X117788381Y-79684571D01*
X118788381Y-80446476D02*
X117788381Y-80446476D01*
X118788381Y-81017905D02*
X118216952Y-80589333D01*
X117788381Y-81017905D02*
X118359810Y-80446476D01*
D12*
X116812190Y-79672667D02*
X116574095Y-79506000D01*
X116812190Y-79386953D02*
X116312190Y-79386953D01*
X116312190Y-79577429D01*
X116336000Y-79625048D01*
X116359810Y-79648857D01*
X116407429Y-79672667D01*
X116478857Y-79672667D01*
X116526476Y-79648857D01*
X116550286Y-79625048D01*
X116574095Y-79577429D01*
X116574095Y-79386953D01*
X116478857Y-80101238D02*
X116812190Y-80101238D01*
X116288381Y-79982191D02*
X116645524Y-79863143D01*
X116645524Y-80172667D01*
D11*
X120345714Y-74377381D02*
X119726666Y-74377381D01*
X120060000Y-74758333D01*
X119917142Y-74758333D01*
X119821904Y-74805952D01*
X119774285Y-74853571D01*
X119726666Y-74948810D01*
X119726666Y-75186905D01*
X119774285Y-75282143D01*
X119821904Y-75329762D01*
X119917142Y-75377381D01*
X120202857Y-75377381D01*
X120298095Y-75329762D01*
X120345714Y-75282143D01*
X119393333Y-74377381D02*
X118774285Y-74377381D01*
X119107619Y-74758333D01*
X118964761Y-74758333D01*
X118869523Y-74805952D01*
X118821904Y-74853571D01*
X118774285Y-74948810D01*
X118774285Y-75186905D01*
X118821904Y-75282143D01*
X118869523Y-75329762D01*
X118964761Y-75377381D01*
X119250476Y-75377381D01*
X119345714Y-75329762D01*
X119393333Y-75282143D01*
X118155238Y-74377381D02*
X118059999Y-74377381D01*
X117964761Y-74425000D01*
X117917142Y-74472619D01*
X117869523Y-74567857D01*
X117821904Y-74758333D01*
X117821904Y-74996429D01*
X117869523Y-75186905D01*
X117917142Y-75282143D01*
X117964761Y-75329762D01*
X118059999Y-75377381D01*
X118155238Y-75377381D01*
X118250476Y-75329762D01*
X118298095Y-75282143D01*
X118345714Y-75186905D01*
X118393333Y-74996429D01*
X118393333Y-74758333D01*
X118345714Y-74567857D01*
X118298095Y-74472619D01*
X118250476Y-74425000D01*
X118155238Y-74377381D01*
D12*
X119143333Y-76901190D02*
X119310000Y-76663095D01*
X119429047Y-76901190D02*
X119429047Y-76401190D01*
X119238571Y-76401190D01*
X119190952Y-76425000D01*
X119167143Y-76448810D01*
X119143333Y-76496429D01*
X119143333Y-76567857D01*
X119167143Y-76615476D01*
X119190952Y-76639286D01*
X119238571Y-76663095D01*
X119429047Y-76663095D01*
X118976666Y-76401190D02*
X118643333Y-76401190D01*
X118857619Y-76901190D01*
D11*
X109919581Y-77327286D02*
X109919581Y-77946334D01*
X110300533Y-77613000D01*
X110300533Y-77755858D01*
X110348152Y-77851096D01*
X110395771Y-77898715D01*
X110491010Y-77946334D01*
X110729105Y-77946334D01*
X110824343Y-77898715D01*
X110871962Y-77851096D01*
X110919581Y-77755858D01*
X110919581Y-77470143D01*
X110871962Y-77374905D01*
X110824343Y-77327286D01*
X109919581Y-78279667D02*
X109919581Y-78898715D01*
X110300533Y-78565381D01*
X110300533Y-78708239D01*
X110348152Y-78803477D01*
X110395771Y-78851096D01*
X110491010Y-78898715D01*
X110729105Y-78898715D01*
X110824343Y-78851096D01*
X110871962Y-78803477D01*
X110919581Y-78708239D01*
X110919581Y-78422524D01*
X110871962Y-78327286D01*
X110824343Y-78279667D01*
X109919581Y-79517762D02*
X109919581Y-79613001D01*
X109967200Y-79708239D01*
X110014819Y-79755858D01*
X110110057Y-79803477D01*
X110300533Y-79851096D01*
X110538629Y-79851096D01*
X110729105Y-79803477D01*
X110824343Y-79755858D01*
X110871962Y-79708239D01*
X110919581Y-79613001D01*
X110919581Y-79517762D01*
X110871962Y-79422524D01*
X110824343Y-79374905D01*
X110729105Y-79327286D01*
X110538629Y-79279667D01*
X110300533Y-79279667D01*
X110110057Y-79327286D01*
X110014819Y-79374905D01*
X109967200Y-79422524D01*
X109919581Y-79517762D01*
D12*
X112443390Y-78529667D02*
X112205295Y-78363000D01*
X112443390Y-78243953D02*
X111943390Y-78243953D01*
X111943390Y-78434429D01*
X111967200Y-78482048D01*
X111991010Y-78505857D01*
X112038629Y-78529667D01*
X112110057Y-78529667D01*
X112157676Y-78505857D01*
X112181486Y-78482048D01*
X112205295Y-78434429D01*
X112205295Y-78243953D01*
X112157676Y-78815381D02*
X112133867Y-78767762D01*
X112110057Y-78743953D01*
X112062438Y-78720143D01*
X112038629Y-78720143D01*
X111991010Y-78743953D01*
X111967200Y-78767762D01*
X111943390Y-78815381D01*
X111943390Y-78910619D01*
X111967200Y-78958238D01*
X111991010Y-78982048D01*
X112038629Y-79005857D01*
X112062438Y-79005857D01*
X112110057Y-78982048D01*
X112133867Y-78958238D01*
X112157676Y-78910619D01*
X112157676Y-78815381D01*
X112181486Y-78767762D01*
X112205295Y-78743953D01*
X112252914Y-78720143D01*
X112348152Y-78720143D01*
X112395771Y-78743953D01*
X112419581Y-78767762D01*
X112443390Y-78815381D01*
X112443390Y-78910619D01*
X112419581Y-78958238D01*
X112395771Y-78982048D01*
X112348152Y-79005857D01*
X112252914Y-79005857D01*
X112205295Y-78982048D01*
X112181486Y-78958238D01*
X112157676Y-78910619D01*
D11*
X118276190Y-50634381D02*
X118609524Y-50158190D01*
X118847619Y-50634381D02*
X118847619Y-49634381D01*
X118466666Y-49634381D01*
X118371428Y-49682000D01*
X118323809Y-49729619D01*
X118276190Y-49824857D01*
X118276190Y-49967714D01*
X118323809Y-50062952D01*
X118371428Y-50110571D01*
X118466666Y-50158190D01*
X118847619Y-50158190D01*
X117847619Y-50634381D02*
X117847619Y-49634381D01*
X117466666Y-49634381D01*
X117371428Y-49682000D01*
X117323809Y-49729619D01*
X117276190Y-49824857D01*
X117276190Y-49967714D01*
X117323809Y-50062952D01*
X117371428Y-50110571D01*
X117466666Y-50158190D01*
X117847619Y-50158190D01*
X116419047Y-49634381D02*
X116609524Y-49634381D01*
X116704762Y-49682000D01*
X116752381Y-49729619D01*
X116847619Y-49872476D01*
X116895238Y-50062952D01*
X116895238Y-50443905D01*
X116847619Y-50539143D01*
X116800000Y-50586762D01*
X116704762Y-50634381D01*
X116514285Y-50634381D01*
X116419047Y-50586762D01*
X116371428Y-50539143D01*
X116323809Y-50443905D01*
X116323809Y-50205810D01*
X116371428Y-50110571D01*
X116419047Y-50062952D01*
X116514285Y-50015333D01*
X116704762Y-50015333D01*
X116800000Y-50062952D01*
X116847619Y-50110571D01*
X116895238Y-50205810D01*
X115704762Y-49634381D02*
X115609523Y-49634381D01*
X115514285Y-49682000D01*
X115466666Y-49729619D01*
X115419047Y-49824857D01*
X115371428Y-50015333D01*
X115371428Y-50253429D01*
X115419047Y-50443905D01*
X115466666Y-50539143D01*
X115514285Y-50586762D01*
X115609523Y-50634381D01*
X115704762Y-50634381D01*
X115800000Y-50586762D01*
X115847619Y-50539143D01*
X115895238Y-50443905D01*
X115942857Y-50253429D01*
X115942857Y-50015333D01*
X115895238Y-49824857D01*
X115847619Y-49729619D01*
X115800000Y-49682000D01*
X115704762Y-49634381D01*
X114514285Y-49967714D02*
X114514285Y-50634381D01*
X114752381Y-49586762D02*
X114990476Y-50301048D01*
X114371428Y-50301048D01*
X113990476Y-50634381D02*
X113990476Y-49634381D01*
X113419047Y-50634381D02*
X113847619Y-50062952D01*
X113419047Y-49634381D02*
X113990476Y-50205810D01*
X113085714Y-49634381D02*
X112466666Y-49634381D01*
X112800000Y-50015333D01*
X112657142Y-50015333D01*
X112561904Y-50062952D01*
X112514285Y-50110571D01*
X112466666Y-50205810D01*
X112466666Y-50443905D01*
X112514285Y-50539143D01*
X112561904Y-50586762D01*
X112657142Y-50634381D01*
X112942857Y-50634381D01*
X113038095Y-50586762D01*
X113085714Y-50539143D01*
X112133333Y-49634381D02*
X111514285Y-49634381D01*
X111847619Y-50015333D01*
X111704761Y-50015333D01*
X111609523Y-50062952D01*
X111561904Y-50110571D01*
X111514285Y-50205810D01*
X111514285Y-50443905D01*
X111561904Y-50539143D01*
X111609523Y-50586762D01*
X111704761Y-50634381D01*
X111990476Y-50634381D01*
X112085714Y-50586762D01*
X112133333Y-50539143D01*
X110561904Y-50634381D02*
X111133333Y-50634381D01*
X110847619Y-50634381D02*
X110847619Y-49634381D01*
X110942857Y-49777238D01*
X111038095Y-49872476D01*
X111133333Y-49920095D01*
X110180952Y-50348667D02*
X109704761Y-50348667D01*
X110276190Y-50634381D02*
X109942857Y-49634381D01*
X109609523Y-50634381D01*
D13*
X114833333Y-52448667D02*
X114833333Y-53015333D01*
X114800000Y-53082000D01*
X114766667Y-53115333D01*
X114700000Y-53148667D01*
X114566667Y-53148667D01*
X114500000Y-53115333D01*
X114466667Y-53082000D01*
X114433333Y-53015333D01*
X114433333Y-52448667D01*
X114166667Y-52448667D02*
X113733334Y-52448667D01*
X113966667Y-52715333D01*
X113866667Y-52715333D01*
X113800000Y-52748667D01*
X113766667Y-52782000D01*
X113733334Y-52848667D01*
X113733334Y-53015333D01*
X113766667Y-53082000D01*
X113800000Y-53115333D01*
X113866667Y-53148667D01*
X114066667Y-53148667D01*
X114133334Y-53115333D01*
X114166667Y-53082000D01*
D11*
X128563143Y-52478381D02*
X128896477Y-52002190D01*
X129134572Y-52478381D02*
X129134572Y-51478381D01*
X128753619Y-51478381D01*
X128658381Y-51526000D01*
X128610762Y-51573619D01*
X128563143Y-51668857D01*
X128563143Y-51811714D01*
X128610762Y-51906952D01*
X128658381Y-51954571D01*
X128753619Y-52002190D01*
X129134572Y-52002190D01*
X128134572Y-52478381D02*
X128134572Y-51478381D01*
X128134572Y-51954571D02*
X127563143Y-51954571D01*
X127563143Y-52478381D02*
X127563143Y-51478381D01*
X127325048Y-52573619D02*
X126563143Y-52573619D01*
X125753619Y-52383143D02*
X125801238Y-52430762D01*
X125944095Y-52478381D01*
X126039333Y-52478381D01*
X126182191Y-52430762D01*
X126277429Y-52335524D01*
X126325048Y-52240286D01*
X126372667Y-52049810D01*
X126372667Y-51906952D01*
X126325048Y-51716476D01*
X126277429Y-51621238D01*
X126182191Y-51526000D01*
X126039333Y-51478381D01*
X125944095Y-51478381D01*
X125801238Y-51526000D01*
X125753619Y-51573619D01*
X125182191Y-52478381D02*
X125277429Y-52430762D01*
X125325048Y-52383143D01*
X125372667Y-52287905D01*
X125372667Y-52002190D01*
X125325048Y-51906952D01*
X125277429Y-51859333D01*
X125182191Y-51811714D01*
X125039333Y-51811714D01*
X124944095Y-51859333D01*
X124896476Y-51906952D01*
X124848857Y-52002190D01*
X124848857Y-52287905D01*
X124896476Y-52383143D01*
X124944095Y-52430762D01*
X125039333Y-52478381D01*
X125182191Y-52478381D01*
X124420286Y-51811714D02*
X124420286Y-52478381D01*
X124420286Y-51906952D02*
X124372667Y-51859333D01*
X124277429Y-51811714D01*
X124134571Y-51811714D01*
X124039333Y-51859333D01*
X123991714Y-51954571D01*
X123991714Y-52478381D01*
X123515524Y-51811714D02*
X123515524Y-52478381D01*
X123515524Y-51906952D02*
X123467905Y-51859333D01*
X123372667Y-51811714D01*
X123229809Y-51811714D01*
X123134571Y-51859333D01*
X123086952Y-51954571D01*
X123086952Y-52478381D01*
X122229809Y-52430762D02*
X122325047Y-52478381D01*
X122515524Y-52478381D01*
X122610762Y-52430762D01*
X122658381Y-52335524D01*
X122658381Y-51954571D01*
X122610762Y-51859333D01*
X122515524Y-51811714D01*
X122325047Y-51811714D01*
X122229809Y-51859333D01*
X122182190Y-51954571D01*
X122182190Y-52049810D01*
X122658381Y-52145048D01*
X121325047Y-52430762D02*
X121420285Y-52478381D01*
X121610762Y-52478381D01*
X121706000Y-52430762D01*
X121753619Y-52383143D01*
X121801238Y-52287905D01*
X121801238Y-52002190D01*
X121753619Y-51906952D01*
X121706000Y-51859333D01*
X121610762Y-51811714D01*
X121420285Y-51811714D01*
X121325047Y-51859333D01*
X121039333Y-51811714D02*
X120658381Y-51811714D01*
X120896476Y-51478381D02*
X120896476Y-52335524D01*
X120848857Y-52430762D01*
X120753619Y-52478381D01*
X120658381Y-52478381D01*
X120182190Y-52478381D02*
X120277428Y-52430762D01*
X120325047Y-52383143D01*
X120372666Y-52287905D01*
X120372666Y-52002190D01*
X120325047Y-51906952D01*
X120277428Y-51859333D01*
X120182190Y-51811714D01*
X120039332Y-51811714D01*
X119944094Y-51859333D01*
X119896475Y-51906952D01*
X119848856Y-52002190D01*
X119848856Y-52287905D01*
X119896475Y-52383143D01*
X119944094Y-52430762D01*
X120039332Y-52478381D01*
X120182190Y-52478381D01*
X119420285Y-52478381D02*
X119420285Y-51811714D01*
X119420285Y-52002190D02*
X119372666Y-51906952D01*
X119325047Y-51859333D01*
X119229809Y-51811714D01*
X119134570Y-51811714D01*
X123658381Y-66722667D02*
X124372667Y-66722667D01*
X124515524Y-66675047D01*
X124610762Y-66579809D01*
X124658381Y-66436952D01*
X124658381Y-66341714D01*
X124086952Y-67341714D02*
X124039333Y-67246476D01*
X123991714Y-67198857D01*
X123896476Y-67151238D01*
X123848857Y-67151238D01*
X123753619Y-67198857D01*
X123706000Y-67246476D01*
X123658381Y-67341714D01*
X123658381Y-67532191D01*
X123706000Y-67627429D01*
X123753619Y-67675048D01*
X123848857Y-67722667D01*
X123896476Y-67722667D01*
X123991714Y-67675048D01*
X124039333Y-67627429D01*
X124086952Y-67532191D01*
X124086952Y-67341714D01*
X124134571Y-67246476D01*
X124182190Y-67198857D01*
X124277429Y-67151238D01*
X124467905Y-67151238D01*
X124563143Y-67198857D01*
X124610762Y-67246476D01*
X124658381Y-67341714D01*
X124658381Y-67532191D01*
X124610762Y-67627429D01*
X124563143Y-67675048D01*
X124467905Y-67722667D01*
X124277429Y-67722667D01*
X124182190Y-67675048D01*
X124134571Y-67627429D01*
X124086952Y-67532191D01*
X125280238Y-48922381D02*
X124946905Y-49922381D01*
X124613571Y-48922381D01*
X124280238Y-49922381D02*
X124280238Y-48922381D01*
X123804048Y-49922381D02*
X123804048Y-48922381D01*
X123232619Y-49922381D01*
X123232619Y-48922381D01*
X123637381Y-51466667D02*
X124351667Y-51466667D01*
X124494524Y-51419047D01*
X124589762Y-51323809D01*
X124637381Y-51180952D01*
X124637381Y-51085714D01*
X123637381Y-51847619D02*
X123637381Y-52514286D01*
X124637381Y-52085714D01*
M02*
