G04 #@! TF.FileFunction,Paste,Top*
%FSLAX46Y46*%
G04 Gerber Fmt 4.6, Leading zero omitted, Abs format (unit mm)*
G04 Created by KiCad (PCBNEW 4.0.7-e2-6376~61~ubuntu18.04.1) date Thu Mar 14 12:40:49 2019*
%MOMM*%
%LPD*%
G01*
G04 APERTURE LIST*
%ADD10C,0.100000*%
%ADD11R,1.950000X1.050000*%
%ADD12R,1.000000X1.000000*%
%ADD13R,2.200000X1.000000*%
%ADD14R,1.500000X1.400000*%
%ADD15O,1.905000X0.449580*%
%ADD16R,1.250000X1.000000*%
%ADD17R,1.000000X1.250000*%
%ADD18R,1.200000X1.200000*%
%ADD19R,1.300000X0.700000*%
%ADD20R,0.800000X0.900000*%
%ADD21R,0.700000X1.300000*%
G04 APERTURE END LIST*
D10*
G36*
X115054555Y-61953666D02*
X115443464Y-61564757D01*
X116574835Y-62696128D01*
X116185926Y-63085037D01*
X115054555Y-61953666D01*
X115054555Y-61953666D01*
G37*
G36*
X114488870Y-62519352D02*
X114877779Y-62130443D01*
X116009150Y-63261814D01*
X115620241Y-63650723D01*
X114488870Y-62519352D01*
X114488870Y-62519352D01*
G37*
G36*
X113923184Y-63085037D02*
X114312093Y-62696128D01*
X115443464Y-63827499D01*
X115054555Y-64216408D01*
X113923184Y-63085037D01*
X113923184Y-63085037D01*
G37*
G36*
X113357499Y-63650722D02*
X113746408Y-63261813D01*
X114877779Y-64393184D01*
X114488870Y-64782093D01*
X113357499Y-63650722D01*
X113357499Y-63650722D01*
G37*
G36*
X112791813Y-64216408D02*
X113180722Y-63827499D01*
X114312093Y-64958870D01*
X113923184Y-65347779D01*
X112791813Y-64216408D01*
X112791813Y-64216408D01*
G37*
G36*
X112226128Y-64782093D02*
X112615037Y-64393184D01*
X113746408Y-65524555D01*
X113357499Y-65913464D01*
X112226128Y-64782093D01*
X112226128Y-64782093D01*
G37*
G36*
X111660443Y-65347779D02*
X112049352Y-64958870D01*
X113180723Y-66090241D01*
X112791814Y-66479150D01*
X111660443Y-65347779D01*
X111660443Y-65347779D01*
G37*
G36*
X111094757Y-65913464D02*
X111483666Y-65524555D01*
X112615037Y-66655926D01*
X112226128Y-67044835D01*
X111094757Y-65913464D01*
X111094757Y-65913464D01*
G37*
G36*
X111483666Y-69095445D02*
X111094757Y-68706536D01*
X112226128Y-67575165D01*
X112615037Y-67964074D01*
X111483666Y-69095445D01*
X111483666Y-69095445D01*
G37*
G36*
X112049352Y-69661130D02*
X111660443Y-69272221D01*
X112791814Y-68140850D01*
X113180723Y-68529759D01*
X112049352Y-69661130D01*
X112049352Y-69661130D01*
G37*
G36*
X112615037Y-70226816D02*
X112226128Y-69837907D01*
X113357499Y-68706536D01*
X113746408Y-69095445D01*
X112615037Y-70226816D01*
X112615037Y-70226816D01*
G37*
G36*
X113180722Y-70792501D02*
X112791813Y-70403592D01*
X113923184Y-69272221D01*
X114312093Y-69661130D01*
X113180722Y-70792501D01*
X113180722Y-70792501D01*
G37*
G36*
X113746408Y-71358187D02*
X113357499Y-70969278D01*
X114488870Y-69837907D01*
X114877779Y-70226816D01*
X113746408Y-71358187D01*
X113746408Y-71358187D01*
G37*
G36*
X114312093Y-71923872D02*
X113923184Y-71534963D01*
X115054555Y-70403592D01*
X115443464Y-70792501D01*
X114312093Y-71923872D01*
X114312093Y-71923872D01*
G37*
G36*
X114877779Y-72489557D02*
X114488870Y-72100648D01*
X115620241Y-70969277D01*
X116009150Y-71358186D01*
X114877779Y-72489557D01*
X114877779Y-72489557D01*
G37*
G36*
X115443464Y-73055243D02*
X115054555Y-72666334D01*
X116185926Y-71534963D01*
X116574835Y-71923872D01*
X115443464Y-73055243D01*
X115443464Y-73055243D01*
G37*
G36*
X117105165Y-71923872D02*
X117494074Y-71534963D01*
X118625445Y-72666334D01*
X118236536Y-73055243D01*
X117105165Y-71923872D01*
X117105165Y-71923872D01*
G37*
G36*
X117670850Y-71358186D02*
X118059759Y-70969277D01*
X119191130Y-72100648D01*
X118802221Y-72489557D01*
X117670850Y-71358186D01*
X117670850Y-71358186D01*
G37*
G36*
X118236536Y-70792501D02*
X118625445Y-70403592D01*
X119756816Y-71534963D01*
X119367907Y-71923872D01*
X118236536Y-70792501D01*
X118236536Y-70792501D01*
G37*
G36*
X118802221Y-70226816D02*
X119191130Y-69837907D01*
X120322501Y-70969278D01*
X119933592Y-71358187D01*
X118802221Y-70226816D01*
X118802221Y-70226816D01*
G37*
G36*
X119367907Y-69661130D02*
X119756816Y-69272221D01*
X120888187Y-70403592D01*
X120499278Y-70792501D01*
X119367907Y-69661130D01*
X119367907Y-69661130D01*
G37*
G36*
X119933592Y-69095445D02*
X120322501Y-68706536D01*
X121453872Y-69837907D01*
X121064963Y-70226816D01*
X119933592Y-69095445D01*
X119933592Y-69095445D01*
G37*
G36*
X120499277Y-68529759D02*
X120888186Y-68140850D01*
X122019557Y-69272221D01*
X121630648Y-69661130D01*
X120499277Y-68529759D01*
X120499277Y-68529759D01*
G37*
G36*
X121064963Y-67964074D02*
X121453872Y-67575165D01*
X122585243Y-68706536D01*
X122196334Y-69095445D01*
X121064963Y-67964074D01*
X121064963Y-67964074D01*
G37*
G36*
X121453872Y-67044835D02*
X121064963Y-66655926D01*
X122196334Y-65524555D01*
X122585243Y-65913464D01*
X121453872Y-67044835D01*
X121453872Y-67044835D01*
G37*
G36*
X120888186Y-66479150D02*
X120499277Y-66090241D01*
X121630648Y-64958870D01*
X122019557Y-65347779D01*
X120888186Y-66479150D01*
X120888186Y-66479150D01*
G37*
G36*
X120322501Y-65913464D02*
X119933592Y-65524555D01*
X121064963Y-64393184D01*
X121453872Y-64782093D01*
X120322501Y-65913464D01*
X120322501Y-65913464D01*
G37*
G36*
X119756816Y-65347779D02*
X119367907Y-64958870D01*
X120499278Y-63827499D01*
X120888187Y-64216408D01*
X119756816Y-65347779D01*
X119756816Y-65347779D01*
G37*
G36*
X119191130Y-64782093D02*
X118802221Y-64393184D01*
X119933592Y-63261813D01*
X120322501Y-63650722D01*
X119191130Y-64782093D01*
X119191130Y-64782093D01*
G37*
G36*
X118625445Y-64216408D02*
X118236536Y-63827499D01*
X119367907Y-62696128D01*
X119756816Y-63085037D01*
X118625445Y-64216408D01*
X118625445Y-64216408D01*
G37*
G36*
X118059759Y-63650723D02*
X117670850Y-63261814D01*
X118802221Y-62130443D01*
X119191130Y-62519352D01*
X118059759Y-63650723D01*
X118059759Y-63650723D01*
G37*
G36*
X117494074Y-63085037D02*
X117105165Y-62696128D01*
X118236536Y-61564757D01*
X118625445Y-61953666D01*
X117494074Y-63085037D01*
X117494074Y-63085037D01*
G37*
D11*
X107560400Y-97089200D03*
X107560400Y-99089200D03*
X107560400Y-101089200D03*
X107560400Y-103089200D03*
X107560400Y-105089200D03*
X107560400Y-107089200D03*
X107560400Y-109089200D03*
X107560400Y-111089200D03*
X122360400Y-111089200D03*
X122360400Y-109089200D03*
X122360400Y-107089200D03*
X122360400Y-105089200D03*
X122360400Y-103089200D03*
X122360400Y-101089200D03*
X122360400Y-99089200D03*
X122360400Y-97089200D03*
D12*
X124840000Y-110965000D03*
D13*
X126340000Y-109465000D03*
X126340000Y-112465000D03*
D14*
X112037600Y-79654400D03*
X121337600Y-79654400D03*
D15*
X112268000Y-61396880D03*
X112268000Y-60198000D03*
X112268000Y-58999120D03*
D16*
X116738400Y-74488800D03*
X116738400Y-76488800D03*
D17*
X115281200Y-56083200D03*
X117281200Y-56083200D03*
D16*
X121361200Y-74539600D03*
X121361200Y-76539600D03*
X112110000Y-75450000D03*
X112110000Y-77450000D03*
D18*
X118872000Y-74338000D03*
X118872000Y-76538000D03*
X114401600Y-74439600D03*
X114401600Y-76639600D03*
D19*
X115138200Y-59725600D03*
X115138200Y-57825600D03*
X117424200Y-59725600D03*
X117424200Y-57825600D03*
D20*
X114710000Y-50675000D03*
X116610000Y-50675000D03*
X115660000Y-48675000D03*
D18*
X120010000Y-48625000D03*
X120010000Y-50825000D03*
D21*
X119710000Y-53150000D03*
X121610000Y-53150000D03*
M02*
