G04 #@! TF.FileFunction,Other,Fab,Top*
%FSLAX46Y46*%
G04 Gerber Fmt 4.6, Leading zero omitted, Abs format (unit mm)*
G04 Created by KiCad (PCBNEW 4.0.7-e2-6376~61~ubuntu18.04.1) date Thu Mar 14 12:40:49 2019*
%MOMM*%
%LPD*%
G01*
G04 APERTURE LIST*
%ADD10C,0.100000*%
%ADD11C,0.150000*%
%ADD12C,0.075000*%
G04 APERTURE END LIST*
D10*
X126085000Y-48400000D02*
X124485000Y-48400000D01*
X124485000Y-48400000D02*
X124485000Y-49100000D01*
X124485000Y-49100000D02*
X132085000Y-49100000D01*
X132085000Y-49100000D02*
X132085000Y-43200000D01*
X132085000Y-43200000D02*
X124485000Y-43200000D01*
X124485000Y-43200000D02*
X124485000Y-43900000D01*
X124485000Y-43900000D02*
X126085000Y-43900000D01*
X126085000Y-43900000D02*
X126085000Y-48400000D01*
X126685000Y-47150000D02*
X127185000Y-47650000D01*
X127185000Y-47650000D02*
X127185000Y-46650000D01*
X127185000Y-46650000D02*
X126685000Y-47150000D01*
D11*
X117547107Y-63067359D02*
X121789747Y-67310000D01*
X121789747Y-67310000D02*
X116840000Y-72259747D01*
X116840000Y-72259747D02*
X111890253Y-67310000D01*
X111890253Y-67310000D02*
X116132893Y-63067359D01*
X116132893Y-63067359D02*
X117547107Y-63067359D01*
D10*
X121920000Y-82550000D02*
X125730000Y-82550000D01*
X125730000Y-82550000D02*
X125730000Y-90170000D01*
X125730000Y-90170000D02*
X120650000Y-90170000D01*
X120650000Y-90170000D02*
X120650000Y-83820000D01*
X120650000Y-83820000D02*
X121920000Y-82550000D01*
X125349000Y-99568000D02*
X127254000Y-99568000D01*
X127254000Y-99568000D02*
X127254000Y-107188000D01*
X127254000Y-107188000D02*
X124714000Y-107188000D01*
X124714000Y-107188000D02*
X124714000Y-100203000D01*
X124714000Y-100203000D02*
X125349000Y-99568000D01*
X107632000Y-94652000D02*
X113382000Y-94652000D01*
X113382000Y-94652000D02*
X113382000Y-82252000D01*
X113382000Y-82252000D02*
X107632000Y-82252000D01*
X107632000Y-82252000D02*
X107632000Y-94652000D01*
X107232000Y-92552000D02*
X107232000Y-95052000D01*
X107232000Y-95052000D02*
X109732000Y-95052000D01*
X116118400Y-74488800D02*
X117358400Y-74488800D01*
X116118400Y-76488800D02*
X116118400Y-74488800D01*
X117358400Y-76488800D02*
X116118400Y-76488800D01*
X117358400Y-74488800D02*
X117358400Y-76488800D01*
X115281200Y-56703200D02*
X115281200Y-55463200D01*
X117281200Y-56703200D02*
X115281200Y-56703200D01*
X117281200Y-55463200D02*
X117281200Y-56703200D01*
X115281200Y-55463200D02*
X117281200Y-55463200D01*
X120741200Y-74539600D02*
X121981200Y-74539600D01*
X120741200Y-76539600D02*
X120741200Y-74539600D01*
X121981200Y-76539600D02*
X120741200Y-76539600D01*
X121981200Y-74539600D02*
X121981200Y-76539600D01*
X111490000Y-75450000D02*
X112730000Y-75450000D01*
X111490000Y-77450000D02*
X111490000Y-75450000D01*
X112730000Y-77450000D02*
X111490000Y-77450000D01*
X112730000Y-75450000D02*
X112730000Y-77450000D01*
X118472000Y-75838000D02*
X119272000Y-75838000D01*
X118872000Y-75838000D02*
X118472000Y-75238000D01*
X119272000Y-75238000D02*
X118872000Y-75838000D01*
X118472000Y-75238000D02*
X119272000Y-75238000D01*
X119472000Y-74438000D02*
X119472000Y-76438000D01*
X118272000Y-74438000D02*
X119472000Y-74438000D01*
X118272000Y-76438000D02*
X118272000Y-74438000D01*
X119472000Y-76438000D02*
X118272000Y-76438000D01*
X114001600Y-75939600D02*
X114801600Y-75939600D01*
X114401600Y-75939600D02*
X114001600Y-75339600D01*
X114801600Y-75339600D02*
X114401600Y-75939600D01*
X114001600Y-75339600D02*
X114801600Y-75339600D01*
X115001600Y-74539600D02*
X115001600Y-76539600D01*
X113801600Y-74539600D02*
X115001600Y-74539600D01*
X113801600Y-76539600D02*
X113801600Y-74539600D01*
X115001600Y-76539600D02*
X113801600Y-76539600D01*
X115758200Y-59775600D02*
X114518200Y-59775600D01*
X115758200Y-57775600D02*
X115758200Y-59775600D01*
X114518200Y-57775600D02*
X115758200Y-57775600D01*
X114518200Y-59775600D02*
X114518200Y-57775600D01*
X118044200Y-59775600D02*
X116804200Y-59775600D01*
X118044200Y-57775600D02*
X118044200Y-59775600D01*
X116804200Y-57775600D02*
X118044200Y-57775600D01*
X116804200Y-59775600D02*
X116804200Y-57775600D01*
X116175000Y-84655000D02*
X118080000Y-84655000D01*
X118080000Y-84655000D02*
X118080000Y-89735000D01*
X118080000Y-89735000D02*
X115540000Y-89735000D01*
X115540000Y-89735000D02*
X115540000Y-85290000D01*
X115540000Y-85290000D02*
X116175000Y-84655000D01*
X114710000Y-50375000D02*
X117160000Y-50375000D01*
X114140000Y-49825000D02*
X114140000Y-48975000D01*
X114710000Y-50375000D02*
X114140000Y-49825000D01*
X114140000Y-48975000D02*
X117180000Y-48975000D01*
X117180000Y-50375000D02*
X117180000Y-48975000D01*
X119610000Y-50125000D02*
X120410000Y-50125000D01*
X120010000Y-50125000D02*
X119610000Y-49525000D01*
X120410000Y-49525000D02*
X120010000Y-50125000D01*
X119610000Y-49525000D02*
X120410000Y-49525000D01*
X120610000Y-48725000D02*
X120610000Y-50725000D01*
X119410000Y-48725000D02*
X120610000Y-48725000D01*
X119410000Y-50725000D02*
X119410000Y-48725000D01*
X120610000Y-50725000D02*
X119410000Y-50725000D01*
X119660000Y-53770000D02*
X119660000Y-52530000D01*
X121660000Y-53770000D02*
X119660000Y-53770000D01*
X121660000Y-52530000D02*
X121660000Y-53770000D01*
X119660000Y-52530000D02*
X121660000Y-52530000D01*
D11*
X132537381Y-46864285D02*
X133251667Y-46864285D01*
X133394524Y-46911905D01*
X133489762Y-47007143D01*
X133537381Y-47150000D01*
X133537381Y-47245238D01*
X133489762Y-46435714D02*
X133537381Y-46292857D01*
X133537381Y-46054761D01*
X133489762Y-45959523D01*
X133442143Y-45911904D01*
X133346905Y-45864285D01*
X133251667Y-45864285D01*
X133156429Y-45911904D01*
X133108810Y-45959523D01*
X133061190Y-46054761D01*
X133013571Y-46245238D01*
X132965952Y-46340476D01*
X132918333Y-46388095D01*
X132823095Y-46435714D01*
X132727857Y-46435714D01*
X132632619Y-46388095D01*
X132585000Y-46340476D01*
X132537381Y-46245238D01*
X132537381Y-46007142D01*
X132585000Y-45864285D01*
X132537381Y-45578571D02*
X132537381Y-45007142D01*
X133537381Y-45292857D02*
X132537381Y-45292857D01*
X127787381Y-46483333D02*
X128501667Y-46483333D01*
X128644524Y-46530953D01*
X128739762Y-46626191D01*
X128787381Y-46769048D01*
X128787381Y-46864286D01*
X127787381Y-46102381D02*
X127787381Y-45483333D01*
X128168333Y-45816667D01*
X128168333Y-45673809D01*
X128215952Y-45578571D01*
X128263571Y-45530952D01*
X128358810Y-45483333D01*
X128596905Y-45483333D01*
X128692143Y-45530952D01*
X128739762Y-45578571D01*
X128787381Y-45673809D01*
X128787381Y-45959524D01*
X128739762Y-46054762D01*
X128692143Y-46102381D01*
X108151004Y-67412699D02*
X108487722Y-67749417D01*
X107881630Y-67547386D02*
X108824439Y-67075981D01*
X108353035Y-68018790D01*
X109194829Y-67446370D02*
X109598890Y-67850432D01*
X108689752Y-68355508D02*
X109396859Y-67648401D01*
X109127485Y-68793241D02*
X109834592Y-68086134D01*
X109565218Y-68826913D01*
X110305997Y-68557539D01*
X109598890Y-69264645D01*
X110305997Y-69230973D02*
X110541700Y-69466676D01*
X110272325Y-69938080D02*
X109935607Y-69601363D01*
X110642714Y-68894256D01*
X110979432Y-69230974D01*
X111619195Y-69938080D02*
X111585523Y-69837065D01*
X111484508Y-69736050D01*
X111349821Y-69668706D01*
X111215134Y-69668706D01*
X111114119Y-69702378D01*
X110945760Y-69803393D01*
X110844744Y-69904409D01*
X110743729Y-70072767D01*
X110710057Y-70173782D01*
X110710057Y-70308469D01*
X110777402Y-70443157D01*
X110844745Y-70510500D01*
X110979432Y-70577844D01*
X111046775Y-70577844D01*
X111282477Y-70342142D01*
X111147790Y-70207455D01*
X111450836Y-70712531D02*
X111787554Y-71049249D01*
X111181462Y-70847218D02*
X112124271Y-70375813D01*
X111652867Y-71318622D01*
X112528332Y-70779874D02*
X112966065Y-71217607D01*
X112460989Y-71251278D01*
X112562005Y-71352294D01*
X112595676Y-71453309D01*
X112595676Y-71520653D01*
X112562004Y-71621668D01*
X112393645Y-71790027D01*
X112292630Y-71823699D01*
X112225287Y-71823699D01*
X112124272Y-71790027D01*
X111922241Y-71587996D01*
X111888569Y-71486981D01*
X111888569Y-71419637D01*
X113168096Y-71554324D02*
X113235439Y-71554324D01*
X113336454Y-71587996D01*
X113504814Y-71756355D01*
X113538485Y-71857370D01*
X113538485Y-71924714D01*
X113504814Y-72025729D01*
X113437470Y-72093072D01*
X113302783Y-72160416D01*
X112494661Y-72160416D01*
X112932394Y-72598149D01*
X113740516Y-72598148D02*
X113706844Y-72497133D01*
X113706844Y-72429790D01*
X113740516Y-72328774D01*
X113774187Y-72295103D01*
X113875202Y-72261431D01*
X113942546Y-72261431D01*
X114043561Y-72295103D01*
X114178249Y-72429790D01*
X114211920Y-72530806D01*
X114211920Y-72598149D01*
X114178249Y-72699164D01*
X114144577Y-72732836D01*
X114043562Y-72766508D01*
X113976218Y-72766508D01*
X113875203Y-72732836D01*
X113740516Y-72598148D01*
X113639500Y-72564477D01*
X113572157Y-72564477D01*
X113471141Y-72598149D01*
X113336454Y-72732836D01*
X113302782Y-72833851D01*
X113302782Y-72901194D01*
X113336454Y-73002210D01*
X113471142Y-73136897D01*
X113572157Y-73170569D01*
X113639500Y-73170569D01*
X113740516Y-73136897D01*
X113875202Y-73002210D01*
X113908875Y-72901194D01*
X113908875Y-72833851D01*
X113875203Y-72732836D01*
X113908874Y-73574629D02*
X114615981Y-72867523D01*
X114885355Y-73136897D01*
X114919027Y-73237912D01*
X114919027Y-73305256D01*
X114885355Y-73406271D01*
X114784340Y-73507286D01*
X114683325Y-73540958D01*
X114615982Y-73540958D01*
X114514966Y-73507286D01*
X114245592Y-73237912D01*
X114885355Y-74012363D02*
X115424103Y-74551111D01*
X115659805Y-74921500D02*
X115996523Y-75258217D01*
X115390431Y-75056186D02*
X116333240Y-74584782D01*
X115861836Y-75527591D01*
X116804645Y-75056186D02*
X116232225Y-75628606D01*
X116198553Y-75729622D01*
X116198553Y-75796965D01*
X116232225Y-75897980D01*
X116366912Y-76032668D01*
X116467928Y-76066339D01*
X116535271Y-76066339D01*
X116636286Y-76032668D01*
X117208706Y-75460248D01*
X116688477Y-66384027D02*
X116116057Y-66956447D01*
X116082385Y-67057462D01*
X116082385Y-67124805D01*
X116116057Y-67225820D01*
X116250745Y-67360508D01*
X116351760Y-67394180D01*
X116419103Y-67394180D01*
X116520118Y-67360508D01*
X117092538Y-66788088D01*
X117496600Y-67663553D02*
X117025195Y-68134958D01*
X117597614Y-67225820D02*
X116924179Y-67562538D01*
X117361912Y-68000271D01*
X123547143Y-87574285D02*
X123594762Y-87621904D01*
X123642381Y-87764761D01*
X123642381Y-87859999D01*
X123594762Y-88002857D01*
X123499524Y-88098095D01*
X123404286Y-88145714D01*
X123213810Y-88193333D01*
X123070952Y-88193333D01*
X122880476Y-88145714D01*
X122785238Y-88098095D01*
X122690000Y-88002857D01*
X122642381Y-87859999D01*
X122642381Y-87764761D01*
X122690000Y-87621904D01*
X122737619Y-87574285D01*
X122642381Y-86955238D02*
X122642381Y-86764761D01*
X122690000Y-86669523D01*
X122785238Y-86574285D01*
X122975714Y-86526666D01*
X123309048Y-86526666D01*
X123499524Y-86574285D01*
X123594762Y-86669523D01*
X123642381Y-86764761D01*
X123642381Y-86955238D01*
X123594762Y-87050476D01*
X123499524Y-87145714D01*
X123309048Y-87193333D01*
X122975714Y-87193333D01*
X122785238Y-87145714D01*
X122690000Y-87050476D01*
X122642381Y-86955238D01*
X123642381Y-86098095D02*
X122642381Y-86098095D01*
X123642381Y-85526666D01*
X122642381Y-85526666D01*
X123642381Y-84526666D02*
X123642381Y-85098095D01*
X123642381Y-84812381D02*
X122642381Y-84812381D01*
X122785238Y-84907619D01*
X122880476Y-85002857D01*
X122928095Y-85098095D01*
X125436381Y-103711333D02*
X126150667Y-103711333D01*
X126293524Y-103758953D01*
X126388762Y-103854191D01*
X126436381Y-103997048D01*
X126436381Y-104092286D01*
X126436381Y-102711333D02*
X126436381Y-103282762D01*
X126436381Y-102997048D02*
X125436381Y-102997048D01*
X125579238Y-103092286D01*
X125674476Y-103187524D01*
X125722095Y-103282762D01*
X114440781Y-77131657D02*
X114440781Y-77036418D01*
X114488400Y-76941180D01*
X114536019Y-76893561D01*
X114631257Y-76845942D01*
X114821733Y-76798323D01*
X115059829Y-76798323D01*
X115250305Y-76845942D01*
X115345543Y-76893561D01*
X115393162Y-76941180D01*
X115440781Y-77036418D01*
X115440781Y-77131657D01*
X115393162Y-77226895D01*
X115345543Y-77274514D01*
X115250305Y-77322133D01*
X115059829Y-77369752D01*
X114821733Y-77369752D01*
X114631257Y-77322133D01*
X114536019Y-77274514D01*
X114488400Y-77226895D01*
X114440781Y-77131657D01*
X115345543Y-76369752D02*
X115393162Y-76322133D01*
X115440781Y-76369752D01*
X115393162Y-76417371D01*
X115345543Y-76369752D01*
X115440781Y-76369752D01*
X115440781Y-75369752D02*
X115440781Y-75941181D01*
X115440781Y-75655467D02*
X114440781Y-75655467D01*
X114583638Y-75750705D01*
X114678876Y-75845943D01*
X114726495Y-75941181D01*
X114774114Y-74512609D02*
X115440781Y-74512609D01*
X114774114Y-74941181D02*
X115297924Y-74941181D01*
X115393162Y-74893562D01*
X115440781Y-74798324D01*
X115440781Y-74655466D01*
X115393162Y-74560228D01*
X115345543Y-74512609D01*
X114916971Y-73703085D02*
X114916971Y-74036419D01*
X115440781Y-74036419D02*
X114440781Y-74036419D01*
X114440781Y-73560228D01*
X118595543Y-75655466D02*
X118643162Y-75703085D01*
X118690781Y-75845942D01*
X118690781Y-75941180D01*
X118643162Y-76084038D01*
X118547924Y-76179276D01*
X118452686Y-76226895D01*
X118262210Y-76274514D01*
X118119352Y-76274514D01*
X117928876Y-76226895D01*
X117833638Y-76179276D01*
X117738400Y-76084038D01*
X117690781Y-75941180D01*
X117690781Y-75845942D01*
X117738400Y-75703085D01*
X117786019Y-75655466D01*
X118024114Y-74798323D02*
X118690781Y-74798323D01*
X117643162Y-75036419D02*
X118357448Y-75274514D01*
X118357448Y-74655466D01*
X114733581Y-58285581D02*
X114162152Y-58285581D01*
X114447866Y-58285581D02*
X114447866Y-57285581D01*
X114352628Y-57428438D01*
X114257390Y-57523676D01*
X114162152Y-57571295D01*
X115352628Y-57285581D02*
X115447867Y-57285581D01*
X115543105Y-57333200D01*
X115590724Y-57380819D01*
X115638343Y-57476057D01*
X115685962Y-57666533D01*
X115685962Y-57904629D01*
X115638343Y-58095105D01*
X115590724Y-58190343D01*
X115543105Y-58237962D01*
X115447867Y-58285581D01*
X115352628Y-58285581D01*
X115257390Y-58237962D01*
X115209771Y-58190343D01*
X115162152Y-58095105D01*
X115114533Y-57904629D01*
X115114533Y-57666533D01*
X115162152Y-57476057D01*
X115209771Y-57380819D01*
X115257390Y-57333200D01*
X115352628Y-57285581D01*
X116305009Y-57285581D02*
X116400248Y-57285581D01*
X116495486Y-57333200D01*
X116543105Y-57380819D01*
X116590724Y-57476057D01*
X116638343Y-57666533D01*
X116638343Y-57904629D01*
X116590724Y-58095105D01*
X116543105Y-58190343D01*
X116495486Y-58237962D01*
X116400248Y-58285581D01*
X116305009Y-58285581D01*
X116209771Y-58237962D01*
X116162152Y-58190343D01*
X116114533Y-58095105D01*
X116066914Y-57904629D01*
X116066914Y-57666533D01*
X116114533Y-57476057D01*
X116162152Y-57380819D01*
X116209771Y-57333200D01*
X116305009Y-57285581D01*
X117066914Y-57618914D02*
X117066914Y-58285581D01*
X117066914Y-57714152D02*
X117114533Y-57666533D01*
X117209771Y-57618914D01*
X117352629Y-57618914D01*
X117447867Y-57666533D01*
X117495486Y-57761771D01*
X117495486Y-58285581D01*
X118305010Y-57761771D02*
X117971676Y-57761771D01*
X117971676Y-58285581D02*
X117971676Y-57285581D01*
X118447867Y-57285581D01*
X119063581Y-77039600D02*
X119063581Y-76944361D01*
X119111200Y-76849123D01*
X119158819Y-76801504D01*
X119254057Y-76753885D01*
X119444533Y-76706266D01*
X119682629Y-76706266D01*
X119873105Y-76753885D01*
X119968343Y-76801504D01*
X120015962Y-76849123D01*
X120063581Y-76944361D01*
X120063581Y-77039600D01*
X120015962Y-77134838D01*
X119968343Y-77182457D01*
X119873105Y-77230076D01*
X119682629Y-77277695D01*
X119444533Y-77277695D01*
X119254057Y-77230076D01*
X119158819Y-77182457D01*
X119111200Y-77134838D01*
X119063581Y-77039600D01*
X119968343Y-76277695D02*
X120015962Y-76230076D01*
X120063581Y-76277695D01*
X120015962Y-76325314D01*
X119968343Y-76277695D01*
X120063581Y-76277695D01*
X120063581Y-75277695D02*
X120063581Y-75849124D01*
X120063581Y-75563410D02*
X119063581Y-75563410D01*
X119206438Y-75658648D01*
X119301676Y-75753886D01*
X119349295Y-75849124D01*
X119396914Y-74420552D02*
X120063581Y-74420552D01*
X119396914Y-74849124D02*
X119920724Y-74849124D01*
X120015962Y-74801505D01*
X120063581Y-74706267D01*
X120063581Y-74563409D01*
X120015962Y-74468171D01*
X119968343Y-74420552D01*
X119396914Y-74087219D02*
X119396914Y-73706267D01*
X120063581Y-73944362D02*
X119206438Y-73944362D01*
X119111200Y-73896743D01*
X119063581Y-73801505D01*
X119063581Y-73706267D01*
X123218343Y-75706266D02*
X123265962Y-75753885D01*
X123313581Y-75896742D01*
X123313581Y-75991980D01*
X123265962Y-76134838D01*
X123170724Y-76230076D01*
X123075486Y-76277695D01*
X122885010Y-76325314D01*
X122742152Y-76325314D01*
X122551676Y-76277695D01*
X122456438Y-76230076D01*
X122361200Y-76134838D01*
X122313581Y-75991980D01*
X122313581Y-75896742D01*
X122361200Y-75753885D01*
X122408819Y-75706266D01*
X122313581Y-74849123D02*
X122313581Y-75039600D01*
X122361200Y-75134838D01*
X122408819Y-75182457D01*
X122551676Y-75277695D01*
X122742152Y-75325314D01*
X123123105Y-75325314D01*
X123218343Y-75277695D01*
X123265962Y-75230076D01*
X123313581Y-75134838D01*
X123313581Y-74944361D01*
X123265962Y-74849123D01*
X123218343Y-74801504D01*
X123123105Y-74753885D01*
X122885010Y-74753885D01*
X122789771Y-74801504D01*
X122742152Y-74849123D01*
X122694533Y-74944361D01*
X122694533Y-75134838D01*
X122742152Y-75230076D01*
X122789771Y-75277695D01*
X122885010Y-75325314D01*
X119922000Y-76795143D02*
X119874381Y-76890381D01*
X119874381Y-77033238D01*
X119922000Y-77176096D01*
X120017238Y-77271334D01*
X120112476Y-77318953D01*
X120302952Y-77366572D01*
X120445810Y-77366572D01*
X120636286Y-77318953D01*
X120731524Y-77271334D01*
X120826762Y-77176096D01*
X120874381Y-77033238D01*
X120874381Y-76938000D01*
X120826762Y-76795143D01*
X120779143Y-76747524D01*
X120445810Y-76747524D01*
X120445810Y-76938000D01*
X120874381Y-76318953D02*
X120207714Y-76318953D01*
X120398190Y-76318953D02*
X120302952Y-76271334D01*
X120255333Y-76223715D01*
X120207714Y-76128477D01*
X120207714Y-76033238D01*
X120826762Y-75318952D02*
X120874381Y-75414190D01*
X120874381Y-75604667D01*
X120826762Y-75699905D01*
X120731524Y-75747524D01*
X120350571Y-75747524D01*
X120255333Y-75699905D01*
X120207714Y-75604667D01*
X120207714Y-75414190D01*
X120255333Y-75318952D01*
X120350571Y-75271333D01*
X120445810Y-75271333D01*
X120541048Y-75747524D01*
X120826762Y-74461809D02*
X120874381Y-74557047D01*
X120874381Y-74747524D01*
X120826762Y-74842762D01*
X120731524Y-74890381D01*
X120350571Y-74890381D01*
X120255333Y-74842762D01*
X120207714Y-74747524D01*
X120207714Y-74557047D01*
X120255333Y-74461809D01*
X120350571Y-74414190D01*
X120445810Y-74414190D01*
X120541048Y-74890381D01*
X120207714Y-73985619D02*
X120874381Y-73985619D01*
X120302952Y-73985619D02*
X120255333Y-73938000D01*
X120207714Y-73842762D01*
X120207714Y-73699904D01*
X120255333Y-73604666D01*
X120350571Y-73557047D01*
X120874381Y-73557047D01*
D10*
X117802952Y-75733238D02*
X117402952Y-75733238D01*
X117402952Y-75638000D01*
X117422000Y-75580857D01*
X117460095Y-75542762D01*
X117498190Y-75523714D01*
X117574381Y-75504666D01*
X117631524Y-75504666D01*
X117707714Y-75523714D01*
X117745810Y-75542762D01*
X117783905Y-75580857D01*
X117802952Y-75638000D01*
X117802952Y-75733238D01*
X117441048Y-75352286D02*
X117422000Y-75333238D01*
X117402952Y-75295143D01*
X117402952Y-75199905D01*
X117422000Y-75161809D01*
X117441048Y-75142762D01*
X117479143Y-75123714D01*
X117517238Y-75123714D01*
X117574381Y-75142762D01*
X117802952Y-75371333D01*
X117802952Y-75123714D01*
D11*
X115880171Y-76611028D02*
X115927790Y-76468171D01*
X115975410Y-76420552D01*
X116070648Y-76372933D01*
X116213505Y-76372933D01*
X116308743Y-76420552D01*
X116356362Y-76468171D01*
X116403981Y-76563409D01*
X116403981Y-76944362D01*
X115403981Y-76944362D01*
X115403981Y-76611028D01*
X115451600Y-76515790D01*
X115499219Y-76468171D01*
X115594457Y-76420552D01*
X115689695Y-76420552D01*
X115784933Y-76468171D01*
X115832552Y-76515790D01*
X115880171Y-76611028D01*
X115880171Y-76944362D01*
X116403981Y-75801505D02*
X116356362Y-75896743D01*
X116261124Y-75944362D01*
X115403981Y-75944362D01*
X115737314Y-74991980D02*
X116403981Y-74991980D01*
X115737314Y-75420552D02*
X116261124Y-75420552D01*
X116356362Y-75372933D01*
X116403981Y-75277695D01*
X116403981Y-75134837D01*
X116356362Y-75039599D01*
X116308743Y-74991980D01*
X116356362Y-74134837D02*
X116403981Y-74230075D01*
X116403981Y-74420552D01*
X116356362Y-74515790D01*
X116261124Y-74563409D01*
X115880171Y-74563409D01*
X115784933Y-74515790D01*
X115737314Y-74420552D01*
X115737314Y-74230075D01*
X115784933Y-74134837D01*
X115880171Y-74087218D01*
X115975410Y-74087218D01*
X116070648Y-74563409D01*
D10*
X113332552Y-75834838D02*
X112932552Y-75834838D01*
X112932552Y-75739600D01*
X112951600Y-75682457D01*
X112989695Y-75644362D01*
X113027790Y-75625314D01*
X113103981Y-75606266D01*
X113161124Y-75606266D01*
X113237314Y-75625314D01*
X113275410Y-75644362D01*
X113313505Y-75682457D01*
X113332552Y-75739600D01*
X113332552Y-75834838D01*
X112932552Y-75472933D02*
X112932552Y-75225314D01*
X113084933Y-75358647D01*
X113084933Y-75301505D01*
X113103981Y-75263409D01*
X113123029Y-75244362D01*
X113161124Y-75225314D01*
X113256362Y-75225314D01*
X113294457Y-75244362D01*
X113313505Y-75263409D01*
X113332552Y-75301505D01*
X113332552Y-75415790D01*
X113313505Y-75453886D01*
X113294457Y-75472933D01*
D11*
X116340581Y-60037504D02*
X116340581Y-60227981D01*
X116388200Y-60323219D01*
X116435819Y-60370838D01*
X116578676Y-60466076D01*
X116769152Y-60513695D01*
X117150105Y-60513695D01*
X117245343Y-60466076D01*
X117292962Y-60418457D01*
X117340581Y-60323219D01*
X117340581Y-60132742D01*
X117292962Y-60037504D01*
X117245343Y-59989885D01*
X117150105Y-59942266D01*
X116912010Y-59942266D01*
X116816771Y-59989885D01*
X116769152Y-60037504D01*
X116721533Y-60132742D01*
X116721533Y-60323219D01*
X116769152Y-60418457D01*
X116816771Y-60466076D01*
X116912010Y-60513695D01*
X116769152Y-59370838D02*
X116721533Y-59466076D01*
X116673914Y-59513695D01*
X116578676Y-59561314D01*
X116531057Y-59561314D01*
X116435819Y-59513695D01*
X116388200Y-59466076D01*
X116340581Y-59370838D01*
X116340581Y-59180361D01*
X116388200Y-59085123D01*
X116435819Y-59037504D01*
X116531057Y-58989885D01*
X116578676Y-58989885D01*
X116673914Y-59037504D01*
X116721533Y-59085123D01*
X116769152Y-59180361D01*
X116769152Y-59370838D01*
X116816771Y-59466076D01*
X116864390Y-59513695D01*
X116959629Y-59561314D01*
X117150105Y-59561314D01*
X117245343Y-59513695D01*
X117292962Y-59466076D01*
X117340581Y-59370838D01*
X117340581Y-59180361D01*
X117292962Y-59085123D01*
X117245343Y-59037504D01*
X117150105Y-58989885D01*
X116959629Y-58989885D01*
X116864390Y-59037504D01*
X116816771Y-59085123D01*
X116769152Y-59180361D01*
X116340581Y-58370838D02*
X116340581Y-58275599D01*
X116388200Y-58180361D01*
X116435819Y-58132742D01*
X116531057Y-58085123D01*
X116721533Y-58037504D01*
X116959629Y-58037504D01*
X117150105Y-58085123D01*
X117245343Y-58132742D01*
X117292962Y-58180361D01*
X117340581Y-58275599D01*
X117340581Y-58370838D01*
X117292962Y-58466076D01*
X117245343Y-58513695D01*
X117150105Y-58561314D01*
X116959629Y-58608933D01*
X116721533Y-58608933D01*
X116531057Y-58561314D01*
X116435819Y-58513695D01*
X116388200Y-58466076D01*
X116340581Y-58370838D01*
X117340581Y-57608933D02*
X116340581Y-57608933D01*
X117340581Y-57037504D02*
X116769152Y-57466076D01*
X116340581Y-57037504D02*
X116912010Y-57608933D01*
D12*
X115364390Y-58858933D02*
X115126295Y-59025600D01*
X115364390Y-59144647D02*
X114864390Y-59144647D01*
X114864390Y-58954171D01*
X114888200Y-58906552D01*
X114912010Y-58882743D01*
X114959629Y-58858933D01*
X115031057Y-58858933D01*
X115078676Y-58882743D01*
X115102486Y-58906552D01*
X115126295Y-58954171D01*
X115126295Y-59144647D01*
X114864390Y-58406552D02*
X114864390Y-58644647D01*
X115102486Y-58668457D01*
X115078676Y-58644647D01*
X115054867Y-58597028D01*
X115054867Y-58477981D01*
X115078676Y-58430362D01*
X115102486Y-58406552D01*
X115150105Y-58382743D01*
X115269152Y-58382743D01*
X115316771Y-58406552D01*
X115340581Y-58430362D01*
X115364390Y-58477981D01*
X115364390Y-58597028D01*
X115340581Y-58644647D01*
X115316771Y-58668457D01*
D11*
X118626581Y-60037504D02*
X118626581Y-60227981D01*
X118674200Y-60323219D01*
X118721819Y-60370838D01*
X118864676Y-60466076D01*
X119055152Y-60513695D01*
X119436105Y-60513695D01*
X119531343Y-60466076D01*
X119578962Y-60418457D01*
X119626581Y-60323219D01*
X119626581Y-60132742D01*
X119578962Y-60037504D01*
X119531343Y-59989885D01*
X119436105Y-59942266D01*
X119198010Y-59942266D01*
X119102771Y-59989885D01*
X119055152Y-60037504D01*
X119007533Y-60132742D01*
X119007533Y-60323219D01*
X119055152Y-60418457D01*
X119102771Y-60466076D01*
X119198010Y-60513695D01*
X119055152Y-59370838D02*
X119007533Y-59466076D01*
X118959914Y-59513695D01*
X118864676Y-59561314D01*
X118817057Y-59561314D01*
X118721819Y-59513695D01*
X118674200Y-59466076D01*
X118626581Y-59370838D01*
X118626581Y-59180361D01*
X118674200Y-59085123D01*
X118721819Y-59037504D01*
X118817057Y-58989885D01*
X118864676Y-58989885D01*
X118959914Y-59037504D01*
X119007533Y-59085123D01*
X119055152Y-59180361D01*
X119055152Y-59370838D01*
X119102771Y-59466076D01*
X119150390Y-59513695D01*
X119245629Y-59561314D01*
X119436105Y-59561314D01*
X119531343Y-59513695D01*
X119578962Y-59466076D01*
X119626581Y-59370838D01*
X119626581Y-59180361D01*
X119578962Y-59085123D01*
X119531343Y-59037504D01*
X119436105Y-58989885D01*
X119245629Y-58989885D01*
X119150390Y-59037504D01*
X119102771Y-59085123D01*
X119055152Y-59180361D01*
X118626581Y-58370838D02*
X118626581Y-58275599D01*
X118674200Y-58180361D01*
X118721819Y-58132742D01*
X118817057Y-58085123D01*
X119007533Y-58037504D01*
X119245629Y-58037504D01*
X119436105Y-58085123D01*
X119531343Y-58132742D01*
X119578962Y-58180361D01*
X119626581Y-58275599D01*
X119626581Y-58370838D01*
X119578962Y-58466076D01*
X119531343Y-58513695D01*
X119436105Y-58561314D01*
X119245629Y-58608933D01*
X119007533Y-58608933D01*
X118817057Y-58561314D01*
X118721819Y-58513695D01*
X118674200Y-58466076D01*
X118626581Y-58370838D01*
X119626581Y-57608933D02*
X118626581Y-57608933D01*
X119626581Y-57037504D02*
X119055152Y-57466076D01*
X118626581Y-57037504D02*
X119198010Y-57608933D01*
D12*
X117650390Y-58858933D02*
X117412295Y-59025600D01*
X117650390Y-59144647D02*
X117150390Y-59144647D01*
X117150390Y-58954171D01*
X117174200Y-58906552D01*
X117198010Y-58882743D01*
X117245629Y-58858933D01*
X117317057Y-58858933D01*
X117364676Y-58882743D01*
X117388486Y-58906552D01*
X117412295Y-58954171D01*
X117412295Y-59144647D01*
X117150390Y-58430362D02*
X117150390Y-58525600D01*
X117174200Y-58573219D01*
X117198010Y-58597028D01*
X117269438Y-58644647D01*
X117364676Y-58668457D01*
X117555152Y-58668457D01*
X117602771Y-58644647D01*
X117626581Y-58620838D01*
X117650390Y-58573219D01*
X117650390Y-58477981D01*
X117626581Y-58430362D01*
X117602771Y-58406552D01*
X117555152Y-58382743D01*
X117436105Y-58382743D01*
X117388486Y-58406552D01*
X117364676Y-58430362D01*
X117340867Y-58477981D01*
X117340867Y-58573219D01*
X117364676Y-58620838D01*
X117388486Y-58644647D01*
X117436105Y-58668457D01*
D11*
X116452858Y-90247381D02*
X116452858Y-90961667D01*
X116405238Y-91104524D01*
X116310000Y-91199762D01*
X116167143Y-91247381D01*
X116071905Y-91247381D01*
X116929048Y-91247381D02*
X116929048Y-90247381D01*
X117310001Y-90247381D01*
X117405239Y-90295000D01*
X117452858Y-90342619D01*
X117500477Y-90437857D01*
X117500477Y-90580714D01*
X117452858Y-90675952D01*
X117405239Y-90723571D01*
X117310001Y-90771190D01*
X116929048Y-90771190D01*
X116262381Y-88028333D02*
X116976667Y-88028333D01*
X117119524Y-88075953D01*
X117214762Y-88171191D01*
X117262381Y-88314048D01*
X117262381Y-88409286D01*
X117262381Y-87552143D02*
X116262381Y-87552143D01*
X116262381Y-87171190D01*
X116310000Y-87075952D01*
X116357619Y-87028333D01*
X116452857Y-86980714D01*
X116595714Y-86980714D01*
X116690952Y-87028333D01*
X116738571Y-87075952D01*
X116786190Y-87171190D01*
X116786190Y-87552143D01*
X117262381Y-86028333D02*
X117262381Y-86599762D01*
X117262381Y-86314048D02*
X116262381Y-86314048D01*
X116405238Y-86409286D01*
X116500476Y-86504524D01*
X116548095Y-86599762D01*
X118612381Y-54532143D02*
X117612381Y-54532143D01*
X117612381Y-54294048D01*
X117660000Y-54151190D01*
X117755238Y-54055952D01*
X117850476Y-54008333D01*
X118040952Y-53960714D01*
X118183810Y-53960714D01*
X118374286Y-54008333D01*
X118469524Y-54055952D01*
X118564762Y-54151190D01*
X118612381Y-54294048D01*
X118612381Y-54532143D01*
X118612381Y-53532143D02*
X117612381Y-53532143D01*
X118326667Y-53198809D01*
X117612381Y-52865476D01*
X118612381Y-52865476D01*
X117660000Y-51865476D02*
X117612381Y-51960714D01*
X117612381Y-52103571D01*
X117660000Y-52246429D01*
X117755238Y-52341667D01*
X117850476Y-52389286D01*
X118040952Y-52436905D01*
X118183810Y-52436905D01*
X118374286Y-52389286D01*
X118469524Y-52341667D01*
X118564762Y-52246429D01*
X118612381Y-52103571D01*
X118612381Y-52008333D01*
X118564762Y-51865476D01*
X118517143Y-51817857D01*
X118183810Y-51817857D01*
X118183810Y-52008333D01*
X117612381Y-51484524D02*
X117612381Y-50865476D01*
X117993333Y-51198810D01*
X117993333Y-51055952D01*
X118040952Y-50960714D01*
X118088571Y-50913095D01*
X118183810Y-50865476D01*
X118421905Y-50865476D01*
X118517143Y-50913095D01*
X118564762Y-50960714D01*
X118612381Y-51055952D01*
X118612381Y-51341667D01*
X118564762Y-51436905D01*
X118517143Y-51484524D01*
X117945714Y-50008333D02*
X118612381Y-50008333D01*
X117564762Y-50246429D02*
X118279048Y-50484524D01*
X118279048Y-49865476D01*
X118612381Y-48960714D02*
X118612381Y-49532143D01*
X118612381Y-49246429D02*
X117612381Y-49246429D01*
X117755238Y-49341667D01*
X117850476Y-49436905D01*
X117898095Y-49532143D01*
X117612381Y-48055952D02*
X117612381Y-48532143D01*
X118088571Y-48579762D01*
X118040952Y-48532143D01*
X117993333Y-48436905D01*
X117993333Y-48198809D01*
X118040952Y-48103571D01*
X118088571Y-48055952D01*
X118183810Y-48008333D01*
X118421905Y-48008333D01*
X118517143Y-48055952D01*
X118564762Y-48103571D01*
X118612381Y-48198809D01*
X118612381Y-48436905D01*
X118564762Y-48532143D01*
X118517143Y-48579762D01*
X117612381Y-47579762D02*
X118421905Y-47579762D01*
X118517143Y-47532143D01*
X118564762Y-47484524D01*
X118612381Y-47389286D01*
X118612381Y-47198809D01*
X118564762Y-47103571D01*
X118517143Y-47055952D01*
X118421905Y-47008333D01*
X117612381Y-47008333D01*
X118231429Y-46532143D02*
X118231429Y-45770238D01*
X117612381Y-45389286D02*
X117612381Y-44722619D01*
X118612381Y-45151191D01*
D12*
X115612381Y-49948810D02*
X115564762Y-49925000D01*
X115517143Y-49877381D01*
X115445714Y-49805952D01*
X115398095Y-49782143D01*
X115350476Y-49782143D01*
X115374286Y-49901190D02*
X115326667Y-49877381D01*
X115279048Y-49829762D01*
X115255238Y-49734524D01*
X115255238Y-49567857D01*
X115279048Y-49472619D01*
X115326667Y-49425000D01*
X115374286Y-49401190D01*
X115469524Y-49401190D01*
X115517143Y-49425000D01*
X115564762Y-49472619D01*
X115588571Y-49567857D01*
X115588571Y-49734524D01*
X115564762Y-49829762D01*
X115517143Y-49877381D01*
X115469524Y-49901190D01*
X115374286Y-49901190D01*
X116064762Y-49901190D02*
X115779048Y-49901190D01*
X115921905Y-49901190D02*
X115921905Y-49401190D01*
X115874286Y-49472619D01*
X115826667Y-49520238D01*
X115779048Y-49544048D01*
D11*
X122012381Y-50367857D02*
X121536190Y-50701191D01*
X122012381Y-50939286D02*
X121012381Y-50939286D01*
X121012381Y-50558333D01*
X121060000Y-50463095D01*
X121107619Y-50415476D01*
X121202857Y-50367857D01*
X121345714Y-50367857D01*
X121440952Y-50415476D01*
X121488571Y-50463095D01*
X121536190Y-50558333D01*
X121536190Y-50939286D01*
X121488571Y-49939286D02*
X121488571Y-49605952D01*
X122012381Y-49463095D02*
X122012381Y-49939286D01*
X121012381Y-49939286D01*
X121012381Y-49463095D01*
X122012381Y-49034524D02*
X121012381Y-49034524D01*
X121012381Y-48796429D01*
X121060000Y-48653571D01*
X121155238Y-48558333D01*
X121250476Y-48510714D01*
X121440952Y-48463095D01*
X121583810Y-48463095D01*
X121774286Y-48510714D01*
X121869524Y-48558333D01*
X121964762Y-48653571D01*
X122012381Y-48796429D01*
X122012381Y-49034524D01*
D10*
X118940952Y-50020238D02*
X118540952Y-50020238D01*
X118540952Y-49925000D01*
X118560000Y-49867857D01*
X118598095Y-49829762D01*
X118636190Y-49810714D01*
X118712381Y-49791666D01*
X118769524Y-49791666D01*
X118845714Y-49810714D01*
X118883810Y-49829762D01*
X118921905Y-49867857D01*
X118940952Y-49925000D01*
X118940952Y-50020238D01*
X118940952Y-49410714D02*
X118940952Y-49639286D01*
X118940952Y-49525000D02*
X118540952Y-49525000D01*
X118598095Y-49563095D01*
X118636190Y-49601190D01*
X118655238Y-49639286D01*
D11*
X119374286Y-54352381D02*
X119993334Y-54352381D01*
X119660000Y-54733333D01*
X119802858Y-54733333D01*
X119898096Y-54780952D01*
X119945715Y-54828571D01*
X119993334Y-54923810D01*
X119993334Y-55161905D01*
X119945715Y-55257143D01*
X119898096Y-55304762D01*
X119802858Y-55352381D01*
X119517143Y-55352381D01*
X119421905Y-55304762D01*
X119374286Y-55257143D01*
X120326667Y-54352381D02*
X120945715Y-54352381D01*
X120612381Y-54733333D01*
X120755239Y-54733333D01*
X120850477Y-54780952D01*
X120898096Y-54828571D01*
X120945715Y-54923810D01*
X120945715Y-55161905D01*
X120898096Y-55257143D01*
X120850477Y-55304762D01*
X120755239Y-55352381D01*
X120469524Y-55352381D01*
X120374286Y-55304762D01*
X120326667Y-55257143D01*
X121564762Y-54352381D02*
X121660001Y-54352381D01*
X121755239Y-54400000D01*
X121802858Y-54447619D01*
X121850477Y-54542857D01*
X121898096Y-54733333D01*
X121898096Y-54971429D01*
X121850477Y-55161905D01*
X121802858Y-55257143D01*
X121755239Y-55304762D01*
X121660001Y-55352381D01*
X121564762Y-55352381D01*
X121469524Y-55304762D01*
X121421905Y-55257143D01*
X121374286Y-55161905D01*
X121326667Y-54971429D01*
X121326667Y-54733333D01*
X121374286Y-54542857D01*
X121421905Y-54447619D01*
X121469524Y-54400000D01*
X121564762Y-54352381D01*
D12*
X120576667Y-53376190D02*
X120410000Y-53138095D01*
X120290953Y-53376190D02*
X120290953Y-52876190D01*
X120481429Y-52876190D01*
X120529048Y-52900000D01*
X120552857Y-52923810D01*
X120576667Y-52971429D01*
X120576667Y-53042857D01*
X120552857Y-53090476D01*
X120529048Y-53114286D01*
X120481429Y-53138095D01*
X120290953Y-53138095D01*
X120767143Y-52923810D02*
X120790953Y-52900000D01*
X120838572Y-52876190D01*
X120957619Y-52876190D01*
X121005238Y-52900000D01*
X121029048Y-52923810D01*
X121052857Y-52971429D01*
X121052857Y-53019048D01*
X121029048Y-53090476D01*
X120743334Y-53376190D01*
X121052857Y-53376190D01*
D11*
X97940952Y-52252381D02*
X97940952Y-51252381D01*
X98274286Y-51966667D01*
X98607619Y-51252381D01*
X98607619Y-52252381D01*
X99226666Y-52252381D02*
X99131428Y-52204762D01*
X99083809Y-52157143D01*
X99036190Y-52061905D01*
X99036190Y-51776190D01*
X99083809Y-51680952D01*
X99131428Y-51633333D01*
X99226666Y-51585714D01*
X99369524Y-51585714D01*
X99464762Y-51633333D01*
X99512381Y-51680952D01*
X99560000Y-51776190D01*
X99560000Y-52061905D01*
X99512381Y-52157143D01*
X99464762Y-52204762D01*
X99369524Y-52252381D01*
X99226666Y-52252381D01*
X100417143Y-51585714D02*
X100417143Y-52252381D01*
X99988571Y-51585714D02*
X99988571Y-52109524D01*
X100036190Y-52204762D01*
X100131428Y-52252381D01*
X100274286Y-52252381D01*
X100369524Y-52204762D01*
X100417143Y-52157143D01*
X100893333Y-51585714D02*
X100893333Y-52252381D01*
X100893333Y-51680952D02*
X100940952Y-51633333D01*
X101036190Y-51585714D01*
X101179048Y-51585714D01*
X101274286Y-51633333D01*
X101321905Y-51728571D01*
X101321905Y-52252381D01*
X101655238Y-51585714D02*
X102036190Y-51585714D01*
X101798095Y-51252381D02*
X101798095Y-52109524D01*
X101845714Y-52204762D01*
X101940952Y-52252381D01*
X102036190Y-52252381D01*
X102369524Y-52252381D02*
X102369524Y-51585714D01*
X102369524Y-51252381D02*
X102321905Y-51300000D01*
X102369524Y-51347619D01*
X102417143Y-51300000D01*
X102369524Y-51252381D01*
X102369524Y-51347619D01*
X102845714Y-51585714D02*
X102845714Y-52252381D01*
X102845714Y-51680952D02*
X102893333Y-51633333D01*
X102988571Y-51585714D01*
X103131429Y-51585714D01*
X103226667Y-51633333D01*
X103274286Y-51728571D01*
X103274286Y-52252381D01*
X104179048Y-51585714D02*
X104179048Y-52395238D01*
X104131429Y-52490476D01*
X104083810Y-52538095D01*
X103988571Y-52585714D01*
X103845714Y-52585714D01*
X103750476Y-52538095D01*
X104179048Y-52204762D02*
X104083810Y-52252381D01*
X103893333Y-52252381D01*
X103798095Y-52204762D01*
X103750476Y-52157143D01*
X103702857Y-52061905D01*
X103702857Y-51776190D01*
X103750476Y-51680952D01*
X103798095Y-51633333D01*
X103893333Y-51585714D01*
X104083810Y-51585714D01*
X104179048Y-51633333D01*
X104655238Y-52252381D02*
X104655238Y-51252381D01*
X104655238Y-51728571D02*
X105226667Y-51728571D01*
X105226667Y-52252381D02*
X105226667Y-51252381D01*
X105845714Y-52252381D02*
X105750476Y-52204762D01*
X105702857Y-52157143D01*
X105655238Y-52061905D01*
X105655238Y-51776190D01*
X105702857Y-51680952D01*
X105750476Y-51633333D01*
X105845714Y-51585714D01*
X105988572Y-51585714D01*
X106083810Y-51633333D01*
X106131429Y-51680952D01*
X106179048Y-51776190D01*
X106179048Y-52061905D01*
X106131429Y-52157143D01*
X106083810Y-52204762D01*
X105988572Y-52252381D01*
X105845714Y-52252381D01*
X106750476Y-52252381D02*
X106655238Y-52204762D01*
X106607619Y-52109524D01*
X106607619Y-51252381D01*
X107512382Y-52204762D02*
X107417144Y-52252381D01*
X107226667Y-52252381D01*
X107131429Y-52204762D01*
X107083810Y-52109524D01*
X107083810Y-51728571D01*
X107131429Y-51633333D01*
X107226667Y-51585714D01*
X107417144Y-51585714D01*
X107512382Y-51633333D01*
X107560001Y-51728571D01*
X107560001Y-51823810D01*
X107083810Y-51919048D01*
X107750477Y-52347619D02*
X108512382Y-52347619D01*
X108702858Y-51347619D02*
X108750477Y-51300000D01*
X108845715Y-51252381D01*
X109083811Y-51252381D01*
X109179049Y-51300000D01*
X109226668Y-51347619D01*
X109274287Y-51442857D01*
X109274287Y-51538095D01*
X109226668Y-51680952D01*
X108655239Y-52252381D01*
X109274287Y-52252381D01*
X109702858Y-52157143D02*
X109750477Y-52204762D01*
X109702858Y-52252381D01*
X109655239Y-52204762D01*
X109702858Y-52157143D01*
X109702858Y-52252381D01*
X110131429Y-51347619D02*
X110179048Y-51300000D01*
X110274286Y-51252381D01*
X110512382Y-51252381D01*
X110607620Y-51300000D01*
X110655239Y-51347619D01*
X110702858Y-51442857D01*
X110702858Y-51538095D01*
X110655239Y-51680952D01*
X110083810Y-52252381D01*
X110702858Y-52252381D01*
X111131429Y-52252381D02*
X111131429Y-51585714D01*
X111131429Y-51680952D02*
X111179048Y-51633333D01*
X111274286Y-51585714D01*
X111417144Y-51585714D01*
X111512382Y-51633333D01*
X111560001Y-51728571D01*
X111560001Y-52252381D01*
X111560001Y-51728571D02*
X111607620Y-51633333D01*
X111702858Y-51585714D01*
X111845715Y-51585714D01*
X111940953Y-51633333D01*
X111988572Y-51728571D01*
X111988572Y-52252381D01*
X112464762Y-52252381D02*
X112464762Y-51585714D01*
X112464762Y-51680952D02*
X112512381Y-51633333D01*
X112607619Y-51585714D01*
X112750477Y-51585714D01*
X112845715Y-51633333D01*
X112893334Y-51728571D01*
X112893334Y-52252381D01*
X112893334Y-51728571D02*
X112940953Y-51633333D01*
X113036191Y-51585714D01*
X113179048Y-51585714D01*
X113274286Y-51633333D01*
X113321905Y-51728571D01*
X113321905Y-52252381D01*
X113560000Y-52347619D02*
X114321905Y-52347619D01*
X114560000Y-52252381D02*
X114560000Y-51252381D01*
X114893334Y-51966667D01*
X115226667Y-51252381D01*
X115226667Y-52252381D01*
X115655238Y-51347619D02*
X115702857Y-51300000D01*
X115798095Y-51252381D01*
X116036191Y-51252381D01*
X116131429Y-51300000D01*
X116179048Y-51347619D01*
X116226667Y-51442857D01*
X116226667Y-51538095D01*
X116179048Y-51680952D01*
X115607619Y-52252381D01*
X116226667Y-52252381D01*
X116790952Y-98752381D02*
X116790952Y-97752381D01*
X117124286Y-98466667D01*
X117457619Y-97752381D01*
X117457619Y-98752381D01*
X118076666Y-98752381D02*
X117981428Y-98704762D01*
X117933809Y-98657143D01*
X117886190Y-98561905D01*
X117886190Y-98276190D01*
X117933809Y-98180952D01*
X117981428Y-98133333D01*
X118076666Y-98085714D01*
X118219524Y-98085714D01*
X118314762Y-98133333D01*
X118362381Y-98180952D01*
X118410000Y-98276190D01*
X118410000Y-98561905D01*
X118362381Y-98657143D01*
X118314762Y-98704762D01*
X118219524Y-98752381D01*
X118076666Y-98752381D01*
X119267143Y-98085714D02*
X119267143Y-98752381D01*
X118838571Y-98085714D02*
X118838571Y-98609524D01*
X118886190Y-98704762D01*
X118981428Y-98752381D01*
X119124286Y-98752381D01*
X119219524Y-98704762D01*
X119267143Y-98657143D01*
X119743333Y-98085714D02*
X119743333Y-98752381D01*
X119743333Y-98180952D02*
X119790952Y-98133333D01*
X119886190Y-98085714D01*
X120029048Y-98085714D01*
X120124286Y-98133333D01*
X120171905Y-98228571D01*
X120171905Y-98752381D01*
X120505238Y-98085714D02*
X120886190Y-98085714D01*
X120648095Y-97752381D02*
X120648095Y-98609524D01*
X120695714Y-98704762D01*
X120790952Y-98752381D01*
X120886190Y-98752381D01*
X121219524Y-98752381D02*
X121219524Y-98085714D01*
X121219524Y-97752381D02*
X121171905Y-97800000D01*
X121219524Y-97847619D01*
X121267143Y-97800000D01*
X121219524Y-97752381D01*
X121219524Y-97847619D01*
X121695714Y-98085714D02*
X121695714Y-98752381D01*
X121695714Y-98180952D02*
X121743333Y-98133333D01*
X121838571Y-98085714D01*
X121981429Y-98085714D01*
X122076667Y-98133333D01*
X122124286Y-98228571D01*
X122124286Y-98752381D01*
X123029048Y-98085714D02*
X123029048Y-98895238D01*
X122981429Y-98990476D01*
X122933810Y-99038095D01*
X122838571Y-99085714D01*
X122695714Y-99085714D01*
X122600476Y-99038095D01*
X123029048Y-98704762D02*
X122933810Y-98752381D01*
X122743333Y-98752381D01*
X122648095Y-98704762D01*
X122600476Y-98657143D01*
X122552857Y-98561905D01*
X122552857Y-98276190D01*
X122600476Y-98180952D01*
X122648095Y-98133333D01*
X122743333Y-98085714D01*
X122933810Y-98085714D01*
X123029048Y-98133333D01*
X123505238Y-98752381D02*
X123505238Y-97752381D01*
X123505238Y-98228571D02*
X124076667Y-98228571D01*
X124076667Y-98752381D02*
X124076667Y-97752381D01*
X124695714Y-98752381D02*
X124600476Y-98704762D01*
X124552857Y-98657143D01*
X124505238Y-98561905D01*
X124505238Y-98276190D01*
X124552857Y-98180952D01*
X124600476Y-98133333D01*
X124695714Y-98085714D01*
X124838572Y-98085714D01*
X124933810Y-98133333D01*
X124981429Y-98180952D01*
X125029048Y-98276190D01*
X125029048Y-98561905D01*
X124981429Y-98657143D01*
X124933810Y-98704762D01*
X124838572Y-98752381D01*
X124695714Y-98752381D01*
X125600476Y-98752381D02*
X125505238Y-98704762D01*
X125457619Y-98609524D01*
X125457619Y-97752381D01*
X126362382Y-98704762D02*
X126267144Y-98752381D01*
X126076667Y-98752381D01*
X125981429Y-98704762D01*
X125933810Y-98609524D01*
X125933810Y-98228571D01*
X125981429Y-98133333D01*
X126076667Y-98085714D01*
X126267144Y-98085714D01*
X126362382Y-98133333D01*
X126410001Y-98228571D01*
X126410001Y-98323810D01*
X125933810Y-98419048D01*
X126600477Y-98847619D02*
X127362382Y-98847619D01*
X127552858Y-97847619D02*
X127600477Y-97800000D01*
X127695715Y-97752381D01*
X127933811Y-97752381D01*
X128029049Y-97800000D01*
X128076668Y-97847619D01*
X128124287Y-97942857D01*
X128124287Y-98038095D01*
X128076668Y-98180952D01*
X127505239Y-98752381D01*
X128124287Y-98752381D01*
X128552858Y-98657143D02*
X128600477Y-98704762D01*
X128552858Y-98752381D01*
X128505239Y-98704762D01*
X128552858Y-98657143D01*
X128552858Y-98752381D01*
X128981429Y-97847619D02*
X129029048Y-97800000D01*
X129124286Y-97752381D01*
X129362382Y-97752381D01*
X129457620Y-97800000D01*
X129505239Y-97847619D01*
X129552858Y-97942857D01*
X129552858Y-98038095D01*
X129505239Y-98180952D01*
X128933810Y-98752381D01*
X129552858Y-98752381D01*
X129981429Y-98752381D02*
X129981429Y-98085714D01*
X129981429Y-98180952D02*
X130029048Y-98133333D01*
X130124286Y-98085714D01*
X130267144Y-98085714D01*
X130362382Y-98133333D01*
X130410001Y-98228571D01*
X130410001Y-98752381D01*
X130410001Y-98228571D02*
X130457620Y-98133333D01*
X130552858Y-98085714D01*
X130695715Y-98085714D01*
X130790953Y-98133333D01*
X130838572Y-98228571D01*
X130838572Y-98752381D01*
X131314762Y-98752381D02*
X131314762Y-98085714D01*
X131314762Y-98180952D02*
X131362381Y-98133333D01*
X131457619Y-98085714D01*
X131600477Y-98085714D01*
X131695715Y-98133333D01*
X131743334Y-98228571D01*
X131743334Y-98752381D01*
X131743334Y-98228571D02*
X131790953Y-98133333D01*
X131886191Y-98085714D01*
X132029048Y-98085714D01*
X132124286Y-98133333D01*
X132171905Y-98228571D01*
X132171905Y-98752381D01*
X132410000Y-98847619D02*
X133171905Y-98847619D01*
X133410000Y-98752381D02*
X133410000Y-97752381D01*
X133743334Y-98466667D01*
X134076667Y-97752381D01*
X134076667Y-98752381D01*
X134505238Y-97847619D02*
X134552857Y-97800000D01*
X134648095Y-97752381D01*
X134886191Y-97752381D01*
X134981429Y-97800000D01*
X135029048Y-97847619D01*
X135076667Y-97942857D01*
X135076667Y-98038095D01*
X135029048Y-98180952D01*
X134457619Y-98752381D01*
X135076667Y-98752381D01*
X124876667Y-95552381D02*
X124543333Y-95076190D01*
X124305238Y-95552381D02*
X124305238Y-94552381D01*
X124686191Y-94552381D01*
X124781429Y-94600000D01*
X124829048Y-94647619D01*
X124876667Y-94742857D01*
X124876667Y-94885714D01*
X124829048Y-94980952D01*
X124781429Y-95028571D01*
X124686191Y-95076190D01*
X124305238Y-95076190D01*
X125305238Y-95028571D02*
X125638572Y-95028571D01*
X125781429Y-95552381D02*
X125305238Y-95552381D01*
X125305238Y-94552381D01*
X125781429Y-94552381D01*
X126543334Y-95028571D02*
X126210000Y-95028571D01*
X126210000Y-95552381D02*
X126210000Y-94552381D01*
X126686191Y-94552381D01*
X127210000Y-94552381D02*
X127210000Y-94790476D01*
X126971905Y-94695238D02*
X127210000Y-94790476D01*
X127448096Y-94695238D01*
X127067143Y-94980952D02*
X127210000Y-94790476D01*
X127352858Y-94980952D01*
X127971905Y-94552381D02*
X127971905Y-94790476D01*
X127733810Y-94695238D02*
X127971905Y-94790476D01*
X128210001Y-94695238D01*
X127829048Y-94980952D02*
X127971905Y-94790476D01*
X128114763Y-94980952D01*
M02*
