G04 #@! TF.FileFunction,Legend,Bot*
%FSLAX46Y46*%
G04 Gerber Fmt 4.6, Leading zero omitted, Abs format (unit mm)*
G04 Created by KiCad (PCBNEW 4.0.7-e2-6376~61~ubuntu18.04.1) date Thu Mar 14 12:40:49 2019*
%MOMM*%
%LPD*%
G01*
G04 APERTURE LIST*
%ADD10C,0.100000*%
%ADD11C,0.250000*%
%ADD12C,0.150000*%
%ADD13C,0.120000*%
%ADD14C,0.203200*%
%ADD15C,0.010000*%
%ADD16C,0.130000*%
%ADD17C,0.025400*%
G04 APERTURE END LIST*
D10*
D11*
X127617143Y-46643572D02*
X127617143Y-47786429D01*
X127602857Y-44619762D02*
X127602857Y-45610238D01*
X128098095Y-45115000D02*
X127107619Y-45115000D01*
D12*
X113470000Y-101742619D02*
X113470000Y-100933095D01*
X113517619Y-100837857D01*
X113565238Y-100790238D01*
X113660476Y-100742619D01*
X113850953Y-100742619D01*
X113946191Y-100790238D01*
X113993810Y-100837857D01*
X114041429Y-100933095D01*
X114041429Y-101742619D01*
X114993810Y-100742619D02*
X114517619Y-100742619D01*
X114517619Y-101742619D01*
X115327143Y-100742619D02*
X115327143Y-101742619D01*
X115708096Y-101742619D01*
X115803334Y-101695000D01*
X115850953Y-101647381D01*
X115898572Y-101552143D01*
X115898572Y-101409286D01*
X115850953Y-101314048D01*
X115803334Y-101266429D01*
X115708096Y-101218810D01*
X115327143Y-101218810D01*
X116803334Y-100742619D02*
X116327143Y-100742619D01*
X116327143Y-101742619D01*
X117279524Y-100742619D02*
X117184286Y-100790238D01*
X117136667Y-100837857D01*
X117089048Y-100933095D01*
X117089048Y-101218810D01*
X117136667Y-101314048D01*
X117184286Y-101361667D01*
X117279524Y-101409286D01*
X117422382Y-101409286D01*
X117517620Y-101361667D01*
X117565239Y-101314048D01*
X117612858Y-101218810D01*
X117612858Y-100933095D01*
X117565239Y-100837857D01*
X117517620Y-100790238D01*
X117422382Y-100742619D01*
X117279524Y-100742619D01*
X118612858Y-100742619D02*
X118279524Y-101218810D01*
X118041429Y-100742619D02*
X118041429Y-101742619D01*
X118422382Y-101742619D01*
X118517620Y-101695000D01*
X118565239Y-101647381D01*
X118612858Y-101552143D01*
X118612858Y-101409286D01*
X118565239Y-101314048D01*
X118517620Y-101266429D01*
X118422382Y-101218810D01*
X118041429Y-101218810D01*
X119470001Y-100742619D02*
X119470001Y-101266429D01*
X119422382Y-101361667D01*
X119327144Y-101409286D01*
X119136667Y-101409286D01*
X119041429Y-101361667D01*
X119470001Y-100790238D02*
X119374763Y-100742619D01*
X119136667Y-100742619D01*
X119041429Y-100790238D01*
X118993810Y-100885476D01*
X118993810Y-100980714D01*
X119041429Y-101075952D01*
X119136667Y-101123571D01*
X119374763Y-101123571D01*
X119470001Y-101171190D01*
X110636667Y-99092619D02*
X110636667Y-100092619D01*
X110874762Y-100092619D01*
X111017620Y-100045000D01*
X111112858Y-99949762D01*
X111160477Y-99854524D01*
X111208096Y-99664048D01*
X111208096Y-99521190D01*
X111160477Y-99330714D01*
X111112858Y-99235476D01*
X111017620Y-99140238D01*
X110874762Y-99092619D01*
X110636667Y-99092619D01*
X111779524Y-99092619D02*
X111684286Y-99140238D01*
X111636667Y-99187857D01*
X111589048Y-99283095D01*
X111589048Y-99568810D01*
X111636667Y-99664048D01*
X111684286Y-99711667D01*
X111779524Y-99759286D01*
X111922382Y-99759286D01*
X112017620Y-99711667D01*
X112065239Y-99664048D01*
X112112858Y-99568810D01*
X112112858Y-99283095D01*
X112065239Y-99187857D01*
X112017620Y-99140238D01*
X111922382Y-99092619D01*
X111779524Y-99092619D01*
X112970001Y-99140238D02*
X112874763Y-99092619D01*
X112684286Y-99092619D01*
X112589048Y-99140238D01*
X112541429Y-99187857D01*
X112493810Y-99283095D01*
X112493810Y-99568810D01*
X112541429Y-99664048D01*
X112589048Y-99711667D01*
X112684286Y-99759286D01*
X112874763Y-99759286D01*
X112970001Y-99711667D01*
X114160477Y-99187857D02*
X114208096Y-99140238D01*
X114160477Y-99092619D01*
X114112858Y-99140238D01*
X114160477Y-99187857D01*
X114160477Y-99092619D01*
X114160477Y-99711667D02*
X114208096Y-99664048D01*
X114160477Y-99616429D01*
X114112858Y-99664048D01*
X114160477Y-99711667D01*
X114160477Y-99616429D01*
X115541429Y-99092619D02*
X115446191Y-99140238D01*
X115398572Y-99187857D01*
X115350953Y-99283095D01*
X115350953Y-99568810D01*
X115398572Y-99664048D01*
X115446191Y-99711667D01*
X115541429Y-99759286D01*
X115684287Y-99759286D01*
X115779525Y-99711667D01*
X115827144Y-99664048D01*
X115874763Y-99568810D01*
X115874763Y-99283095D01*
X115827144Y-99187857D01*
X115779525Y-99140238D01*
X115684287Y-99092619D01*
X115541429Y-99092619D01*
X116303334Y-99759286D02*
X116303334Y-98759286D01*
X116303334Y-99711667D02*
X116398572Y-99759286D01*
X116589049Y-99759286D01*
X116684287Y-99711667D01*
X116731906Y-99664048D01*
X116779525Y-99568810D01*
X116779525Y-99283095D01*
X116731906Y-99187857D01*
X116684287Y-99140238D01*
X116589049Y-99092619D01*
X116398572Y-99092619D01*
X116303334Y-99140238D01*
X117589049Y-99140238D02*
X117493811Y-99092619D01*
X117303334Y-99092619D01*
X117208096Y-99140238D01*
X117160477Y-99235476D01*
X117160477Y-99616429D01*
X117208096Y-99711667D01*
X117303334Y-99759286D01*
X117493811Y-99759286D01*
X117589049Y-99711667D01*
X117636668Y-99616429D01*
X117636668Y-99521190D01*
X117160477Y-99425952D01*
X118065239Y-99759286D02*
X118065239Y-99092619D01*
X118065239Y-99664048D02*
X118112858Y-99711667D01*
X118208096Y-99759286D01*
X118350954Y-99759286D01*
X118446192Y-99711667D01*
X118493811Y-99616429D01*
X118493811Y-99092619D01*
X118970001Y-99092619D02*
X118970001Y-99759286D01*
X118970001Y-100092619D02*
X118922382Y-100045000D01*
X118970001Y-99997381D01*
X119017620Y-100045000D01*
X118970001Y-100092619D01*
X118970001Y-99997381D01*
X119589048Y-99092619D02*
X119493810Y-99140238D01*
X119446191Y-99187857D01*
X119398572Y-99283095D01*
X119398572Y-99568810D01*
X119446191Y-99664048D01*
X119493810Y-99711667D01*
X119589048Y-99759286D01*
X119731906Y-99759286D01*
X119827144Y-99711667D01*
X119874763Y-99664048D01*
X119922382Y-99568810D01*
X119922382Y-99283095D01*
X119874763Y-99187857D01*
X119827144Y-99140238D01*
X119731906Y-99092619D01*
X119589048Y-99092619D01*
X120208096Y-99759286D02*
X120589048Y-99759286D01*
X120350953Y-100092619D02*
X120350953Y-99235476D01*
X120398572Y-99140238D01*
X120493810Y-99092619D01*
X120589048Y-99092619D01*
X120922382Y-99187857D02*
X120970001Y-99140238D01*
X120922382Y-99092619D01*
X120874763Y-99140238D01*
X120922382Y-99187857D01*
X120922382Y-99092619D01*
X121398572Y-99092619D02*
X121398572Y-99759286D01*
X121398572Y-100092619D02*
X121350953Y-100045000D01*
X121398572Y-99997381D01*
X121446191Y-100045000D01*
X121398572Y-100092619D01*
X121398572Y-99997381D01*
X121874762Y-99759286D02*
X121874762Y-99092619D01*
X121874762Y-99664048D02*
X121922381Y-99711667D01*
X122017619Y-99759286D01*
X122160477Y-99759286D01*
X122255715Y-99711667D01*
X122303334Y-99616429D01*
X122303334Y-99092619D01*
X109327142Y-97442619D02*
X109327142Y-98442619D01*
X109708095Y-98442619D01*
X109803333Y-98395000D01*
X109850952Y-98347381D01*
X109898571Y-98252143D01*
X109898571Y-98109286D01*
X109850952Y-98014048D01*
X109803333Y-97966429D01*
X109708095Y-97918810D01*
X109327142Y-97918810D01*
X110327142Y-97442619D02*
X110327142Y-98109286D01*
X110327142Y-97918810D02*
X110374761Y-98014048D01*
X110422380Y-98061667D01*
X110517618Y-98109286D01*
X110612857Y-98109286D01*
X111089047Y-97442619D02*
X110993809Y-97490238D01*
X110946190Y-97537857D01*
X110898571Y-97633095D01*
X110898571Y-97918810D01*
X110946190Y-98014048D01*
X110993809Y-98061667D01*
X111089047Y-98109286D01*
X111231905Y-98109286D01*
X111327143Y-98061667D01*
X111374762Y-98014048D01*
X111422381Y-97918810D01*
X111422381Y-97633095D01*
X111374762Y-97537857D01*
X111327143Y-97490238D01*
X111231905Y-97442619D01*
X111089047Y-97442619D01*
X111850952Y-98109286D02*
X111850952Y-97252143D01*
X111803333Y-97156905D01*
X111708095Y-97109286D01*
X111660476Y-97109286D01*
X111850952Y-98442619D02*
X111803333Y-98395000D01*
X111850952Y-98347381D01*
X111898571Y-98395000D01*
X111850952Y-98442619D01*
X111850952Y-98347381D01*
X112708095Y-97490238D02*
X112612857Y-97442619D01*
X112422380Y-97442619D01*
X112327142Y-97490238D01*
X112279523Y-97585476D01*
X112279523Y-97966429D01*
X112327142Y-98061667D01*
X112422380Y-98109286D01*
X112612857Y-98109286D01*
X112708095Y-98061667D01*
X112755714Y-97966429D01*
X112755714Y-97871190D01*
X112279523Y-97775952D01*
X113612857Y-97490238D02*
X113517619Y-97442619D01*
X113327142Y-97442619D01*
X113231904Y-97490238D01*
X113184285Y-97537857D01*
X113136666Y-97633095D01*
X113136666Y-97918810D01*
X113184285Y-98014048D01*
X113231904Y-98061667D01*
X113327142Y-98109286D01*
X113517619Y-98109286D01*
X113612857Y-98061667D01*
X113898571Y-98109286D02*
X114279523Y-98109286D01*
X114041428Y-98442619D02*
X114041428Y-97585476D01*
X114089047Y-97490238D01*
X114184285Y-97442619D01*
X114279523Y-97442619D01*
X115374762Y-97442619D02*
X115374762Y-98442619D01*
X115374762Y-98061667D02*
X115470000Y-98109286D01*
X115660477Y-98109286D01*
X115755715Y-98061667D01*
X115803334Y-98014048D01*
X115850953Y-97918810D01*
X115850953Y-97633095D01*
X115803334Y-97537857D01*
X115755715Y-97490238D01*
X115660477Y-97442619D01*
X115470000Y-97442619D01*
X115374762Y-97490238D01*
X116184286Y-98109286D02*
X116422381Y-97442619D01*
X116660477Y-98109286D02*
X116422381Y-97442619D01*
X116327143Y-97204524D01*
X116279524Y-97156905D01*
X116184286Y-97109286D01*
X117803334Y-97442619D02*
X117803334Y-98109286D01*
X117803334Y-98442619D02*
X117755715Y-98395000D01*
X117803334Y-98347381D01*
X117850953Y-98395000D01*
X117803334Y-98442619D01*
X117803334Y-98347381D01*
X118708096Y-97490238D02*
X118612858Y-97442619D01*
X118422381Y-97442619D01*
X118327143Y-97490238D01*
X118279524Y-97537857D01*
X118231905Y-97633095D01*
X118231905Y-97918810D01*
X118279524Y-98014048D01*
X118327143Y-98061667D01*
X118422381Y-98109286D01*
X118612858Y-98109286D01*
X118708096Y-98061667D01*
X118993810Y-98109286D02*
X119374762Y-98109286D01*
X119136667Y-97442619D02*
X119136667Y-98299762D01*
X119184286Y-98395000D01*
X119279524Y-98442619D01*
X119374762Y-98442619D01*
X119850953Y-97442619D02*
X119755715Y-97490238D01*
X119708096Y-97537857D01*
X119660477Y-97633095D01*
X119660477Y-97918810D01*
X119708096Y-98014048D01*
X119755715Y-98061667D01*
X119850953Y-98109286D01*
X119993811Y-98109286D01*
X120089049Y-98061667D01*
X120136668Y-98014048D01*
X120184287Y-97918810D01*
X120184287Y-97633095D01*
X120136668Y-97537857D01*
X120089049Y-97490238D01*
X119993811Y-97442619D01*
X119850953Y-97442619D01*
X120565239Y-97490238D02*
X120660477Y-97442619D01*
X120850953Y-97442619D01*
X120946192Y-97490238D01*
X120993811Y-97585476D01*
X120993811Y-97633095D01*
X120946192Y-97728333D01*
X120850953Y-97775952D01*
X120708096Y-97775952D01*
X120612858Y-97823571D01*
X120565239Y-97918810D01*
X120565239Y-97966429D01*
X120612858Y-98061667D01*
X120708096Y-98109286D01*
X120850953Y-98109286D01*
X120946192Y-98061667D01*
X121374763Y-97490238D02*
X121470001Y-97442619D01*
X121660477Y-97442619D01*
X121755716Y-97490238D01*
X121803335Y-97585476D01*
X121803335Y-97633095D01*
X121755716Y-97728333D01*
X121660477Y-97775952D01*
X121517620Y-97775952D01*
X121422382Y-97823571D01*
X121374763Y-97918810D01*
X121374763Y-97966429D01*
X121422382Y-98061667D01*
X121517620Y-98109286D01*
X121660477Y-98109286D01*
X121755716Y-98061667D01*
X122231906Y-97537857D02*
X122279525Y-97490238D01*
X122231906Y-97442619D01*
X122184287Y-97490238D01*
X122231906Y-97537857D01*
X122231906Y-97442619D01*
X122708096Y-97442619D02*
X122708096Y-98109286D01*
X122708096Y-98442619D02*
X122660477Y-98395000D01*
X122708096Y-98347381D01*
X122755715Y-98395000D01*
X122708096Y-98442619D01*
X122708096Y-98347381D01*
X123184286Y-98109286D02*
X123184286Y-97442619D01*
X123184286Y-98014048D02*
X123231905Y-98061667D01*
X123327143Y-98109286D01*
X123470001Y-98109286D01*
X123565239Y-98061667D01*
X123612858Y-97966429D01*
X123612858Y-97442619D01*
D13*
X113800000Y-55030000D02*
X114800000Y-55030000D01*
X114800000Y-56730000D02*
X113800000Y-56730000D01*
X107661400Y-50486000D02*
X110321400Y-50486000D01*
X107661400Y-78486000D02*
X107661400Y-50486000D01*
X110321400Y-78486000D02*
X110321400Y-50486000D01*
X107661400Y-78486000D02*
X110321400Y-78486000D01*
X107661400Y-79756000D02*
X107661400Y-81086000D01*
X107661400Y-81086000D02*
X108991400Y-81086000D01*
X122030800Y-43424800D02*
X122030800Y-46084800D01*
X109270800Y-43424800D02*
X122030800Y-43424800D01*
X109270800Y-46084800D02*
X122030800Y-46084800D01*
X109270800Y-43424800D02*
X109270800Y-46084800D01*
X108000800Y-43424800D02*
X106670800Y-43424800D01*
X106670800Y-43424800D02*
X106670800Y-44754800D01*
X117138000Y-52086000D02*
X117138000Y-54086000D01*
X120098000Y-54086000D02*
X120098000Y-52086000D01*
D14*
X111610140Y-58328560D02*
X112905540Y-58328560D01*
X112905540Y-62075060D02*
X111610140Y-62075060D01*
D13*
X113546000Y-48426000D02*
X114546000Y-48426000D01*
X114546000Y-50126000D02*
X113546000Y-50126000D01*
X110652000Y-106290000D02*
X111852000Y-106290000D01*
X111852000Y-104530000D02*
X110652000Y-104530000D01*
X117466000Y-80356000D02*
X117466000Y-79156000D01*
X115706000Y-79156000D02*
X115706000Y-80356000D01*
X119660000Y-75795000D02*
X118460000Y-75795000D01*
X118460000Y-77555000D02*
X119660000Y-77555000D01*
X111337200Y-78013000D02*
X111337200Y-79213000D01*
X113097200Y-79213000D02*
X113097200Y-78013000D01*
D12*
X113075000Y-51182000D02*
X115525000Y-51182000D01*
X112350000Y-54482000D02*
X115525000Y-54482000D01*
D13*
X122876000Y-53026000D02*
X125536000Y-53026000D01*
X122876000Y-78486000D02*
X122876000Y-53026000D01*
X125536000Y-78486000D02*
X125536000Y-53026000D01*
X122876000Y-78486000D02*
X125536000Y-78486000D01*
X122876000Y-79756000D02*
X122876000Y-81086000D01*
X122876000Y-81086000D02*
X124206000Y-81086000D01*
X122855000Y-50470000D02*
X125515000Y-50470000D01*
X122855000Y-50530000D02*
X122855000Y-50470000D01*
X125515000Y-50530000D02*
X125515000Y-50470000D01*
X122855000Y-50530000D02*
X125515000Y-50530000D01*
X122855000Y-51800000D02*
X122855000Y-53130000D01*
X122855000Y-53130000D02*
X124185000Y-53130000D01*
D15*
G36*
X114219744Y-103155082D02*
X114275201Y-103127432D01*
X114324148Y-103076520D01*
X114337629Y-103057662D01*
X114352314Y-103032985D01*
X114361842Y-103006184D01*
X114367293Y-102970413D01*
X114369747Y-102918831D01*
X114370286Y-102850733D01*
X114367852Y-102757412D01*
X114359394Y-102687343D01*
X114343174Y-102635069D01*
X114317454Y-102595131D01*
X114280497Y-102562071D01*
X114277782Y-102560114D01*
X114241360Y-102540092D01*
X114197502Y-102530185D01*
X114141724Y-102527743D01*
X114051048Y-102527743D01*
X114051010Y-102439717D01*
X114050166Y-102390692D01*
X114045024Y-102361935D01*
X114031587Y-102344689D01*
X114005858Y-102330192D01*
X113999679Y-102327231D01*
X113970764Y-102313352D01*
X113948376Y-102304586D01*
X113931729Y-102303829D01*
X113920036Y-102313977D01*
X113912510Y-102337927D01*
X113908366Y-102378574D01*
X113906815Y-102438814D01*
X113907071Y-102521545D01*
X113908349Y-102629661D01*
X113908748Y-102662000D01*
X113910185Y-102773476D01*
X113911472Y-102846397D01*
X114050971Y-102846397D01*
X114051755Y-102784501D01*
X114055240Y-102744003D01*
X114063124Y-102717292D01*
X114077105Y-102696756D01*
X114086597Y-102686740D01*
X114125404Y-102657433D01*
X114159763Y-102655048D01*
X114195216Y-102679250D01*
X114196114Y-102680143D01*
X114210539Y-102698847D01*
X114219313Y-102724268D01*
X114223739Y-102763416D01*
X114225118Y-102823303D01*
X114225143Y-102836570D01*
X114221812Y-102919099D01*
X114210969Y-102976309D01*
X114191340Y-103011234D01*
X114161650Y-103026906D01*
X114144491Y-103028486D01*
X114103766Y-103021074D01*
X114075832Y-102996670D01*
X114059017Y-102952020D01*
X114051650Y-102883870D01*
X114050971Y-102846397D01*
X113911472Y-102846397D01*
X113911708Y-102859755D01*
X113913677Y-102924667D01*
X113916450Y-102972042D01*
X113920388Y-103005710D01*
X113925849Y-103029502D01*
X113933192Y-103047247D01*
X113942777Y-103062776D01*
X113946887Y-103068619D01*
X114001405Y-103123815D01*
X114070336Y-103155110D01*
X114150072Y-103163835D01*
X114219744Y-103155082D01*
X114219744Y-103155082D01*
G37*
X114219744Y-103155082D02*
X114275201Y-103127432D01*
X114324148Y-103076520D01*
X114337629Y-103057662D01*
X114352314Y-103032985D01*
X114361842Y-103006184D01*
X114367293Y-102970413D01*
X114369747Y-102918831D01*
X114370286Y-102850733D01*
X114367852Y-102757412D01*
X114359394Y-102687343D01*
X114343174Y-102635069D01*
X114317454Y-102595131D01*
X114280497Y-102562071D01*
X114277782Y-102560114D01*
X114241360Y-102540092D01*
X114197502Y-102530185D01*
X114141724Y-102527743D01*
X114051048Y-102527743D01*
X114051010Y-102439717D01*
X114050166Y-102390692D01*
X114045024Y-102361935D01*
X114031587Y-102344689D01*
X114005858Y-102330192D01*
X113999679Y-102327231D01*
X113970764Y-102313352D01*
X113948376Y-102304586D01*
X113931729Y-102303829D01*
X113920036Y-102313977D01*
X113912510Y-102337927D01*
X113908366Y-102378574D01*
X113906815Y-102438814D01*
X113907071Y-102521545D01*
X113908349Y-102629661D01*
X113908748Y-102662000D01*
X113910185Y-102773476D01*
X113911472Y-102846397D01*
X114050971Y-102846397D01*
X114051755Y-102784501D01*
X114055240Y-102744003D01*
X114063124Y-102717292D01*
X114077105Y-102696756D01*
X114086597Y-102686740D01*
X114125404Y-102657433D01*
X114159763Y-102655048D01*
X114195216Y-102679250D01*
X114196114Y-102680143D01*
X114210539Y-102698847D01*
X114219313Y-102724268D01*
X114223739Y-102763416D01*
X114225118Y-102823303D01*
X114225143Y-102836570D01*
X114221812Y-102919099D01*
X114210969Y-102976309D01*
X114191340Y-103011234D01*
X114161650Y-103026906D01*
X114144491Y-103028486D01*
X114103766Y-103021074D01*
X114075832Y-102996670D01*
X114059017Y-102952020D01*
X114051650Y-102883870D01*
X114050971Y-102846397D01*
X113911472Y-102846397D01*
X113911708Y-102859755D01*
X113913677Y-102924667D01*
X113916450Y-102972042D01*
X113920388Y-103005710D01*
X113925849Y-103029502D01*
X113933192Y-103047247D01*
X113942777Y-103062776D01*
X113946887Y-103068619D01*
X114001405Y-103123815D01*
X114070336Y-103155110D01*
X114150072Y-103163835D01*
X114219744Y-103155082D01*
G36*
X115336093Y-103147220D02*
X115382672Y-103120277D01*
X115415057Y-103093534D01*
X115438742Y-103065516D01*
X115455059Y-103031252D01*
X115465339Y-102985773D01*
X115470914Y-102924108D01*
X115473116Y-102841289D01*
X115473371Y-102781754D01*
X115473371Y-102562609D01*
X115411686Y-102534956D01*
X115350000Y-102507303D01*
X115342743Y-102747330D01*
X115339744Y-102836972D01*
X115336598Y-102902038D01*
X115332701Y-102946974D01*
X115327447Y-102976230D01*
X115320231Y-102994252D01*
X115310450Y-103005489D01*
X115307312Y-103007921D01*
X115259761Y-103026917D01*
X115211697Y-103019400D01*
X115183086Y-102999457D01*
X115171447Y-102985325D01*
X115163391Y-102966780D01*
X115158271Y-102938666D01*
X115155441Y-102895827D01*
X115154256Y-102833105D01*
X115154057Y-102767739D01*
X115154018Y-102685732D01*
X115152614Y-102627684D01*
X115147914Y-102588535D01*
X115137987Y-102563220D01*
X115120903Y-102546677D01*
X115094732Y-102533844D01*
X115059775Y-102520509D01*
X115021596Y-102505993D01*
X115026141Y-102763611D01*
X115027971Y-102856481D01*
X115030112Y-102925111D01*
X115033181Y-102974289D01*
X115037794Y-103008802D01*
X115044568Y-103033438D01*
X115054119Y-103052984D01*
X115065634Y-103070230D01*
X115121190Y-103125320D01*
X115188980Y-103157178D01*
X115262713Y-103164809D01*
X115336093Y-103147220D01*
X115336093Y-103147220D01*
G37*
X115336093Y-103147220D02*
X115382672Y-103120277D01*
X115415057Y-103093534D01*
X115438742Y-103065516D01*
X115455059Y-103031252D01*
X115465339Y-102985773D01*
X115470914Y-102924108D01*
X115473116Y-102841289D01*
X115473371Y-102781754D01*
X115473371Y-102562609D01*
X115411686Y-102534956D01*
X115350000Y-102507303D01*
X115342743Y-102747330D01*
X115339744Y-102836972D01*
X115336598Y-102902038D01*
X115332701Y-102946974D01*
X115327447Y-102976230D01*
X115320231Y-102994252D01*
X115310450Y-103005489D01*
X115307312Y-103007921D01*
X115259761Y-103026917D01*
X115211697Y-103019400D01*
X115183086Y-102999457D01*
X115171447Y-102985325D01*
X115163391Y-102966780D01*
X115158271Y-102938666D01*
X115155441Y-102895827D01*
X115154256Y-102833105D01*
X115154057Y-102767739D01*
X115154018Y-102685732D01*
X115152614Y-102627684D01*
X115147914Y-102588535D01*
X115137987Y-102563220D01*
X115120903Y-102546677D01*
X115094732Y-102533844D01*
X115059775Y-102520509D01*
X115021596Y-102505993D01*
X115026141Y-102763611D01*
X115027971Y-102856481D01*
X115030112Y-102925111D01*
X115033181Y-102974289D01*
X115037794Y-103008802D01*
X115044568Y-103033438D01*
X115054119Y-103052984D01*
X115065634Y-103070230D01*
X115121190Y-103125320D01*
X115188980Y-103157178D01*
X115262713Y-103164809D01*
X115336093Y-103147220D01*
G36*
X113661115Y-103153038D02*
X113729145Y-103117267D01*
X113779351Y-103059699D01*
X113797185Y-103022688D01*
X113811063Y-102967118D01*
X113818167Y-102896904D01*
X113818840Y-102820273D01*
X113813427Y-102745448D01*
X113802270Y-102680658D01*
X113785714Y-102634127D01*
X113780626Y-102626113D01*
X113720355Y-102566293D01*
X113648769Y-102530465D01*
X113571092Y-102519980D01*
X113492548Y-102536190D01*
X113470689Y-102545908D01*
X113428122Y-102575857D01*
X113390763Y-102615567D01*
X113387232Y-102620603D01*
X113372881Y-102644876D01*
X113363394Y-102670822D01*
X113357790Y-102704978D01*
X113355086Y-102753881D01*
X113354299Y-102824065D01*
X113354286Y-102839800D01*
X113354322Y-102844808D01*
X113499429Y-102844808D01*
X113500273Y-102778570D01*
X113503596Y-102734614D01*
X113510583Y-102706221D01*
X113522416Y-102686675D01*
X113528457Y-102680143D01*
X113563186Y-102655320D01*
X113596903Y-102656452D01*
X113630995Y-102677984D01*
X113651329Y-102700971D01*
X113663371Y-102734522D01*
X113670134Y-102787431D01*
X113670598Y-102793601D01*
X113671752Y-102889487D01*
X113659688Y-102960701D01*
X113634570Y-103006806D01*
X113596560Y-103027365D01*
X113582992Y-103028486D01*
X113547364Y-103022848D01*
X113522994Y-103003314D01*
X113508093Y-102965958D01*
X113500875Y-102906850D01*
X113499429Y-102844808D01*
X113354322Y-102844808D01*
X113354826Y-102914587D01*
X113357096Y-102966841D01*
X113362068Y-103003051D01*
X113370713Y-103029701D01*
X113384005Y-103053278D01*
X113386943Y-103057662D01*
X113436313Y-103116751D01*
X113490109Y-103151053D01*
X113555602Y-103164669D01*
X113577842Y-103165335D01*
X113661115Y-103153038D01*
X113661115Y-103153038D01*
G37*
X113661115Y-103153038D02*
X113729145Y-103117267D01*
X113779351Y-103059699D01*
X113797185Y-103022688D01*
X113811063Y-102967118D01*
X113818167Y-102896904D01*
X113818840Y-102820273D01*
X113813427Y-102745448D01*
X113802270Y-102680658D01*
X113785714Y-102634127D01*
X113780626Y-102626113D01*
X113720355Y-102566293D01*
X113648769Y-102530465D01*
X113571092Y-102519980D01*
X113492548Y-102536190D01*
X113470689Y-102545908D01*
X113428122Y-102575857D01*
X113390763Y-102615567D01*
X113387232Y-102620603D01*
X113372881Y-102644876D01*
X113363394Y-102670822D01*
X113357790Y-102704978D01*
X113355086Y-102753881D01*
X113354299Y-102824065D01*
X113354286Y-102839800D01*
X113354322Y-102844808D01*
X113499429Y-102844808D01*
X113500273Y-102778570D01*
X113503596Y-102734614D01*
X113510583Y-102706221D01*
X113522416Y-102686675D01*
X113528457Y-102680143D01*
X113563186Y-102655320D01*
X113596903Y-102656452D01*
X113630995Y-102677984D01*
X113651329Y-102700971D01*
X113663371Y-102734522D01*
X113670134Y-102787431D01*
X113670598Y-102793601D01*
X113671752Y-102889487D01*
X113659688Y-102960701D01*
X113634570Y-103006806D01*
X113596560Y-103027365D01*
X113582992Y-103028486D01*
X113547364Y-103022848D01*
X113522994Y-103003314D01*
X113508093Y-102965958D01*
X113500875Y-102906850D01*
X113499429Y-102844808D01*
X113354322Y-102844808D01*
X113354826Y-102914587D01*
X113357096Y-102966841D01*
X113362068Y-103003051D01*
X113370713Y-103029701D01*
X113384005Y-103053278D01*
X113386943Y-103057662D01*
X113436313Y-103116751D01*
X113490109Y-103151053D01*
X113555602Y-103164669D01*
X113577842Y-103165335D01*
X113661115Y-103153038D01*
G36*
X114788303Y-103143761D02*
X114845527Y-103105265D01*
X114889749Y-103049665D01*
X114916167Y-102978914D01*
X114921510Y-102926838D01*
X114920903Y-102905107D01*
X114915822Y-102888469D01*
X114901855Y-102873563D01*
X114874589Y-102857027D01*
X114829612Y-102835502D01*
X114762511Y-102805626D01*
X114762171Y-102805476D01*
X114700407Y-102777187D01*
X114649759Y-102752067D01*
X114615404Y-102732821D01*
X114602518Y-102722152D01*
X114602514Y-102722066D01*
X114613872Y-102698834D01*
X114640431Y-102673226D01*
X114670923Y-102654779D01*
X114686370Y-102651114D01*
X114728515Y-102663788D01*
X114764808Y-102695529D01*
X114782517Y-102730428D01*
X114799552Y-102756155D01*
X114832922Y-102785454D01*
X114872149Y-102810765D01*
X114906756Y-102824529D01*
X114913993Y-102825286D01*
X114922139Y-102812840D01*
X114922630Y-102781028D01*
X114916643Y-102738134D01*
X114905357Y-102692442D01*
X114889950Y-102652239D01*
X114889171Y-102650678D01*
X114842804Y-102585938D01*
X114782711Y-102541903D01*
X114714465Y-102520289D01*
X114643638Y-102522815D01*
X114575804Y-102551196D01*
X114572788Y-102553192D01*
X114519427Y-102601552D01*
X114484340Y-102664648D01*
X114464922Y-102747613D01*
X114462316Y-102770922D01*
X114457701Y-102880945D01*
X114463233Y-102932252D01*
X114602514Y-102932252D01*
X114604324Y-102900247D01*
X114614222Y-102890907D01*
X114638898Y-102897895D01*
X114677795Y-102914413D01*
X114721275Y-102935119D01*
X114722356Y-102935667D01*
X114759209Y-102955051D01*
X114774000Y-102967987D01*
X114770353Y-102981549D01*
X114754995Y-102999368D01*
X114715923Y-103025155D01*
X114673846Y-103027050D01*
X114636103Y-103008283D01*
X114610034Y-102972085D01*
X114602514Y-102932252D01*
X114463233Y-102932252D01*
X114467194Y-102968973D01*
X114491550Y-103038788D01*
X114525456Y-103087698D01*
X114586653Y-103137122D01*
X114654063Y-103161641D01*
X114722880Y-103163203D01*
X114788303Y-103143761D01*
X114788303Y-103143761D01*
G37*
X114788303Y-103143761D02*
X114845527Y-103105265D01*
X114889749Y-103049665D01*
X114916167Y-102978914D01*
X114921510Y-102926838D01*
X114920903Y-102905107D01*
X114915822Y-102888469D01*
X114901855Y-102873563D01*
X114874589Y-102857027D01*
X114829612Y-102835502D01*
X114762511Y-102805626D01*
X114762171Y-102805476D01*
X114700407Y-102777187D01*
X114649759Y-102752067D01*
X114615404Y-102732821D01*
X114602518Y-102722152D01*
X114602514Y-102722066D01*
X114613872Y-102698834D01*
X114640431Y-102673226D01*
X114670923Y-102654779D01*
X114686370Y-102651114D01*
X114728515Y-102663788D01*
X114764808Y-102695529D01*
X114782517Y-102730428D01*
X114799552Y-102756155D01*
X114832922Y-102785454D01*
X114872149Y-102810765D01*
X114906756Y-102824529D01*
X114913993Y-102825286D01*
X114922139Y-102812840D01*
X114922630Y-102781028D01*
X114916643Y-102738134D01*
X114905357Y-102692442D01*
X114889950Y-102652239D01*
X114889171Y-102650678D01*
X114842804Y-102585938D01*
X114782711Y-102541903D01*
X114714465Y-102520289D01*
X114643638Y-102522815D01*
X114575804Y-102551196D01*
X114572788Y-102553192D01*
X114519427Y-102601552D01*
X114484340Y-102664648D01*
X114464922Y-102747613D01*
X114462316Y-102770922D01*
X114457701Y-102880945D01*
X114463233Y-102932252D01*
X114602514Y-102932252D01*
X114604324Y-102900247D01*
X114614222Y-102890907D01*
X114638898Y-102897895D01*
X114677795Y-102914413D01*
X114721275Y-102935119D01*
X114722356Y-102935667D01*
X114759209Y-102955051D01*
X114774000Y-102967987D01*
X114770353Y-102981549D01*
X114754995Y-102999368D01*
X114715923Y-103025155D01*
X114673846Y-103027050D01*
X114636103Y-103008283D01*
X114610034Y-102972085D01*
X114602514Y-102932252D01*
X114463233Y-102932252D01*
X114467194Y-102968973D01*
X114491550Y-103038788D01*
X114525456Y-103087698D01*
X114586653Y-103137122D01*
X114654063Y-103161641D01*
X114722880Y-103163203D01*
X114788303Y-103143761D01*
G36*
X115995886Y-103223711D02*
X116000139Y-103164387D01*
X116005025Y-103129428D01*
X116011795Y-103114180D01*
X116021702Y-103113985D01*
X116024914Y-103115805D01*
X116067644Y-103128985D01*
X116123227Y-103128215D01*
X116179737Y-103114667D01*
X116215082Y-103097139D01*
X116251321Y-103069139D01*
X116277813Y-103037451D01*
X116295999Y-102997187D01*
X116307322Y-102943457D01*
X116313222Y-102871374D01*
X116315143Y-102776049D01*
X116315177Y-102757763D01*
X116315200Y-102552354D01*
X116269491Y-102536420D01*
X116237027Y-102525580D01*
X116219215Y-102520532D01*
X116218691Y-102520486D01*
X116216937Y-102534172D01*
X116215444Y-102571924D01*
X116214326Y-102628776D01*
X116213697Y-102699766D01*
X116213600Y-102742927D01*
X116213398Y-102828027D01*
X116212358Y-102889019D01*
X116209831Y-102930823D01*
X116205164Y-102958358D01*
X116197707Y-102976544D01*
X116186811Y-102990302D01*
X116180007Y-102996927D01*
X116133272Y-103023625D01*
X116082272Y-103025625D01*
X116036001Y-103003045D01*
X116027444Y-102994893D01*
X116014893Y-102979564D01*
X116006188Y-102961382D01*
X116000631Y-102935091D01*
X115997526Y-102895438D01*
X115996176Y-102837168D01*
X115995886Y-102756827D01*
X115995886Y-102552354D01*
X115950177Y-102536420D01*
X115917713Y-102525580D01*
X115899901Y-102520532D01*
X115899377Y-102520486D01*
X115898037Y-102534377D01*
X115896828Y-102573561D01*
X115895801Y-102634300D01*
X115895002Y-102712859D01*
X115894481Y-102805502D01*
X115894286Y-102908491D01*
X115894286Y-103305658D01*
X115941457Y-103325556D01*
X115988629Y-103345453D01*
X115995886Y-103223711D01*
X115995886Y-103223711D01*
G37*
X115995886Y-103223711D02*
X116000139Y-103164387D01*
X116005025Y-103129428D01*
X116011795Y-103114180D01*
X116021702Y-103113985D01*
X116024914Y-103115805D01*
X116067644Y-103128985D01*
X116123227Y-103128215D01*
X116179737Y-103114667D01*
X116215082Y-103097139D01*
X116251321Y-103069139D01*
X116277813Y-103037451D01*
X116295999Y-102997187D01*
X116307322Y-102943457D01*
X116313222Y-102871374D01*
X116315143Y-102776049D01*
X116315177Y-102757763D01*
X116315200Y-102552354D01*
X116269491Y-102536420D01*
X116237027Y-102525580D01*
X116219215Y-102520532D01*
X116218691Y-102520486D01*
X116216937Y-102534172D01*
X116215444Y-102571924D01*
X116214326Y-102628776D01*
X116213697Y-102699766D01*
X116213600Y-102742927D01*
X116213398Y-102828027D01*
X116212358Y-102889019D01*
X116209831Y-102930823D01*
X116205164Y-102958358D01*
X116197707Y-102976544D01*
X116186811Y-102990302D01*
X116180007Y-102996927D01*
X116133272Y-103023625D01*
X116082272Y-103025625D01*
X116036001Y-103003045D01*
X116027444Y-102994893D01*
X116014893Y-102979564D01*
X116006188Y-102961382D01*
X116000631Y-102935091D01*
X115997526Y-102895438D01*
X115996176Y-102837168D01*
X115995886Y-102756827D01*
X115995886Y-102552354D01*
X115950177Y-102536420D01*
X115917713Y-102525580D01*
X115899901Y-102520532D01*
X115899377Y-102520486D01*
X115898037Y-102534377D01*
X115896828Y-102573561D01*
X115895801Y-102634300D01*
X115895002Y-102712859D01*
X115894481Y-102805502D01*
X115894286Y-102908491D01*
X115894286Y-103305658D01*
X115941457Y-103325556D01*
X115988629Y-103345453D01*
X115995886Y-103223711D01*
G36*
X116659744Y-103124032D02*
X116716616Y-103102913D01*
X116717267Y-103102507D01*
X116752440Y-103076620D01*
X116778407Y-103046367D01*
X116796670Y-103006942D01*
X116808732Y-102953538D01*
X116816096Y-102881349D01*
X116820264Y-102785568D01*
X116820629Y-102771922D01*
X116825876Y-102566158D01*
X116781716Y-102543322D01*
X116749763Y-102527890D01*
X116730470Y-102520577D01*
X116729578Y-102520486D01*
X116726239Y-102533978D01*
X116723587Y-102570374D01*
X116721956Y-102623548D01*
X116721600Y-102666607D01*
X116721592Y-102736359D01*
X116718403Y-102780163D01*
X116707288Y-102801056D01*
X116683501Y-102802075D01*
X116642296Y-102786259D01*
X116580086Y-102757185D01*
X116534341Y-102733037D01*
X116510813Y-102712087D01*
X116503896Y-102689253D01*
X116503886Y-102688123D01*
X116515299Y-102648788D01*
X116549092Y-102627538D01*
X116600809Y-102624461D01*
X116638061Y-102624994D01*
X116657703Y-102614265D01*
X116669952Y-102588495D01*
X116677002Y-102555663D01*
X116666842Y-102537034D01*
X116663017Y-102534368D01*
X116627001Y-102523660D01*
X116576566Y-102522144D01*
X116524626Y-102529241D01*
X116487822Y-102542212D01*
X116436938Y-102585415D01*
X116408014Y-102645554D01*
X116402286Y-102692538D01*
X116406657Y-102734918D01*
X116422475Y-102769512D01*
X116453797Y-102800237D01*
X116504678Y-102831010D01*
X116579176Y-102865748D01*
X116583714Y-102867712D01*
X116650821Y-102898713D01*
X116692232Y-102924138D01*
X116709981Y-102946986D01*
X116706107Y-102970255D01*
X116682643Y-102996944D01*
X116675627Y-103003086D01*
X116628630Y-103026900D01*
X116579933Y-103025897D01*
X116537522Y-103002549D01*
X116509384Y-102959325D01*
X116506769Y-102950840D01*
X116481308Y-102909692D01*
X116449001Y-102889872D01*
X116402286Y-102870230D01*
X116402286Y-102921050D01*
X116416496Y-102994918D01*
X116458675Y-103062673D01*
X116480624Y-103085339D01*
X116530517Y-103114431D01*
X116593967Y-103127600D01*
X116659744Y-103124032D01*
X116659744Y-103124032D01*
G37*
X116659744Y-103124032D02*
X116716616Y-103102913D01*
X116717267Y-103102507D01*
X116752440Y-103076620D01*
X116778407Y-103046367D01*
X116796670Y-103006942D01*
X116808732Y-102953538D01*
X116816096Y-102881349D01*
X116820264Y-102785568D01*
X116820629Y-102771922D01*
X116825876Y-102566158D01*
X116781716Y-102543322D01*
X116749763Y-102527890D01*
X116730470Y-102520577D01*
X116729578Y-102520486D01*
X116726239Y-102533978D01*
X116723587Y-102570374D01*
X116721956Y-102623548D01*
X116721600Y-102666607D01*
X116721592Y-102736359D01*
X116718403Y-102780163D01*
X116707288Y-102801056D01*
X116683501Y-102802075D01*
X116642296Y-102786259D01*
X116580086Y-102757185D01*
X116534341Y-102733037D01*
X116510813Y-102712087D01*
X116503896Y-102689253D01*
X116503886Y-102688123D01*
X116515299Y-102648788D01*
X116549092Y-102627538D01*
X116600809Y-102624461D01*
X116638061Y-102624994D01*
X116657703Y-102614265D01*
X116669952Y-102588495D01*
X116677002Y-102555663D01*
X116666842Y-102537034D01*
X116663017Y-102534368D01*
X116627001Y-102523660D01*
X116576566Y-102522144D01*
X116524626Y-102529241D01*
X116487822Y-102542212D01*
X116436938Y-102585415D01*
X116408014Y-102645554D01*
X116402286Y-102692538D01*
X116406657Y-102734918D01*
X116422475Y-102769512D01*
X116453797Y-102800237D01*
X116504678Y-102831010D01*
X116579176Y-102865748D01*
X116583714Y-102867712D01*
X116650821Y-102898713D01*
X116692232Y-102924138D01*
X116709981Y-102946986D01*
X116706107Y-102970255D01*
X116682643Y-102996944D01*
X116675627Y-103003086D01*
X116628630Y-103026900D01*
X116579933Y-103025897D01*
X116537522Y-103002549D01*
X116509384Y-102959325D01*
X116506769Y-102950840D01*
X116481308Y-102909692D01*
X116449001Y-102889872D01*
X116402286Y-102870230D01*
X116402286Y-102921050D01*
X116416496Y-102994918D01*
X116458675Y-103062673D01*
X116480624Y-103085339D01*
X116530517Y-103114431D01*
X116593967Y-103127600D01*
X116659744Y-103124032D01*
G36*
X117149926Y-103125245D02*
X117215858Y-103100916D01*
X117269273Y-103057883D01*
X117290164Y-103027591D01*
X117312939Y-102972006D01*
X117312466Y-102931814D01*
X117288562Y-102904783D01*
X117279717Y-102900187D01*
X117241530Y-102885856D01*
X117222028Y-102889528D01*
X117215422Y-102913593D01*
X117215086Y-102926886D01*
X117202992Y-102975790D01*
X117171471Y-103010001D01*
X117127659Y-103026524D01*
X117078695Y-103022366D01*
X117038894Y-103000773D01*
X117025450Y-102988456D01*
X117015921Y-102973513D01*
X117009485Y-102950925D01*
X117005317Y-102915672D01*
X117002597Y-102862734D01*
X117000502Y-102787093D01*
X116999960Y-102763143D01*
X116997981Y-102681210D01*
X116995731Y-102623545D01*
X116992357Y-102585392D01*
X116987006Y-102561996D01*
X116978824Y-102548602D01*
X116966959Y-102540455D01*
X116959362Y-102536856D01*
X116927102Y-102524548D01*
X116908111Y-102520486D01*
X116901836Y-102534052D01*
X116898006Y-102575066D01*
X116896600Y-102644001D01*
X116897598Y-102741331D01*
X116897908Y-102756343D01*
X116900101Y-102845141D01*
X116902693Y-102909981D01*
X116906382Y-102955933D01*
X116911864Y-102988065D01*
X116919835Y-103011447D01*
X116930993Y-103031148D01*
X116936830Y-103039590D01*
X116970296Y-103076943D01*
X117007727Y-103105997D01*
X117012309Y-103108533D01*
X117079426Y-103128557D01*
X117149926Y-103125245D01*
X117149926Y-103125245D01*
G37*
X117149926Y-103125245D02*
X117215858Y-103100916D01*
X117269273Y-103057883D01*
X117290164Y-103027591D01*
X117312939Y-102972006D01*
X117312466Y-102931814D01*
X117288562Y-102904783D01*
X117279717Y-102900187D01*
X117241530Y-102885856D01*
X117222028Y-102889528D01*
X117215422Y-102913593D01*
X117215086Y-102926886D01*
X117202992Y-102975790D01*
X117171471Y-103010001D01*
X117127659Y-103026524D01*
X117078695Y-103022366D01*
X117038894Y-103000773D01*
X117025450Y-102988456D01*
X117015921Y-102973513D01*
X117009485Y-102950925D01*
X117005317Y-102915672D01*
X117002597Y-102862734D01*
X117000502Y-102787093D01*
X116999960Y-102763143D01*
X116997981Y-102681210D01*
X116995731Y-102623545D01*
X116992357Y-102585392D01*
X116987006Y-102561996D01*
X116978824Y-102548602D01*
X116966959Y-102540455D01*
X116959362Y-102536856D01*
X116927102Y-102524548D01*
X116908111Y-102520486D01*
X116901836Y-102534052D01*
X116898006Y-102575066D01*
X116896600Y-102644001D01*
X116897598Y-102741331D01*
X116897908Y-102756343D01*
X116900101Y-102845141D01*
X116902693Y-102909981D01*
X116906382Y-102955933D01*
X116911864Y-102988065D01*
X116919835Y-103011447D01*
X116930993Y-103031148D01*
X116936830Y-103039590D01*
X116970296Y-103076943D01*
X117007727Y-103105997D01*
X117012309Y-103108533D01*
X117079426Y-103128557D01*
X117149926Y-103125245D01*
G36*
X117810117Y-103009642D02*
X117809933Y-102901163D01*
X117809219Y-102817713D01*
X117807675Y-102755296D01*
X117805001Y-102709915D01*
X117800894Y-102677571D01*
X117795055Y-102654267D01*
X117787182Y-102636005D01*
X117781221Y-102625582D01*
X117731855Y-102569055D01*
X117669264Y-102533623D01*
X117600013Y-102520910D01*
X117530668Y-102532537D01*
X117489375Y-102553432D01*
X117446025Y-102589578D01*
X117416481Y-102633724D01*
X117398655Y-102691538D01*
X117390463Y-102768687D01*
X117389302Y-102825286D01*
X117389458Y-102829353D01*
X117490857Y-102829353D01*
X117491476Y-102764450D01*
X117494314Y-102721486D01*
X117500840Y-102693378D01*
X117512523Y-102673047D01*
X117526483Y-102657712D01*
X117573365Y-102628110D01*
X117623701Y-102625581D01*
X117671276Y-102650295D01*
X117674979Y-102653644D01*
X117690783Y-102671065D01*
X117700693Y-102691791D01*
X117706058Y-102722638D01*
X117708228Y-102770423D01*
X117708571Y-102823252D01*
X117707827Y-102889619D01*
X117704748Y-102933894D01*
X117698061Y-102962991D01*
X117686496Y-102983827D01*
X117677013Y-102994893D01*
X117632960Y-103022802D01*
X117582224Y-103026157D01*
X117533796Y-103004841D01*
X117524450Y-102996927D01*
X117508540Y-102979353D01*
X117498610Y-102958413D01*
X117493278Y-102927218D01*
X117491163Y-102878878D01*
X117490857Y-102829353D01*
X117389458Y-102829353D01*
X117392810Y-102916432D01*
X117404726Y-102984914D01*
X117427135Y-103036400D01*
X117462124Y-103076557D01*
X117489375Y-103097139D01*
X117538907Y-103119375D01*
X117596316Y-103129696D01*
X117649682Y-103126933D01*
X117679543Y-103115788D01*
X117691261Y-103112617D01*
X117699037Y-103124443D01*
X117704465Y-103156134D01*
X117708571Y-103204407D01*
X117713067Y-103258171D01*
X117719313Y-103290518D01*
X117730676Y-103309015D01*
X117750528Y-103321230D01*
X117763000Y-103326638D01*
X117810171Y-103346399D01*
X117810117Y-103009642D01*
X117810117Y-103009642D01*
G37*
X117810117Y-103009642D02*
X117809933Y-102901163D01*
X117809219Y-102817713D01*
X117807675Y-102755296D01*
X117805001Y-102709915D01*
X117800894Y-102677571D01*
X117795055Y-102654267D01*
X117787182Y-102636005D01*
X117781221Y-102625582D01*
X117731855Y-102569055D01*
X117669264Y-102533623D01*
X117600013Y-102520910D01*
X117530668Y-102532537D01*
X117489375Y-102553432D01*
X117446025Y-102589578D01*
X117416481Y-102633724D01*
X117398655Y-102691538D01*
X117390463Y-102768687D01*
X117389302Y-102825286D01*
X117389458Y-102829353D01*
X117490857Y-102829353D01*
X117491476Y-102764450D01*
X117494314Y-102721486D01*
X117500840Y-102693378D01*
X117512523Y-102673047D01*
X117526483Y-102657712D01*
X117573365Y-102628110D01*
X117623701Y-102625581D01*
X117671276Y-102650295D01*
X117674979Y-102653644D01*
X117690783Y-102671065D01*
X117700693Y-102691791D01*
X117706058Y-102722638D01*
X117708228Y-102770423D01*
X117708571Y-102823252D01*
X117707827Y-102889619D01*
X117704748Y-102933894D01*
X117698061Y-102962991D01*
X117686496Y-102983827D01*
X117677013Y-102994893D01*
X117632960Y-103022802D01*
X117582224Y-103026157D01*
X117533796Y-103004841D01*
X117524450Y-102996927D01*
X117508540Y-102979353D01*
X117498610Y-102958413D01*
X117493278Y-102927218D01*
X117491163Y-102878878D01*
X117490857Y-102829353D01*
X117389458Y-102829353D01*
X117392810Y-102916432D01*
X117404726Y-102984914D01*
X117427135Y-103036400D01*
X117462124Y-103076557D01*
X117489375Y-103097139D01*
X117538907Y-103119375D01*
X117596316Y-103129696D01*
X117649682Y-103126933D01*
X117679543Y-103115788D01*
X117691261Y-103112617D01*
X117699037Y-103124443D01*
X117704465Y-103156134D01*
X117708571Y-103204407D01*
X117713067Y-103258171D01*
X117719313Y-103290518D01*
X117730676Y-103309015D01*
X117750528Y-103321230D01*
X117763000Y-103326638D01*
X117810171Y-103346399D01*
X117810117Y-103009642D01*
G36*
X118399833Y-103116337D02*
X118402048Y-103078150D01*
X118403784Y-103020114D01*
X118404899Y-102946820D01*
X118405257Y-102869945D01*
X118405257Y-102609804D01*
X118359326Y-102563873D01*
X118327675Y-102535571D01*
X118299890Y-102524107D01*
X118261915Y-102524832D01*
X118246840Y-102526679D01*
X118199726Y-102532052D01*
X118160756Y-102535131D01*
X118151257Y-102535415D01*
X118119233Y-102533555D01*
X118073432Y-102528886D01*
X118055674Y-102526679D01*
X118012057Y-102523265D01*
X117982745Y-102530680D01*
X117953680Y-102553573D01*
X117943188Y-102563873D01*
X117897257Y-102609804D01*
X117897257Y-103096398D01*
X117934226Y-103113242D01*
X117966059Y-103125718D01*
X117984683Y-103130086D01*
X117989458Y-103116282D01*
X117993921Y-103077714D01*
X117997775Y-103018644D01*
X118000722Y-102943337D01*
X118002143Y-102879714D01*
X118006114Y-102629343D01*
X118040759Y-102624444D01*
X118072268Y-102627869D01*
X118087708Y-102638959D01*
X118092023Y-102659692D01*
X118095708Y-102703855D01*
X118098469Y-102765854D01*
X118100012Y-102840091D01*
X118100235Y-102878294D01*
X118100457Y-103098217D01*
X118146166Y-103114151D01*
X118178518Y-103124985D01*
X118196115Y-103130038D01*
X118196623Y-103130086D01*
X118198388Y-103116352D01*
X118200329Y-103078270D01*
X118202282Y-103020518D01*
X118204084Y-102947773D01*
X118205343Y-102879714D01*
X118209314Y-102629343D01*
X118296400Y-102629343D01*
X118300396Y-102857760D01*
X118304392Y-103086178D01*
X118346847Y-103108132D01*
X118378192Y-103123207D01*
X118396744Y-103130049D01*
X118397279Y-103130086D01*
X118399833Y-103116337D01*
X118399833Y-103116337D01*
G37*
X118399833Y-103116337D02*
X118402048Y-103078150D01*
X118403784Y-103020114D01*
X118404899Y-102946820D01*
X118405257Y-102869945D01*
X118405257Y-102609804D01*
X118359326Y-102563873D01*
X118327675Y-102535571D01*
X118299890Y-102524107D01*
X118261915Y-102524832D01*
X118246840Y-102526679D01*
X118199726Y-102532052D01*
X118160756Y-102535131D01*
X118151257Y-102535415D01*
X118119233Y-102533555D01*
X118073432Y-102528886D01*
X118055674Y-102526679D01*
X118012057Y-102523265D01*
X117982745Y-102530680D01*
X117953680Y-102553573D01*
X117943188Y-102563873D01*
X117897257Y-102609804D01*
X117897257Y-103096398D01*
X117934226Y-103113242D01*
X117966059Y-103125718D01*
X117984683Y-103130086D01*
X117989458Y-103116282D01*
X117993921Y-103077714D01*
X117997775Y-103018644D01*
X118000722Y-102943337D01*
X118002143Y-102879714D01*
X118006114Y-102629343D01*
X118040759Y-102624444D01*
X118072268Y-102627869D01*
X118087708Y-102638959D01*
X118092023Y-102659692D01*
X118095708Y-102703855D01*
X118098469Y-102765854D01*
X118100012Y-102840091D01*
X118100235Y-102878294D01*
X118100457Y-103098217D01*
X118146166Y-103114151D01*
X118178518Y-103124985D01*
X118196115Y-103130038D01*
X118196623Y-103130086D01*
X118198388Y-103116352D01*
X118200329Y-103078270D01*
X118202282Y-103020518D01*
X118204084Y-102947773D01*
X118205343Y-102879714D01*
X118209314Y-102629343D01*
X118296400Y-102629343D01*
X118300396Y-102857760D01*
X118304392Y-103086178D01*
X118346847Y-103108132D01*
X118378192Y-103123207D01*
X118396744Y-103130049D01*
X118397279Y-103130086D01*
X118399833Y-103116337D01*
G36*
X118764876Y-103118665D02*
X118806667Y-103099656D01*
X118839469Y-103076622D01*
X118863503Y-103050867D01*
X118880097Y-103017642D01*
X118890577Y-102972200D01*
X118896271Y-102909793D01*
X118898507Y-102825673D01*
X118898743Y-102770279D01*
X118898743Y-102554174D01*
X118861774Y-102537330D01*
X118832656Y-102525019D01*
X118818231Y-102520486D01*
X118815472Y-102533975D01*
X118813282Y-102570347D01*
X118811942Y-102623458D01*
X118811657Y-102665628D01*
X118810434Y-102726553D01*
X118807136Y-102774885D01*
X118802321Y-102804482D01*
X118798496Y-102810771D01*
X118772783Y-102804348D01*
X118732418Y-102787875D01*
X118685679Y-102765542D01*
X118640845Y-102741543D01*
X118606193Y-102720070D01*
X118590002Y-102705315D01*
X118589938Y-102705155D01*
X118591330Y-102677848D01*
X118603818Y-102651781D01*
X118625743Y-102630608D01*
X118657743Y-102623526D01*
X118685092Y-102624351D01*
X118723826Y-102624958D01*
X118744158Y-102615884D01*
X118756369Y-102591908D01*
X118757909Y-102587387D01*
X118763203Y-102553194D01*
X118749047Y-102532432D01*
X118712148Y-102522538D01*
X118672289Y-102520708D01*
X118600562Y-102534273D01*
X118563432Y-102553645D01*
X118517576Y-102599155D01*
X118493256Y-102655017D01*
X118491073Y-102714043D01*
X118511629Y-102769047D01*
X118542549Y-102803514D01*
X118573420Y-102822811D01*
X118621942Y-102847241D01*
X118678485Y-102872015D01*
X118687910Y-102875801D01*
X118750019Y-102903209D01*
X118785822Y-102927366D01*
X118797337Y-102951381D01*
X118786580Y-102978365D01*
X118768114Y-102999457D01*
X118724469Y-103025428D01*
X118676446Y-103027376D01*
X118632406Y-103007363D01*
X118600709Y-102967449D01*
X118596549Y-102957152D01*
X118572327Y-102919276D01*
X118536965Y-102891158D01*
X118492343Y-102868083D01*
X118492343Y-102933515D01*
X118494969Y-102973494D01*
X118506230Y-103005003D01*
X118531199Y-103038622D01*
X118555169Y-103064516D01*
X118592441Y-103101183D01*
X118621401Y-103120879D01*
X118652505Y-103128780D01*
X118687713Y-103130086D01*
X118764876Y-103118665D01*
X118764876Y-103118665D01*
G37*
X118764876Y-103118665D02*
X118806667Y-103099656D01*
X118839469Y-103076622D01*
X118863503Y-103050867D01*
X118880097Y-103017642D01*
X118890577Y-102972200D01*
X118896271Y-102909793D01*
X118898507Y-102825673D01*
X118898743Y-102770279D01*
X118898743Y-102554174D01*
X118861774Y-102537330D01*
X118832656Y-102525019D01*
X118818231Y-102520486D01*
X118815472Y-102533975D01*
X118813282Y-102570347D01*
X118811942Y-102623458D01*
X118811657Y-102665628D01*
X118810434Y-102726553D01*
X118807136Y-102774885D01*
X118802321Y-102804482D01*
X118798496Y-102810771D01*
X118772783Y-102804348D01*
X118732418Y-102787875D01*
X118685679Y-102765542D01*
X118640845Y-102741543D01*
X118606193Y-102720070D01*
X118590002Y-102705315D01*
X118589938Y-102705155D01*
X118591330Y-102677848D01*
X118603818Y-102651781D01*
X118625743Y-102630608D01*
X118657743Y-102623526D01*
X118685092Y-102624351D01*
X118723826Y-102624958D01*
X118744158Y-102615884D01*
X118756369Y-102591908D01*
X118757909Y-102587387D01*
X118763203Y-102553194D01*
X118749047Y-102532432D01*
X118712148Y-102522538D01*
X118672289Y-102520708D01*
X118600562Y-102534273D01*
X118563432Y-102553645D01*
X118517576Y-102599155D01*
X118493256Y-102655017D01*
X118491073Y-102714043D01*
X118511629Y-102769047D01*
X118542549Y-102803514D01*
X118573420Y-102822811D01*
X118621942Y-102847241D01*
X118678485Y-102872015D01*
X118687910Y-102875801D01*
X118750019Y-102903209D01*
X118785822Y-102927366D01*
X118797337Y-102951381D01*
X118786580Y-102978365D01*
X118768114Y-102999457D01*
X118724469Y-103025428D01*
X118676446Y-103027376D01*
X118632406Y-103007363D01*
X118600709Y-102967449D01*
X118596549Y-102957152D01*
X118572327Y-102919276D01*
X118536965Y-102891158D01*
X118492343Y-102868083D01*
X118492343Y-102933515D01*
X118494969Y-102973494D01*
X118506230Y-103005003D01*
X118531199Y-103038622D01*
X118555169Y-103064516D01*
X118592441Y-103101183D01*
X118621401Y-103120879D01*
X118652505Y-103128780D01*
X118687713Y-103130086D01*
X118764876Y-103118665D01*
G36*
X119272600Y-103116248D02*
X119289948Y-103108666D01*
X119331356Y-103075872D01*
X119366765Y-103028453D01*
X119388664Y-102977849D01*
X119392229Y-102952902D01*
X119380279Y-102918073D01*
X119354067Y-102899643D01*
X119325964Y-102888484D01*
X119313095Y-102886428D01*
X119306829Y-102901351D01*
X119294456Y-102933825D01*
X119289028Y-102948498D01*
X119258590Y-102999256D01*
X119214520Y-103024573D01*
X119158010Y-103023794D01*
X119153825Y-103022797D01*
X119123655Y-103008493D01*
X119101476Y-102980607D01*
X119086327Y-102935713D01*
X119077250Y-102870385D01*
X119073286Y-102781196D01*
X119072914Y-102733739D01*
X119072730Y-102658929D01*
X119071522Y-102607931D01*
X119068309Y-102575529D01*
X119062109Y-102556505D01*
X119051940Y-102545644D01*
X119036819Y-102537728D01*
X119035946Y-102537330D01*
X119006828Y-102525019D01*
X118992403Y-102520486D01*
X118990186Y-102534191D01*
X118988289Y-102572075D01*
X118986847Y-102629285D01*
X118985998Y-102700973D01*
X118985829Y-102753435D01*
X118986692Y-102854953D01*
X118990070Y-102931968D01*
X118997142Y-102988977D01*
X119009088Y-103030474D01*
X119027090Y-103060957D01*
X119052327Y-103084920D01*
X119077247Y-103101645D01*
X119137171Y-103123903D01*
X119206911Y-103128924D01*
X119272600Y-103116248D01*
X119272600Y-103116248D01*
G37*
X119272600Y-103116248D02*
X119289948Y-103108666D01*
X119331356Y-103075872D01*
X119366765Y-103028453D01*
X119388664Y-102977849D01*
X119392229Y-102952902D01*
X119380279Y-102918073D01*
X119354067Y-102899643D01*
X119325964Y-102888484D01*
X119313095Y-102886428D01*
X119306829Y-102901351D01*
X119294456Y-102933825D01*
X119289028Y-102948498D01*
X119258590Y-102999256D01*
X119214520Y-103024573D01*
X119158010Y-103023794D01*
X119153825Y-103022797D01*
X119123655Y-103008493D01*
X119101476Y-102980607D01*
X119086327Y-102935713D01*
X119077250Y-102870385D01*
X119073286Y-102781196D01*
X119072914Y-102733739D01*
X119072730Y-102658929D01*
X119071522Y-102607931D01*
X119068309Y-102575529D01*
X119062109Y-102556505D01*
X119051940Y-102545644D01*
X119036819Y-102537728D01*
X119035946Y-102537330D01*
X119006828Y-102525019D01*
X118992403Y-102520486D01*
X118990186Y-102534191D01*
X118988289Y-102572075D01*
X118986847Y-102629285D01*
X118985998Y-102700973D01*
X118985829Y-102753435D01*
X118986692Y-102854953D01*
X118990070Y-102931968D01*
X118997142Y-102988977D01*
X119009088Y-103030474D01*
X119027090Y-103060957D01*
X119052327Y-103084920D01*
X119077247Y-103101645D01*
X119137171Y-103123903D01*
X119206911Y-103128924D01*
X119272600Y-103116248D01*
G36*
X119773595Y-103108034D02*
X119831021Y-103070503D01*
X119858719Y-103036904D01*
X119880662Y-102975936D01*
X119882405Y-102927692D01*
X119878457Y-102863184D01*
X119729686Y-102798066D01*
X119657349Y-102764798D01*
X119610084Y-102738036D01*
X119585507Y-102714856D01*
X119581237Y-102692333D01*
X119594889Y-102667545D01*
X119609943Y-102651114D01*
X119653746Y-102624765D01*
X119701389Y-102622919D01*
X119745145Y-102643454D01*
X119777289Y-102684248D01*
X119783038Y-102698653D01*
X119810576Y-102743644D01*
X119842258Y-102762818D01*
X119885714Y-102779221D01*
X119885714Y-102717034D01*
X119881872Y-102674717D01*
X119866823Y-102639031D01*
X119835280Y-102598057D01*
X119830592Y-102592733D01*
X119795506Y-102556280D01*
X119765347Y-102536717D01*
X119727615Y-102527717D01*
X119696335Y-102524770D01*
X119640385Y-102524035D01*
X119600555Y-102533340D01*
X119575708Y-102547154D01*
X119536656Y-102577533D01*
X119509625Y-102610387D01*
X119492517Y-102651706D01*
X119483238Y-102707479D01*
X119479693Y-102783695D01*
X119479410Y-102822378D01*
X119480372Y-102868753D01*
X119568007Y-102868753D01*
X119569023Y-102843874D01*
X119571556Y-102839800D01*
X119588274Y-102845335D01*
X119624249Y-102859983D01*
X119672331Y-102880810D01*
X119682386Y-102885286D01*
X119743152Y-102916186D01*
X119776632Y-102943343D01*
X119783990Y-102968780D01*
X119766391Y-102994519D01*
X119751856Y-103005891D01*
X119699410Y-103028636D01*
X119650322Y-103024878D01*
X119609227Y-102997116D01*
X119580758Y-102947848D01*
X119571631Y-102908743D01*
X119568007Y-102868753D01*
X119480372Y-102868753D01*
X119481285Y-102912751D01*
X119488196Y-102979616D01*
X119501884Y-103028305D01*
X119524096Y-103064151D01*
X119556574Y-103092487D01*
X119570733Y-103101645D01*
X119635053Y-103125493D01*
X119705473Y-103126994D01*
X119773595Y-103108034D01*
X119773595Y-103108034D01*
G37*
X119773595Y-103108034D02*
X119831021Y-103070503D01*
X119858719Y-103036904D01*
X119880662Y-102975936D01*
X119882405Y-102927692D01*
X119878457Y-102863184D01*
X119729686Y-102798066D01*
X119657349Y-102764798D01*
X119610084Y-102738036D01*
X119585507Y-102714856D01*
X119581237Y-102692333D01*
X119594889Y-102667545D01*
X119609943Y-102651114D01*
X119653746Y-102624765D01*
X119701389Y-102622919D01*
X119745145Y-102643454D01*
X119777289Y-102684248D01*
X119783038Y-102698653D01*
X119810576Y-102743644D01*
X119842258Y-102762818D01*
X119885714Y-102779221D01*
X119885714Y-102717034D01*
X119881872Y-102674717D01*
X119866823Y-102639031D01*
X119835280Y-102598057D01*
X119830592Y-102592733D01*
X119795506Y-102556280D01*
X119765347Y-102536717D01*
X119727615Y-102527717D01*
X119696335Y-102524770D01*
X119640385Y-102524035D01*
X119600555Y-102533340D01*
X119575708Y-102547154D01*
X119536656Y-102577533D01*
X119509625Y-102610387D01*
X119492517Y-102651706D01*
X119483238Y-102707479D01*
X119479693Y-102783695D01*
X119479410Y-102822378D01*
X119480372Y-102868753D01*
X119568007Y-102868753D01*
X119569023Y-102843874D01*
X119571556Y-102839800D01*
X119588274Y-102845335D01*
X119624249Y-102859983D01*
X119672331Y-102880810D01*
X119682386Y-102885286D01*
X119743152Y-102916186D01*
X119776632Y-102943343D01*
X119783990Y-102968780D01*
X119766391Y-102994519D01*
X119751856Y-103005891D01*
X119699410Y-103028636D01*
X119650322Y-103024878D01*
X119609227Y-102997116D01*
X119580758Y-102947848D01*
X119571631Y-102908743D01*
X119568007Y-102868753D01*
X119480372Y-102868753D01*
X119481285Y-102912751D01*
X119488196Y-102979616D01*
X119501884Y-103028305D01*
X119524096Y-103064151D01*
X119556574Y-103092487D01*
X119570733Y-103101645D01*
X119635053Y-103125493D01*
X119705473Y-103126994D01*
X119773595Y-103108034D01*
G36*
X116723910Y-107832652D02*
X116802454Y-107832222D01*
X116859298Y-107831058D01*
X116898105Y-107828793D01*
X116922538Y-107825060D01*
X116936262Y-107819494D01*
X116942940Y-107811727D01*
X116946236Y-107801395D01*
X116946556Y-107800057D01*
X116951562Y-107775921D01*
X116960829Y-107728299D01*
X116973392Y-107662259D01*
X116988287Y-107582872D01*
X117004551Y-107495204D01*
X117005119Y-107492125D01*
X117021410Y-107406211D01*
X117036652Y-107330304D01*
X117049861Y-107268955D01*
X117060054Y-107226718D01*
X117066248Y-107208145D01*
X117066543Y-107207816D01*
X117084788Y-107198747D01*
X117122405Y-107183633D01*
X117171271Y-107165738D01*
X117171543Y-107165642D01*
X117233093Y-107142507D01*
X117305657Y-107113035D01*
X117374057Y-107083403D01*
X117377294Y-107081938D01*
X117488702Y-107031374D01*
X117735399Y-107199840D01*
X117811077Y-107251197D01*
X117879631Y-107297111D01*
X117937088Y-107334970D01*
X117979476Y-107362163D01*
X118002825Y-107376079D01*
X118005042Y-107377111D01*
X118022010Y-107372516D01*
X118053701Y-107350345D01*
X118101352Y-107309553D01*
X118166198Y-107249095D01*
X118232397Y-107184773D01*
X118296214Y-107121388D01*
X118353329Y-107063549D01*
X118400305Y-107014825D01*
X118433703Y-106978790D01*
X118450085Y-106959016D01*
X118450694Y-106957998D01*
X118452505Y-106944428D01*
X118445683Y-106922267D01*
X118428540Y-106888522D01*
X118399393Y-106840200D01*
X118356555Y-106774308D01*
X118299448Y-106689483D01*
X118248766Y-106614823D01*
X118203461Y-106547860D01*
X118166150Y-106492484D01*
X118139452Y-106452580D01*
X118125985Y-106432038D01*
X118125137Y-106430644D01*
X118126781Y-106410962D01*
X118139245Y-106372707D01*
X118160048Y-106323111D01*
X118167462Y-106307272D01*
X118199814Y-106236710D01*
X118234328Y-106156647D01*
X118262365Y-106087371D01*
X118282568Y-106035955D01*
X118298615Y-105996881D01*
X118307888Y-105976459D01*
X118309041Y-105974886D01*
X118326096Y-105972279D01*
X118366298Y-105965137D01*
X118424302Y-105954477D01*
X118494763Y-105941315D01*
X118572335Y-105926667D01*
X118651672Y-105911551D01*
X118727431Y-105896982D01*
X118794264Y-105883978D01*
X118846828Y-105873555D01*
X118879776Y-105866730D01*
X118887857Y-105864801D01*
X118896205Y-105860038D01*
X118902506Y-105849282D01*
X118907045Y-105828902D01*
X118910104Y-105795266D01*
X118911967Y-105744745D01*
X118912918Y-105673708D01*
X118913240Y-105578524D01*
X118913257Y-105539508D01*
X118913257Y-105222201D01*
X118837057Y-105207161D01*
X118794663Y-105199005D01*
X118731400Y-105187101D01*
X118654962Y-105172884D01*
X118573043Y-105157790D01*
X118550400Y-105153645D01*
X118474806Y-105138947D01*
X118408953Y-105124495D01*
X118358366Y-105111625D01*
X118328574Y-105101678D01*
X118323612Y-105098713D01*
X118311426Y-105077717D01*
X118293953Y-105037033D01*
X118274577Y-104984678D01*
X118270734Y-104973400D01*
X118245339Y-104903477D01*
X118213817Y-104824582D01*
X118182969Y-104753734D01*
X118182817Y-104753405D01*
X118131447Y-104642267D01*
X118300399Y-104393747D01*
X118469352Y-104145228D01*
X118252429Y-103927942D01*
X118186819Y-103863274D01*
X118126979Y-103806267D01*
X118076267Y-103759967D01*
X118038046Y-103727416D01*
X118015675Y-103711657D01*
X118012466Y-103710657D01*
X117993626Y-103718531D01*
X117955180Y-103740422D01*
X117901330Y-103773733D01*
X117836276Y-103815869D01*
X117765940Y-103863057D01*
X117694555Y-103911190D01*
X117630908Y-103953072D01*
X117579041Y-103986129D01*
X117542995Y-104007782D01*
X117526867Y-104015457D01*
X117507189Y-104008963D01*
X117469875Y-103991850D01*
X117422621Y-103967674D01*
X117417612Y-103964987D01*
X117353977Y-103933073D01*
X117310341Y-103917421D01*
X117283202Y-103917255D01*
X117269057Y-103931796D01*
X117268975Y-103932000D01*
X117261905Y-103949221D01*
X117245042Y-103990101D01*
X117219695Y-104051475D01*
X117187171Y-104130181D01*
X117148778Y-104223053D01*
X117105822Y-104326928D01*
X117064222Y-104427498D01*
X117018504Y-104538484D01*
X116976526Y-104641297D01*
X116939548Y-104732785D01*
X116908827Y-104809799D01*
X116885622Y-104869185D01*
X116871190Y-104907791D01*
X116866743Y-104922200D01*
X116877896Y-104938728D01*
X116907069Y-104965070D01*
X116945971Y-104994113D01*
X117056757Y-105085961D01*
X117143351Y-105191241D01*
X117204716Y-105307734D01*
X117239815Y-105433224D01*
X117247608Y-105565493D01*
X117241943Y-105626543D01*
X117211078Y-105753205D01*
X117157920Y-105865059D01*
X117085767Y-105960999D01*
X116997917Y-106039924D01*
X116897665Y-106100730D01*
X116788310Y-106142313D01*
X116673147Y-106163572D01*
X116555475Y-106163401D01*
X116438590Y-106140699D01*
X116325789Y-106094362D01*
X116220369Y-106023287D01*
X116176368Y-105983089D01*
X116091979Y-105879871D01*
X116033222Y-105767075D01*
X115999704Y-105647990D01*
X115991035Y-105525905D01*
X116006823Y-105404107D01*
X116046678Y-105285884D01*
X116110207Y-105174525D01*
X116197021Y-105073316D01*
X116294029Y-104994113D01*
X116334437Y-104963838D01*
X116362982Y-104937781D01*
X116373257Y-104922175D01*
X116367877Y-104905157D01*
X116352575Y-104864500D01*
X116328612Y-104803358D01*
X116297244Y-104724881D01*
X116259732Y-104632220D01*
X116217333Y-104528528D01*
X116175663Y-104427474D01*
X116129690Y-104316393D01*
X116087107Y-104213459D01*
X116049221Y-104121835D01*
X116017340Y-104044684D01*
X115992771Y-103985169D01*
X115976820Y-103946456D01*
X115970910Y-103932000D01*
X115956948Y-103917315D01*
X115929940Y-103917358D01*
X115886413Y-103932901D01*
X115822890Y-103964716D01*
X115822388Y-103964987D01*
X115774560Y-103989677D01*
X115735897Y-104007662D01*
X115714095Y-104015386D01*
X115713133Y-104015457D01*
X115696721Y-104007622D01*
X115660487Y-103985835D01*
X115608474Y-103952672D01*
X115544725Y-103910709D01*
X115474060Y-103863057D01*
X115402116Y-103814809D01*
X115337274Y-103772849D01*
X115283735Y-103739773D01*
X115245697Y-103718179D01*
X115227533Y-103710657D01*
X115210808Y-103720543D01*
X115177180Y-103748174D01*
X115130010Y-103790505D01*
X115072658Y-103844495D01*
X115008484Y-103907101D01*
X114987497Y-103928017D01*
X114770499Y-104145377D01*
X114935668Y-104387780D01*
X114985864Y-104462219D01*
X115029919Y-104529028D01*
X115065362Y-104584335D01*
X115089719Y-104624271D01*
X115100522Y-104644964D01*
X115100838Y-104646437D01*
X115095143Y-104665942D01*
X115079826Y-104705178D01*
X115057537Y-104757570D01*
X115041893Y-104792645D01*
X115012641Y-104859799D01*
X114985094Y-104927642D01*
X114963737Y-104984966D01*
X114957935Y-105002428D01*
X114941452Y-105049062D01*
X114925340Y-105085095D01*
X114916490Y-105098713D01*
X114896960Y-105107048D01*
X114854334Y-105118863D01*
X114794145Y-105132819D01*
X114721922Y-105147578D01*
X114689600Y-105153645D01*
X114607522Y-105168727D01*
X114528795Y-105183331D01*
X114461109Y-105196020D01*
X114412160Y-105205358D01*
X114402943Y-105207161D01*
X114326743Y-105222201D01*
X114326743Y-105539508D01*
X114326914Y-105643846D01*
X114327616Y-105722787D01*
X114329134Y-105779962D01*
X114331749Y-105819001D01*
X114335746Y-105843535D01*
X114341409Y-105857195D01*
X114349020Y-105863611D01*
X114352143Y-105864801D01*
X114370978Y-105869020D01*
X114412588Y-105877438D01*
X114471630Y-105889039D01*
X114542757Y-105902805D01*
X114620625Y-105917720D01*
X114699887Y-105932768D01*
X114775198Y-105946931D01*
X114841213Y-105959194D01*
X114892587Y-105968539D01*
X114923975Y-105973950D01*
X114930959Y-105974886D01*
X114937285Y-105987404D01*
X114951290Y-106020754D01*
X114970355Y-106068623D01*
X114977634Y-106087371D01*
X115006996Y-106159805D01*
X115041571Y-106239830D01*
X115072537Y-106307272D01*
X115095323Y-106358841D01*
X115110482Y-106401215D01*
X115115542Y-106427166D01*
X115114736Y-106430644D01*
X115104041Y-106447064D01*
X115079620Y-106483583D01*
X115044095Y-106536313D01*
X115000087Y-106601365D01*
X114950217Y-106674849D01*
X114940356Y-106689355D01*
X114882492Y-106775296D01*
X114839956Y-106840739D01*
X114811054Y-106888696D01*
X114794090Y-106922180D01*
X114787367Y-106944205D01*
X114789190Y-106957783D01*
X114789236Y-106957869D01*
X114803586Y-106975703D01*
X114835323Y-107010183D01*
X114881010Y-107057732D01*
X114937204Y-107114778D01*
X115000468Y-107177745D01*
X115007602Y-107184773D01*
X115087330Y-107261980D01*
X115148857Y-107318670D01*
X115193421Y-107355890D01*
X115222257Y-107374685D01*
X115234958Y-107377111D01*
X115253494Y-107366529D01*
X115291961Y-107342084D01*
X115346386Y-107306388D01*
X115412798Y-107262053D01*
X115487225Y-107211689D01*
X115504601Y-107199840D01*
X115751297Y-107031374D01*
X115862706Y-107081938D01*
X115930457Y-107111405D01*
X116003183Y-107141041D01*
X116065703Y-107164670D01*
X116068457Y-107165642D01*
X116117360Y-107183543D01*
X116155057Y-107198680D01*
X116173425Y-107207790D01*
X116173456Y-107207816D01*
X116179285Y-107224283D01*
X116189192Y-107264781D01*
X116202195Y-107324758D01*
X116217309Y-107399660D01*
X116233552Y-107484936D01*
X116234881Y-107492125D01*
X116251175Y-107579986D01*
X116266133Y-107659740D01*
X116278791Y-107726319D01*
X116288186Y-107774653D01*
X116293354Y-107799675D01*
X116293444Y-107800057D01*
X116296589Y-107810701D01*
X116302704Y-107818738D01*
X116315453Y-107824533D01*
X116338500Y-107828453D01*
X116375509Y-107830865D01*
X116430144Y-107832135D01*
X116506067Y-107832629D01*
X116606944Y-107832714D01*
X116620000Y-107832714D01*
X116723910Y-107832652D01*
X116723910Y-107832652D01*
G37*
X116723910Y-107832652D02*
X116802454Y-107832222D01*
X116859298Y-107831058D01*
X116898105Y-107828793D01*
X116922538Y-107825060D01*
X116936262Y-107819494D01*
X116942940Y-107811727D01*
X116946236Y-107801395D01*
X116946556Y-107800057D01*
X116951562Y-107775921D01*
X116960829Y-107728299D01*
X116973392Y-107662259D01*
X116988287Y-107582872D01*
X117004551Y-107495204D01*
X117005119Y-107492125D01*
X117021410Y-107406211D01*
X117036652Y-107330304D01*
X117049861Y-107268955D01*
X117060054Y-107226718D01*
X117066248Y-107208145D01*
X117066543Y-107207816D01*
X117084788Y-107198747D01*
X117122405Y-107183633D01*
X117171271Y-107165738D01*
X117171543Y-107165642D01*
X117233093Y-107142507D01*
X117305657Y-107113035D01*
X117374057Y-107083403D01*
X117377294Y-107081938D01*
X117488702Y-107031374D01*
X117735399Y-107199840D01*
X117811077Y-107251197D01*
X117879631Y-107297111D01*
X117937088Y-107334970D01*
X117979476Y-107362163D01*
X118002825Y-107376079D01*
X118005042Y-107377111D01*
X118022010Y-107372516D01*
X118053701Y-107350345D01*
X118101352Y-107309553D01*
X118166198Y-107249095D01*
X118232397Y-107184773D01*
X118296214Y-107121388D01*
X118353329Y-107063549D01*
X118400305Y-107014825D01*
X118433703Y-106978790D01*
X118450085Y-106959016D01*
X118450694Y-106957998D01*
X118452505Y-106944428D01*
X118445683Y-106922267D01*
X118428540Y-106888522D01*
X118399393Y-106840200D01*
X118356555Y-106774308D01*
X118299448Y-106689483D01*
X118248766Y-106614823D01*
X118203461Y-106547860D01*
X118166150Y-106492484D01*
X118139452Y-106452580D01*
X118125985Y-106432038D01*
X118125137Y-106430644D01*
X118126781Y-106410962D01*
X118139245Y-106372707D01*
X118160048Y-106323111D01*
X118167462Y-106307272D01*
X118199814Y-106236710D01*
X118234328Y-106156647D01*
X118262365Y-106087371D01*
X118282568Y-106035955D01*
X118298615Y-105996881D01*
X118307888Y-105976459D01*
X118309041Y-105974886D01*
X118326096Y-105972279D01*
X118366298Y-105965137D01*
X118424302Y-105954477D01*
X118494763Y-105941315D01*
X118572335Y-105926667D01*
X118651672Y-105911551D01*
X118727431Y-105896982D01*
X118794264Y-105883978D01*
X118846828Y-105873555D01*
X118879776Y-105866730D01*
X118887857Y-105864801D01*
X118896205Y-105860038D01*
X118902506Y-105849282D01*
X118907045Y-105828902D01*
X118910104Y-105795266D01*
X118911967Y-105744745D01*
X118912918Y-105673708D01*
X118913240Y-105578524D01*
X118913257Y-105539508D01*
X118913257Y-105222201D01*
X118837057Y-105207161D01*
X118794663Y-105199005D01*
X118731400Y-105187101D01*
X118654962Y-105172884D01*
X118573043Y-105157790D01*
X118550400Y-105153645D01*
X118474806Y-105138947D01*
X118408953Y-105124495D01*
X118358366Y-105111625D01*
X118328574Y-105101678D01*
X118323612Y-105098713D01*
X118311426Y-105077717D01*
X118293953Y-105037033D01*
X118274577Y-104984678D01*
X118270734Y-104973400D01*
X118245339Y-104903477D01*
X118213817Y-104824582D01*
X118182969Y-104753734D01*
X118182817Y-104753405D01*
X118131447Y-104642267D01*
X118300399Y-104393747D01*
X118469352Y-104145228D01*
X118252429Y-103927942D01*
X118186819Y-103863274D01*
X118126979Y-103806267D01*
X118076267Y-103759967D01*
X118038046Y-103727416D01*
X118015675Y-103711657D01*
X118012466Y-103710657D01*
X117993626Y-103718531D01*
X117955180Y-103740422D01*
X117901330Y-103773733D01*
X117836276Y-103815869D01*
X117765940Y-103863057D01*
X117694555Y-103911190D01*
X117630908Y-103953072D01*
X117579041Y-103986129D01*
X117542995Y-104007782D01*
X117526867Y-104015457D01*
X117507189Y-104008963D01*
X117469875Y-103991850D01*
X117422621Y-103967674D01*
X117417612Y-103964987D01*
X117353977Y-103933073D01*
X117310341Y-103917421D01*
X117283202Y-103917255D01*
X117269057Y-103931796D01*
X117268975Y-103932000D01*
X117261905Y-103949221D01*
X117245042Y-103990101D01*
X117219695Y-104051475D01*
X117187171Y-104130181D01*
X117148778Y-104223053D01*
X117105822Y-104326928D01*
X117064222Y-104427498D01*
X117018504Y-104538484D01*
X116976526Y-104641297D01*
X116939548Y-104732785D01*
X116908827Y-104809799D01*
X116885622Y-104869185D01*
X116871190Y-104907791D01*
X116866743Y-104922200D01*
X116877896Y-104938728D01*
X116907069Y-104965070D01*
X116945971Y-104994113D01*
X117056757Y-105085961D01*
X117143351Y-105191241D01*
X117204716Y-105307734D01*
X117239815Y-105433224D01*
X117247608Y-105565493D01*
X117241943Y-105626543D01*
X117211078Y-105753205D01*
X117157920Y-105865059D01*
X117085767Y-105960999D01*
X116997917Y-106039924D01*
X116897665Y-106100730D01*
X116788310Y-106142313D01*
X116673147Y-106163572D01*
X116555475Y-106163401D01*
X116438590Y-106140699D01*
X116325789Y-106094362D01*
X116220369Y-106023287D01*
X116176368Y-105983089D01*
X116091979Y-105879871D01*
X116033222Y-105767075D01*
X115999704Y-105647990D01*
X115991035Y-105525905D01*
X116006823Y-105404107D01*
X116046678Y-105285884D01*
X116110207Y-105174525D01*
X116197021Y-105073316D01*
X116294029Y-104994113D01*
X116334437Y-104963838D01*
X116362982Y-104937781D01*
X116373257Y-104922175D01*
X116367877Y-104905157D01*
X116352575Y-104864500D01*
X116328612Y-104803358D01*
X116297244Y-104724881D01*
X116259732Y-104632220D01*
X116217333Y-104528528D01*
X116175663Y-104427474D01*
X116129690Y-104316393D01*
X116087107Y-104213459D01*
X116049221Y-104121835D01*
X116017340Y-104044684D01*
X115992771Y-103985169D01*
X115976820Y-103946456D01*
X115970910Y-103932000D01*
X115956948Y-103917315D01*
X115929940Y-103917358D01*
X115886413Y-103932901D01*
X115822890Y-103964716D01*
X115822388Y-103964987D01*
X115774560Y-103989677D01*
X115735897Y-104007662D01*
X115714095Y-104015386D01*
X115713133Y-104015457D01*
X115696721Y-104007622D01*
X115660487Y-103985835D01*
X115608474Y-103952672D01*
X115544725Y-103910709D01*
X115474060Y-103863057D01*
X115402116Y-103814809D01*
X115337274Y-103772849D01*
X115283735Y-103739773D01*
X115245697Y-103718179D01*
X115227533Y-103710657D01*
X115210808Y-103720543D01*
X115177180Y-103748174D01*
X115130010Y-103790505D01*
X115072658Y-103844495D01*
X115008484Y-103907101D01*
X114987497Y-103928017D01*
X114770499Y-104145377D01*
X114935668Y-104387780D01*
X114985864Y-104462219D01*
X115029919Y-104529028D01*
X115065362Y-104584335D01*
X115089719Y-104624271D01*
X115100522Y-104644964D01*
X115100838Y-104646437D01*
X115095143Y-104665942D01*
X115079826Y-104705178D01*
X115057537Y-104757570D01*
X115041893Y-104792645D01*
X115012641Y-104859799D01*
X114985094Y-104927642D01*
X114963737Y-104984966D01*
X114957935Y-105002428D01*
X114941452Y-105049062D01*
X114925340Y-105085095D01*
X114916490Y-105098713D01*
X114896960Y-105107048D01*
X114854334Y-105118863D01*
X114794145Y-105132819D01*
X114721922Y-105147578D01*
X114689600Y-105153645D01*
X114607522Y-105168727D01*
X114528795Y-105183331D01*
X114461109Y-105196020D01*
X114412160Y-105205358D01*
X114402943Y-105207161D01*
X114326743Y-105222201D01*
X114326743Y-105539508D01*
X114326914Y-105643846D01*
X114327616Y-105722787D01*
X114329134Y-105779962D01*
X114331749Y-105819001D01*
X114335746Y-105843535D01*
X114341409Y-105857195D01*
X114349020Y-105863611D01*
X114352143Y-105864801D01*
X114370978Y-105869020D01*
X114412588Y-105877438D01*
X114471630Y-105889039D01*
X114542757Y-105902805D01*
X114620625Y-105917720D01*
X114699887Y-105932768D01*
X114775198Y-105946931D01*
X114841213Y-105959194D01*
X114892587Y-105968539D01*
X114923975Y-105973950D01*
X114930959Y-105974886D01*
X114937285Y-105987404D01*
X114951290Y-106020754D01*
X114970355Y-106068623D01*
X114977634Y-106087371D01*
X115006996Y-106159805D01*
X115041571Y-106239830D01*
X115072537Y-106307272D01*
X115095323Y-106358841D01*
X115110482Y-106401215D01*
X115115542Y-106427166D01*
X115114736Y-106430644D01*
X115104041Y-106447064D01*
X115079620Y-106483583D01*
X115044095Y-106536313D01*
X115000087Y-106601365D01*
X114950217Y-106674849D01*
X114940356Y-106689355D01*
X114882492Y-106775296D01*
X114839956Y-106840739D01*
X114811054Y-106888696D01*
X114794090Y-106922180D01*
X114787367Y-106944205D01*
X114789190Y-106957783D01*
X114789236Y-106957869D01*
X114803586Y-106975703D01*
X114835323Y-107010183D01*
X114881010Y-107057732D01*
X114937204Y-107114778D01*
X115000468Y-107177745D01*
X115007602Y-107184773D01*
X115087330Y-107261980D01*
X115148857Y-107318670D01*
X115193421Y-107355890D01*
X115222257Y-107374685D01*
X115234958Y-107377111D01*
X115253494Y-107366529D01*
X115291961Y-107342084D01*
X115346386Y-107306388D01*
X115412798Y-107262053D01*
X115487225Y-107211689D01*
X115504601Y-107199840D01*
X115751297Y-107031374D01*
X115862706Y-107081938D01*
X115930457Y-107111405D01*
X116003183Y-107141041D01*
X116065703Y-107164670D01*
X116068457Y-107165642D01*
X116117360Y-107183543D01*
X116155057Y-107198680D01*
X116173425Y-107207790D01*
X116173456Y-107207816D01*
X116179285Y-107224283D01*
X116189192Y-107264781D01*
X116202195Y-107324758D01*
X116217309Y-107399660D01*
X116233552Y-107484936D01*
X116234881Y-107492125D01*
X116251175Y-107579986D01*
X116266133Y-107659740D01*
X116278791Y-107726319D01*
X116288186Y-107774653D01*
X116293354Y-107799675D01*
X116293444Y-107800057D01*
X116296589Y-107810701D01*
X116302704Y-107818738D01*
X116315453Y-107824533D01*
X116338500Y-107828453D01*
X116375509Y-107830865D01*
X116430144Y-107832135D01*
X116506067Y-107832629D01*
X116606944Y-107832714D01*
X116620000Y-107832714D01*
X116723910Y-107832652D01*
D16*
X114670666Y-57654000D02*
X114704000Y-57687333D01*
X114804000Y-57720667D01*
X114870666Y-57720667D01*
X114970666Y-57687333D01*
X115037333Y-57620667D01*
X115070666Y-57554000D01*
X115104000Y-57420667D01*
X115104000Y-57320667D01*
X115070666Y-57187333D01*
X115037333Y-57120667D01*
X114970666Y-57054000D01*
X114870666Y-57020667D01*
X114804000Y-57020667D01*
X114704000Y-57054000D01*
X114670666Y-57087333D01*
X114004000Y-57720667D02*
X114404000Y-57720667D01*
X114204000Y-57720667D02*
X114204000Y-57020667D01*
X114270666Y-57120667D01*
X114337333Y-57187333D01*
X114404000Y-57220667D01*
X121634667Y-52969333D02*
X121634667Y-52636000D01*
X120934667Y-52636000D01*
X121634667Y-53569333D02*
X121634667Y-53169333D01*
X121634667Y-53369333D02*
X120934667Y-53369333D01*
X121034667Y-53302667D01*
X121101333Y-53236000D01*
X121134667Y-53169333D01*
D17*
X110785124Y-60004476D02*
X110978648Y-60004476D01*
X110572248Y-59869010D02*
X110785124Y-60004476D01*
X110572248Y-60139943D01*
X110978648Y-60488286D02*
X110978648Y-60256058D01*
X110978648Y-60372172D02*
X110572248Y-60372172D01*
X110630305Y-60333467D01*
X110669010Y-60294762D01*
X110688362Y-60256058D01*
X113603919Y-59312024D02*
X113584567Y-59273319D01*
X113565214Y-59253967D01*
X113526510Y-59234615D01*
X113507157Y-59234615D01*
X113468452Y-59253967D01*
X113449100Y-59273319D01*
X113429748Y-59312024D01*
X113429748Y-59389434D01*
X113449100Y-59428138D01*
X113468452Y-59447491D01*
X113507157Y-59466843D01*
X113526510Y-59466843D01*
X113565214Y-59447491D01*
X113584567Y-59428138D01*
X113603919Y-59389434D01*
X113603919Y-59312024D01*
X113623271Y-59273319D01*
X113642624Y-59253967D01*
X113681329Y-59234615D01*
X113758738Y-59234615D01*
X113797443Y-59253967D01*
X113816795Y-59273319D01*
X113836148Y-59312024D01*
X113836148Y-59389434D01*
X113816795Y-59428138D01*
X113797443Y-59447491D01*
X113758738Y-59466843D01*
X113681329Y-59466843D01*
X113642624Y-59447491D01*
X113623271Y-59428138D01*
X113603919Y-59389434D01*
X113836148Y-59641015D02*
X113429748Y-59641015D01*
X113720033Y-59776482D01*
X113429748Y-59911948D01*
X113836148Y-59911948D01*
X113836148Y-60105472D02*
X113429748Y-60105472D01*
X113836148Y-60279643D02*
X113623271Y-60279643D01*
X113584567Y-60260291D01*
X113565214Y-60221586D01*
X113565214Y-60163529D01*
X113584567Y-60124824D01*
X113603919Y-60105472D01*
X113565214Y-60434462D02*
X113565214Y-60647338D01*
X113836148Y-60434462D01*
X113836148Y-60647338D01*
D16*
X114162666Y-48026000D02*
X114196000Y-48059333D01*
X114296000Y-48092667D01*
X114362666Y-48092667D01*
X114462666Y-48059333D01*
X114529333Y-47992667D01*
X114562666Y-47926000D01*
X114596000Y-47792667D01*
X114596000Y-47692667D01*
X114562666Y-47559333D01*
X114529333Y-47492667D01*
X114462666Y-47426000D01*
X114362666Y-47392667D01*
X114296000Y-47392667D01*
X114196000Y-47426000D01*
X114162666Y-47459333D01*
X113896000Y-47459333D02*
X113862666Y-47426000D01*
X113796000Y-47392667D01*
X113629333Y-47392667D01*
X113562666Y-47426000D01*
X113529333Y-47459333D01*
X113496000Y-47526000D01*
X113496000Y-47592667D01*
X113529333Y-47692667D01*
X113929333Y-48092667D01*
X113496000Y-48092667D01*
X111368666Y-104076667D02*
X111602000Y-103743333D01*
X111768666Y-104076667D02*
X111768666Y-103376667D01*
X111502000Y-103376667D01*
X111435333Y-103410000D01*
X111402000Y-103443333D01*
X111368666Y-103510000D01*
X111368666Y-103610000D01*
X111402000Y-103676667D01*
X111435333Y-103710000D01*
X111502000Y-103743333D01*
X111768666Y-103743333D01*
X110702000Y-104076667D02*
X111102000Y-104076667D01*
X110902000Y-104076667D02*
X110902000Y-103376667D01*
X110968666Y-103476667D01*
X111035333Y-103543333D01*
X111102000Y-103576667D01*
X116902667Y-82179334D02*
X116569333Y-81946000D01*
X116902667Y-81779334D02*
X116202667Y-81779334D01*
X116202667Y-82046000D01*
X116236000Y-82112667D01*
X116269333Y-82146000D01*
X116336000Y-82179334D01*
X116436000Y-82179334D01*
X116502667Y-82146000D01*
X116536000Y-82112667D01*
X116569333Y-82046000D01*
X116569333Y-81779334D01*
X116436000Y-82779334D02*
X116902667Y-82779334D01*
X116169333Y-82612667D02*
X116669333Y-82446000D01*
X116669333Y-82879334D01*
X119176666Y-78641667D02*
X119410000Y-78308333D01*
X119576666Y-78641667D02*
X119576666Y-77941667D01*
X119310000Y-77941667D01*
X119243333Y-77975000D01*
X119210000Y-78008333D01*
X119176666Y-78075000D01*
X119176666Y-78175000D01*
X119210000Y-78241667D01*
X119243333Y-78275000D01*
X119310000Y-78308333D01*
X119576666Y-78308333D01*
X118943333Y-77941667D02*
X118476666Y-77941667D01*
X118776666Y-78641667D01*
X114183867Y-78496334D02*
X113850533Y-78263000D01*
X114183867Y-78096334D02*
X113483867Y-78096334D01*
X113483867Y-78363000D01*
X113517200Y-78429667D01*
X113550533Y-78463000D01*
X113617200Y-78496334D01*
X113717200Y-78496334D01*
X113783867Y-78463000D01*
X113817200Y-78429667D01*
X113850533Y-78363000D01*
X113850533Y-78096334D01*
X113783867Y-78896334D02*
X113750533Y-78829667D01*
X113717200Y-78796334D01*
X113650533Y-78763000D01*
X113617200Y-78763000D01*
X113550533Y-78796334D01*
X113517200Y-78829667D01*
X113483867Y-78896334D01*
X113483867Y-79029667D01*
X113517200Y-79096334D01*
X113550533Y-79129667D01*
X113617200Y-79163000D01*
X113650533Y-79163000D01*
X113717200Y-79129667D01*
X113750533Y-79096334D01*
X113783867Y-79029667D01*
X113783867Y-78896334D01*
X113817200Y-78829667D01*
X113850533Y-78796334D01*
X113917200Y-78763000D01*
X114050533Y-78763000D01*
X114117200Y-78796334D01*
X114150533Y-78829667D01*
X114183867Y-78896334D01*
X114183867Y-79029667D01*
X114150533Y-79096334D01*
X114117200Y-79129667D01*
X114050533Y-79163000D01*
X113917200Y-79163000D01*
X113850533Y-79129667D01*
X113817200Y-79096334D01*
X113783867Y-79029667D01*
X112039333Y-52194667D02*
X112039333Y-52761333D01*
X112006000Y-52828000D01*
X111972667Y-52861333D01*
X111906000Y-52894667D01*
X111772667Y-52894667D01*
X111706000Y-52861333D01*
X111672667Y-52828000D01*
X111639333Y-52761333D01*
X111639333Y-52194667D01*
X111372667Y-52194667D02*
X110939334Y-52194667D01*
X111172667Y-52461333D01*
X111072667Y-52461333D01*
X111006000Y-52494667D01*
X110972667Y-52528000D01*
X110939334Y-52594667D01*
X110939334Y-52761333D01*
X110972667Y-52828000D01*
X111006000Y-52861333D01*
X111072667Y-52894667D01*
X111272667Y-52894667D01*
X111339334Y-52861333D01*
X111372667Y-52828000D01*
D12*
X124539333Y-81538381D02*
X124539333Y-82252667D01*
X124586953Y-82395524D01*
X124682191Y-82490762D01*
X124825048Y-82538381D01*
X124920286Y-82538381D01*
X123920286Y-81966952D02*
X124015524Y-81919333D01*
X124063143Y-81871714D01*
X124110762Y-81776476D01*
X124110762Y-81728857D01*
X124063143Y-81633619D01*
X124015524Y-81586000D01*
X123920286Y-81538381D01*
X123729809Y-81538381D01*
X123634571Y-81586000D01*
X123586952Y-81633619D01*
X123539333Y-81728857D01*
X123539333Y-81776476D01*
X123586952Y-81871714D01*
X123634571Y-81919333D01*
X123729809Y-81966952D01*
X123920286Y-81966952D01*
X124015524Y-82014571D01*
X124063143Y-82062190D01*
X124110762Y-82157429D01*
X124110762Y-82347905D01*
X124063143Y-82443143D01*
X124015524Y-82490762D01*
X123920286Y-82538381D01*
X123729809Y-82538381D01*
X123634571Y-82490762D01*
X123586952Y-82443143D01*
X123539333Y-82347905D01*
X123539333Y-82157429D01*
X123586952Y-82062190D01*
X123634571Y-82014571D01*
X123729809Y-81966952D01*
X124518333Y-53582381D02*
X124518333Y-54296667D01*
X124565953Y-54439524D01*
X124661191Y-54534762D01*
X124804048Y-54582381D01*
X124899286Y-54582381D01*
X124137381Y-53582381D02*
X123470714Y-53582381D01*
X123899286Y-54582381D01*
M02*
