M48
;DRILL file {KiCad 4.0.7-e2-6376~61~ubuntu18.04.1} date Thu Mar 14 12:41:05 2019
;FORMAT={-:-/ absolute / inch / decimal}
FMAT,2
INCH,TZ
T1C0.010
T2C0.030
T3C0.039
%
G90
G05
M72
T1
X4.17Y-4.12
X4.1752Y-4.0451
X4.2199Y-2.8799
X4.285Y-4.1774
X4.2976Y-4.127
X4.2984Y-3.9541
X4.3012Y-3.8998
X4.3035Y-4.0305
X4.3382Y-4.3002
X4.3579Y-4.0085
X4.3606Y-1.9144
X4.3783Y-2.0758
X4.398Y-2.9183
X4.4413Y-1.8829
X4.4413Y-2.872
X4.4413Y-2.9281
X4.45Y-2.25
X4.4778Y-3.064
X4.5004Y-2.1998
X4.5362Y-3.2289
X4.5437Y-3.14
X4.5496Y-2.9016
X4.55Y-2.95
X4.55Y-3.07
X4.5565Y-2.5531
X4.5594Y-3.8789
X4.58Y-4.02
X4.5801Y-3.061
X4.5939Y-2.4144
X4.5959Y-2.8848
X4.5988Y-2.4951
X4.6092Y-2.7192
X4.6116Y-3.0551
X4.6234Y-2.7844
X4.63Y-2.69
X4.6311Y-3.9404
X4.6372Y-2.5778
X4.64Y-2.39
X4.6441Y-3.1053
X4.67Y-2.39
X4.6864Y-2.6831
X4.7051Y-2.8612
X4.7071Y-3.0876
X4.75Y-4.06
X4.7622Y-2.3691
X4.765Y-3.1947
X4.7937Y-1.8809
X4.7947Y-2.1949
X4.8378Y-3.6266
X4.99Y-2.9
T2
X4.9541Y-1.7776
X4.9541Y-1.8563
T3
X4.252Y-1.762
X4.291Y-2.04
X4.291Y-2.14
X4.291Y-2.24
X4.291Y-2.34
X4.291Y-2.44
X4.291Y-2.54
X4.291Y-2.64
X4.291Y-2.74
X4.291Y-2.84
X4.291Y-2.94
X4.291Y-3.04
X4.291Y-3.14
X4.33Y-3.3347
X4.33Y-3.4331
X4.33Y-3.5316
X4.33Y-3.63
X4.352Y-1.762
X4.452Y-1.762
X4.552Y-1.762
X4.5988Y-3.3829
X4.5988Y-3.4829
X4.652Y-1.762
X4.752Y-1.762
X4.8Y-3.3
X4.8Y-3.4
X4.8Y-3.5
X4.8892Y-2.0394
X4.89Y-2.14
X4.89Y-2.24
X4.89Y-2.34
X4.89Y-2.44
X4.89Y-2.54
X4.89Y-2.64
X4.89Y-2.74
X4.89Y-2.84
X4.89Y-2.94
X4.89Y-3.04
X4.89Y-3.14
X4.9Y-3.3
X4.9Y-3.4
X4.9Y-3.5
X4.96Y-3.97
X4.96Y-4.07
X4.96Y-4.17
T0
M30
