G04 #@! TF.FileFunction,Soldermask,Top*
%FSLAX46Y46*%
G04 Gerber Fmt 4.6, Leading zero omitted, Abs format (unit mm)*
G04 Created by KiCad (PCBNEW 4.0.7-e2-6376~61~ubuntu18.04.1) date Thu Mar 14 12:40:49 2019*
%MOMM*%
%LPD*%
G01*
G04 APERTURE LIST*
%ADD10C,0.100000*%
%ADD11R,2.100000X1.600000*%
%ADD12O,2.100000X1.600000*%
%ADD13R,2.350000X1.450000*%
%ADD14R,2.100000X2.100000*%
%ADD15O,2.100000X2.100000*%
%ADD16R,1.400000X1.400000*%
%ADD17R,2.600000X1.400000*%
%ADD18R,2.150000X2.150000*%
%ADD19C,2.150000*%
%ADD20R,1.900000X1.800000*%
%ADD21O,2.305000X0.849580*%
%ADD22R,1.650000X1.400000*%
%ADD23R,1.400000X1.650000*%
%ADD24R,1.600000X1.600000*%
%ADD25R,1.700000X1.100000*%
%ADD26R,1.200000X1.300000*%
%ADD27R,1.100000X1.700000*%
%ADD28C,2.600000*%
G04 APERTURE END LIST*
D10*
D11*
X125835000Y-47150000D03*
D12*
X125835000Y-45150000D03*
D10*
G36*
X114771712Y-61953666D02*
X115443464Y-61281914D01*
X116857678Y-62696128D01*
X116185926Y-63367880D01*
X114771712Y-61953666D01*
X114771712Y-61953666D01*
G37*
G36*
X114206027Y-62519352D02*
X114877779Y-61847600D01*
X116291993Y-63261814D01*
X115620241Y-63933566D01*
X114206027Y-62519352D01*
X114206027Y-62519352D01*
G37*
G36*
X113640341Y-63085037D02*
X114312093Y-62413285D01*
X115726307Y-63827499D01*
X115054555Y-64499251D01*
X113640341Y-63085037D01*
X113640341Y-63085037D01*
G37*
G36*
X113074656Y-63650722D02*
X113746408Y-62978970D01*
X115160622Y-64393184D01*
X114488870Y-65064936D01*
X113074656Y-63650722D01*
X113074656Y-63650722D01*
G37*
G36*
X112508970Y-64216408D02*
X113180722Y-63544656D01*
X114594936Y-64958870D01*
X113923184Y-65630622D01*
X112508970Y-64216408D01*
X112508970Y-64216408D01*
G37*
G36*
X111943285Y-64782093D02*
X112615037Y-64110341D01*
X114029251Y-65524555D01*
X113357499Y-66196307D01*
X111943285Y-64782093D01*
X111943285Y-64782093D01*
G37*
G36*
X111377600Y-65347779D02*
X112049352Y-64676027D01*
X113463566Y-66090241D01*
X112791814Y-66761993D01*
X111377600Y-65347779D01*
X111377600Y-65347779D01*
G37*
G36*
X110811914Y-65913464D02*
X111483666Y-65241712D01*
X112897880Y-66655926D01*
X112226128Y-67327678D01*
X110811914Y-65913464D01*
X110811914Y-65913464D01*
G37*
G36*
X111483666Y-69378288D02*
X110811914Y-68706536D01*
X112226128Y-67292322D01*
X112897880Y-67964074D01*
X111483666Y-69378288D01*
X111483666Y-69378288D01*
G37*
G36*
X112049352Y-69943973D02*
X111377600Y-69272221D01*
X112791814Y-67858007D01*
X113463566Y-68529759D01*
X112049352Y-69943973D01*
X112049352Y-69943973D01*
G37*
G36*
X112615037Y-70509659D02*
X111943285Y-69837907D01*
X113357499Y-68423693D01*
X114029251Y-69095445D01*
X112615037Y-70509659D01*
X112615037Y-70509659D01*
G37*
G36*
X113180722Y-71075344D02*
X112508970Y-70403592D01*
X113923184Y-68989378D01*
X114594936Y-69661130D01*
X113180722Y-71075344D01*
X113180722Y-71075344D01*
G37*
G36*
X113746408Y-71641030D02*
X113074656Y-70969278D01*
X114488870Y-69555064D01*
X115160622Y-70226816D01*
X113746408Y-71641030D01*
X113746408Y-71641030D01*
G37*
G36*
X114312093Y-72206715D02*
X113640341Y-71534963D01*
X115054555Y-70120749D01*
X115726307Y-70792501D01*
X114312093Y-72206715D01*
X114312093Y-72206715D01*
G37*
G36*
X114877779Y-72772400D02*
X114206027Y-72100648D01*
X115620241Y-70686434D01*
X116291993Y-71358186D01*
X114877779Y-72772400D01*
X114877779Y-72772400D01*
G37*
G36*
X115443464Y-73338086D02*
X114771712Y-72666334D01*
X116185926Y-71252120D01*
X116857678Y-71923872D01*
X115443464Y-73338086D01*
X115443464Y-73338086D01*
G37*
G36*
X116822322Y-71923872D02*
X117494074Y-71252120D01*
X118908288Y-72666334D01*
X118236536Y-73338086D01*
X116822322Y-71923872D01*
X116822322Y-71923872D01*
G37*
G36*
X117388007Y-71358186D02*
X118059759Y-70686434D01*
X119473973Y-72100648D01*
X118802221Y-72772400D01*
X117388007Y-71358186D01*
X117388007Y-71358186D01*
G37*
G36*
X117953693Y-70792501D02*
X118625445Y-70120749D01*
X120039659Y-71534963D01*
X119367907Y-72206715D01*
X117953693Y-70792501D01*
X117953693Y-70792501D01*
G37*
G36*
X118519378Y-70226816D02*
X119191130Y-69555064D01*
X120605344Y-70969278D01*
X119933592Y-71641030D01*
X118519378Y-70226816D01*
X118519378Y-70226816D01*
G37*
G36*
X119085064Y-69661130D02*
X119756816Y-68989378D01*
X121171030Y-70403592D01*
X120499278Y-71075344D01*
X119085064Y-69661130D01*
X119085064Y-69661130D01*
G37*
G36*
X119650749Y-69095445D02*
X120322501Y-68423693D01*
X121736715Y-69837907D01*
X121064963Y-70509659D01*
X119650749Y-69095445D01*
X119650749Y-69095445D01*
G37*
G36*
X120216434Y-68529759D02*
X120888186Y-67858007D01*
X122302400Y-69272221D01*
X121630648Y-69943973D01*
X120216434Y-68529759D01*
X120216434Y-68529759D01*
G37*
G36*
X120782120Y-67964074D02*
X121453872Y-67292322D01*
X122868086Y-68706536D01*
X122196334Y-69378288D01*
X120782120Y-67964074D01*
X120782120Y-67964074D01*
G37*
G36*
X121453872Y-67327678D02*
X120782120Y-66655926D01*
X122196334Y-65241712D01*
X122868086Y-65913464D01*
X121453872Y-67327678D01*
X121453872Y-67327678D01*
G37*
G36*
X120888186Y-66761993D02*
X120216434Y-66090241D01*
X121630648Y-64676027D01*
X122302400Y-65347779D01*
X120888186Y-66761993D01*
X120888186Y-66761993D01*
G37*
G36*
X120322501Y-66196307D02*
X119650749Y-65524555D01*
X121064963Y-64110341D01*
X121736715Y-64782093D01*
X120322501Y-66196307D01*
X120322501Y-66196307D01*
G37*
G36*
X119756816Y-65630622D02*
X119085064Y-64958870D01*
X120499278Y-63544656D01*
X121171030Y-64216408D01*
X119756816Y-65630622D01*
X119756816Y-65630622D01*
G37*
G36*
X119191130Y-65064936D02*
X118519378Y-64393184D01*
X119933592Y-62978970D01*
X120605344Y-63650722D01*
X119191130Y-65064936D01*
X119191130Y-65064936D01*
G37*
G36*
X118625445Y-64499251D02*
X117953693Y-63827499D01*
X119367907Y-62413285D01*
X120039659Y-63085037D01*
X118625445Y-64499251D01*
X118625445Y-64499251D01*
G37*
G36*
X118059759Y-63933566D02*
X117388007Y-63261814D01*
X118802221Y-61847600D01*
X119473973Y-62519352D01*
X118059759Y-63933566D01*
X118059759Y-63933566D01*
G37*
G36*
X117494074Y-63367880D02*
X116822322Y-62696128D01*
X118236536Y-61281914D01*
X118908288Y-61953666D01*
X117494074Y-63367880D01*
X117494074Y-63367880D01*
G37*
D13*
X107560400Y-97089200D03*
X107560400Y-99089200D03*
X107560400Y-101089200D03*
X107560400Y-103089200D03*
X107560400Y-105089200D03*
X107560400Y-107089200D03*
X107560400Y-109089200D03*
X107560400Y-111089200D03*
X122360400Y-111089200D03*
X122360400Y-109089200D03*
X122360400Y-107089200D03*
X122360400Y-105089200D03*
X122360400Y-103089200D03*
X122360400Y-101089200D03*
X122360400Y-99089200D03*
X122360400Y-97089200D03*
D14*
X121920000Y-83820000D03*
D15*
X124460000Y-83820000D03*
X121920000Y-86360000D03*
X124460000Y-86360000D03*
X121920000Y-88900000D03*
X124460000Y-88900000D03*
D14*
X125984000Y-100838000D03*
D15*
X125984000Y-103378000D03*
X125984000Y-105918000D03*
D16*
X124840000Y-110965000D03*
D17*
X126340000Y-109465000D03*
X126340000Y-112465000D03*
D14*
X108991400Y-79756000D03*
D15*
X108991400Y-77216000D03*
X108991400Y-74676000D03*
X108991400Y-72136000D03*
X108991400Y-69596000D03*
X108991400Y-67056000D03*
X108991400Y-64516000D03*
X108991400Y-61976000D03*
X108991400Y-59436000D03*
X108991400Y-56896000D03*
X108991400Y-54356000D03*
X108991400Y-51816000D03*
D14*
X108000800Y-44754800D03*
D15*
X110540800Y-44754800D03*
X113080800Y-44754800D03*
X115620800Y-44754800D03*
X118160800Y-44754800D03*
X120700800Y-44754800D03*
D18*
X109982000Y-92202000D03*
D19*
X109982000Y-89702000D03*
X109982000Y-87202000D03*
X109982000Y-84702000D03*
D20*
X112037600Y-79654400D03*
X121337600Y-79654400D03*
D21*
X112268000Y-61396880D03*
X112268000Y-60198000D03*
X112268000Y-58999120D03*
D22*
X116738400Y-74488800D03*
X116738400Y-76488800D03*
D23*
X115281200Y-56083200D03*
X117281200Y-56083200D03*
D22*
X121361200Y-74539600D03*
X121361200Y-76539600D03*
X112110000Y-75450000D03*
X112110000Y-77450000D03*
D24*
X118872000Y-74338000D03*
X118872000Y-76538000D03*
X114401600Y-74439600D03*
X114401600Y-76639600D03*
D25*
X115138200Y-59725600D03*
X115138200Y-57825600D03*
X117424200Y-59725600D03*
X117424200Y-57825600D03*
D14*
X116810000Y-85925000D03*
D15*
X116810000Y-88465000D03*
D26*
X114710000Y-50675000D03*
X116610000Y-50675000D03*
X115660000Y-48675000D03*
D24*
X120010000Y-48625000D03*
X120010000Y-50825000D03*
D27*
X119710000Y-53150000D03*
X121610000Y-53150000D03*
D14*
X124206000Y-79756000D03*
D15*
X124206000Y-77216000D03*
X124206000Y-74676000D03*
X124206000Y-72136000D03*
X124206000Y-69596000D03*
X124206000Y-67056000D03*
X124206000Y-64516000D03*
X124206000Y-61976000D03*
X124206000Y-59436000D03*
X124206000Y-56896000D03*
X124206000Y-54356000D03*
D14*
X124185000Y-51800000D03*
D28*
X107060000Y-48600000D03*
X125910000Y-95100000D03*
M02*
